G04 (created by PCBNEW (2013-jul-07)-stable) date 2014年08月03日 (週日) 20時36分34秒*
%MOIN*%
G04 Gerber Fmt 3.4, Leading zero omitted, Abs format*
%FSLAX34Y34*%
G01*
G70*
G90*
G04 APERTURE LIST*
%ADD10C,0.00590551*%
%ADD11C,0.015*%
%ADD12C,0.005*%
%ADD13C,0.012*%
%ADD14C,0.006*%
%ADD15C,0.01*%
%ADD16C,0.008*%
%ADD17C,0.01125*%
G04 APERTURE END LIST*
G54D10*
G54D11*
X54300Y-46900D02*
X54300Y-46000D01*
X56500Y-46900D02*
X56500Y-46000D01*
X58700Y-46900D02*
X58700Y-46000D01*
X57200Y-40300D02*
G75*
G03X57200Y-40300I-700J0D01*
G74*
G01*
X59700Y-37900D02*
X59700Y-46000D01*
X53300Y-37900D02*
X59700Y-37900D01*
X53300Y-46000D02*
X53300Y-37900D01*
X59700Y-46000D02*
X53300Y-46000D01*
G54D12*
X48250Y-45500D02*
G75*
G03X48250Y-45500I-1250J0D01*
G74*
G01*
G54D13*
X71195Y-41500D02*
G75*
G03X71195Y-41500I-2195J0D01*
G74*
G01*
X71195Y-47500D02*
G75*
G03X71195Y-47500I-2195J0D01*
G74*
G01*
X52000Y-38500D02*
X52000Y-38800D01*
X52000Y-38800D02*
X51600Y-38800D01*
X51600Y-38800D02*
X51600Y-41200D01*
X51600Y-41200D02*
X52000Y-41200D01*
X52000Y-41200D02*
X52000Y-41500D01*
X52000Y-41200D02*
X52400Y-41200D01*
X52400Y-41200D02*
X52400Y-38800D01*
X52400Y-38800D02*
X52000Y-38800D01*
X51600Y-39000D02*
X52400Y-39000D01*
X52400Y-39100D02*
X51600Y-39100D01*
X64000Y-39000D02*
X63700Y-39000D01*
X63700Y-39000D02*
X63700Y-38600D01*
X63700Y-38600D02*
X61300Y-38600D01*
X61300Y-38600D02*
X61300Y-39000D01*
X61300Y-39000D02*
X61000Y-39000D01*
X61300Y-39000D02*
X61300Y-39400D01*
X61300Y-39400D02*
X63700Y-39400D01*
X63700Y-39400D02*
X63700Y-39000D01*
X63500Y-38600D02*
X63500Y-39400D01*
X63400Y-39400D02*
X63400Y-38600D01*
G54D14*
X61500Y-37000D02*
X61500Y-36000D01*
X61500Y-36000D02*
X63500Y-36000D01*
X63500Y-36000D02*
X63500Y-37000D01*
X63500Y-37000D02*
X61500Y-37000D01*
X65500Y-37000D02*
X65500Y-36000D01*
X65500Y-36000D02*
X67500Y-36000D01*
X67500Y-36000D02*
X67500Y-37000D01*
X67500Y-37000D02*
X65500Y-37000D01*
G54D11*
X48000Y-36500D02*
X47000Y-36500D01*
X48559Y-36500D02*
G75*
G03X48559Y-36500I-559J0D01*
G74*
G01*
X51500Y-49000D02*
X50500Y-49000D01*
X52059Y-49000D02*
G75*
G03X52059Y-49000I-559J0D01*
G74*
G01*
X50000Y-36500D02*
X51000Y-36500D01*
X50559Y-36500D02*
G75*
G03X50559Y-36500I-559J0D01*
G74*
G01*
X62000Y-41500D02*
X63000Y-41500D01*
X62559Y-41500D02*
G75*
G03X62559Y-41500I-559J0D01*
G74*
G01*
X62000Y-44000D02*
X63000Y-44000D01*
X62559Y-44000D02*
G75*
G03X62559Y-44000I-559J0D01*
G74*
G01*
G54D15*
X49000Y-38000D02*
X49000Y-38500D01*
X49000Y-38500D02*
X48000Y-38500D01*
X48000Y-38500D02*
X48000Y-38000D01*
X49500Y-38000D02*
X49500Y-42000D01*
X49500Y-42000D02*
X47500Y-42000D01*
X47500Y-42000D02*
X47500Y-38000D01*
X47500Y-38000D02*
X49500Y-38000D01*
G54D14*
X47500Y-49500D02*
X46500Y-49500D01*
X46500Y-49500D02*
X46500Y-47500D01*
X46500Y-47500D02*
X47500Y-47500D01*
X47500Y-47500D02*
X47500Y-49500D01*
X70500Y-38000D02*
X69500Y-38000D01*
X69500Y-38000D02*
X69500Y-36000D01*
X69500Y-36000D02*
X70500Y-36000D01*
X70500Y-36000D02*
X70500Y-38000D01*
G54D11*
X55500Y-36500D02*
X56500Y-36500D01*
X56059Y-36500D02*
G75*
G03X56059Y-36500I-559J0D01*
G74*
G01*
X53000Y-36500D02*
X54000Y-36500D01*
X53559Y-36500D02*
G75*
G03X53559Y-36500I-559J0D01*
G74*
G01*
G54D13*
X61250Y-49000D02*
X62750Y-47500D01*
X62750Y-47500D02*
X62750Y-47000D01*
X62750Y-47000D02*
X62250Y-46500D01*
X62250Y-46500D02*
X61250Y-46500D01*
X61250Y-46500D02*
X60250Y-47500D01*
X60250Y-47500D02*
X60250Y-48500D01*
X60250Y-48500D02*
X60750Y-49000D01*
X60750Y-49000D02*
X61250Y-49000D01*
X52150Y-47400D02*
X49350Y-47400D01*
X49350Y-47400D02*
X49350Y-46600D01*
X49350Y-46600D02*
X52150Y-46600D01*
X52150Y-46600D02*
X52150Y-47400D01*
X52150Y-47200D02*
X51950Y-47400D01*
X54599Y-38450D02*
X54628Y-38421D01*
X54685Y-38392D01*
X54828Y-38392D01*
X54885Y-38421D01*
X54914Y-38450D01*
X54942Y-38507D01*
X54942Y-38564D01*
X54914Y-38650D01*
X54571Y-38992D01*
X54942Y-38992D01*
X55171Y-38964D02*
X55257Y-38992D01*
X55399Y-38992D01*
X55457Y-38964D01*
X55485Y-38935D01*
X55514Y-38878D01*
X55514Y-38821D01*
X55485Y-38764D01*
X55457Y-38735D01*
X55399Y-38707D01*
X55285Y-38678D01*
X55228Y-38650D01*
X55199Y-38621D01*
X55171Y-38564D01*
X55171Y-38507D01*
X55199Y-38450D01*
X55228Y-38421D01*
X55285Y-38392D01*
X55428Y-38392D01*
X55514Y-38421D01*
X55771Y-38992D02*
X55771Y-38392D01*
X56114Y-38992D02*
X55857Y-38650D01*
X56114Y-38392D02*
X55771Y-38735D01*
X56342Y-38450D02*
X56371Y-38421D01*
X56428Y-38392D01*
X56571Y-38392D01*
X56628Y-38421D01*
X56657Y-38450D01*
X56685Y-38507D01*
X56685Y-38564D01*
X56657Y-38650D01*
X56314Y-38992D01*
X56685Y-38992D01*
X57200Y-38392D02*
X57085Y-38392D01*
X57028Y-38421D01*
X57000Y-38450D01*
X56942Y-38535D01*
X56914Y-38650D01*
X56914Y-38878D01*
X56942Y-38935D01*
X56971Y-38964D01*
X57028Y-38992D01*
X57142Y-38992D01*
X57200Y-38964D01*
X57228Y-38935D01*
X57257Y-38878D01*
X57257Y-38735D01*
X57228Y-38678D01*
X57200Y-38650D01*
X57142Y-38621D01*
X57028Y-38621D01*
X56971Y-38650D01*
X56942Y-38678D01*
X56914Y-38735D01*
X57828Y-38992D02*
X57485Y-38992D01*
X57657Y-38992D02*
X57657Y-38392D01*
X57600Y-38478D01*
X57542Y-38535D01*
X57485Y-38564D01*
X58400Y-38992D02*
X58057Y-38992D01*
X58228Y-38992D02*
X58228Y-38392D01*
X58171Y-38478D01*
X58114Y-38535D01*
X58057Y-38564D01*
X55005Y-43102D02*
X55348Y-43102D01*
X55177Y-43702D02*
X55177Y-43102D01*
X55662Y-43102D02*
X55777Y-43102D01*
X55834Y-43131D01*
X55891Y-43188D01*
X55920Y-43302D01*
X55920Y-43502D01*
X55891Y-43617D01*
X55834Y-43674D01*
X55777Y-43702D01*
X55662Y-43702D01*
X55605Y-43674D01*
X55548Y-43617D01*
X55520Y-43502D01*
X55520Y-43302D01*
X55548Y-43188D01*
X55605Y-43131D01*
X55662Y-43102D01*
X56177Y-43474D02*
X56634Y-43474D01*
X56891Y-43160D02*
X56919Y-43131D01*
X56977Y-43102D01*
X57119Y-43102D01*
X57177Y-43131D01*
X57205Y-43160D01*
X57234Y-43217D01*
X57234Y-43274D01*
X57205Y-43360D01*
X56862Y-43702D01*
X57234Y-43702D01*
X57805Y-43702D02*
X57462Y-43702D01*
X57634Y-43702D02*
X57634Y-43102D01*
X57577Y-43188D01*
X57520Y-43245D01*
X57462Y-43274D01*
X58148Y-43360D02*
X58091Y-43331D01*
X58062Y-43302D01*
X58034Y-43245D01*
X58034Y-43217D01*
X58062Y-43160D01*
X58091Y-43131D01*
X58148Y-43102D01*
X58262Y-43102D01*
X58320Y-43131D01*
X58348Y-43160D01*
X58377Y-43217D01*
X58377Y-43245D01*
X58348Y-43302D01*
X58320Y-43331D01*
X58262Y-43360D01*
X58148Y-43360D01*
X58091Y-43388D01*
X58062Y-43417D01*
X58034Y-43474D01*
X58034Y-43588D01*
X58062Y-43645D01*
X58091Y-43674D01*
X58148Y-43702D01*
X58262Y-43702D01*
X58320Y-43674D01*
X58348Y-43645D01*
X58377Y-43588D01*
X58377Y-43474D01*
X58348Y-43417D01*
X58320Y-43388D01*
X58262Y-43360D01*
X54945Y-41852D02*
X55288Y-41852D01*
X55117Y-42452D02*
X55117Y-41852D01*
X55602Y-41852D02*
X55717Y-41852D01*
X55774Y-41881D01*
X55831Y-41938D01*
X55860Y-42052D01*
X55860Y-42252D01*
X55831Y-42367D01*
X55774Y-42424D01*
X55717Y-42452D01*
X55602Y-42452D01*
X55545Y-42424D01*
X55488Y-42367D01*
X55460Y-42252D01*
X55460Y-42052D01*
X55488Y-41938D01*
X55545Y-41881D01*
X55602Y-41852D01*
X56117Y-42224D02*
X56574Y-42224D01*
X56831Y-41910D02*
X56859Y-41881D01*
X56917Y-41852D01*
X57059Y-41852D01*
X57117Y-41881D01*
X57145Y-41910D01*
X57174Y-41967D01*
X57174Y-42024D01*
X57145Y-42110D01*
X56802Y-42452D01*
X57174Y-42452D01*
X57688Y-42052D02*
X57688Y-42452D01*
X57545Y-41824D02*
X57402Y-42252D01*
X57774Y-42252D01*
X57945Y-41852D02*
X58345Y-41852D01*
X58088Y-42452D01*
X59343Y-46969D02*
X59429Y-46997D01*
X59572Y-46997D01*
X59629Y-46969D01*
X59657Y-46940D01*
X59686Y-46883D01*
X59686Y-46826D01*
X59657Y-46769D01*
X59629Y-46740D01*
X59572Y-46712D01*
X59457Y-46683D01*
X59400Y-46655D01*
X59372Y-46626D01*
X59343Y-46569D01*
X59343Y-46512D01*
X59372Y-46455D01*
X59400Y-46426D01*
X59457Y-46397D01*
X59600Y-46397D01*
X59686Y-46426D01*
X57157Y-46897D02*
X57157Y-46297D01*
X57300Y-46297D01*
X57386Y-46326D01*
X57443Y-46383D01*
X57472Y-46440D01*
X57500Y-46555D01*
X57500Y-46640D01*
X57472Y-46755D01*
X57443Y-46812D01*
X57386Y-46869D01*
X57300Y-46897D01*
X57157Y-46897D01*
X55272Y-46376D02*
X55215Y-46347D01*
X55129Y-46347D01*
X55043Y-46376D01*
X54986Y-46433D01*
X54957Y-46490D01*
X54929Y-46605D01*
X54929Y-46690D01*
X54957Y-46805D01*
X54986Y-46862D01*
X55043Y-46919D01*
X55129Y-46947D01*
X55186Y-46947D01*
X55272Y-46919D01*
X55300Y-46890D01*
X55300Y-46690D01*
X55186Y-46690D01*
G54D16*
X47739Y-45558D02*
X47760Y-45575D01*
X47782Y-45625D01*
X47782Y-45658D01*
X47760Y-45708D01*
X47717Y-45741D01*
X47675Y-45758D01*
X47589Y-45775D01*
X47525Y-45775D01*
X47439Y-45758D01*
X47396Y-45741D01*
X47353Y-45708D01*
X47332Y-45658D01*
X47332Y-45625D01*
X47353Y-45575D01*
X47375Y-45558D01*
X47782Y-45225D02*
X47782Y-45425D01*
X47782Y-45325D02*
X47332Y-45325D01*
X47396Y-45358D01*
X47439Y-45391D01*
X47460Y-45425D01*
X46582Y-46641D02*
X46582Y-46841D01*
X46582Y-46741D02*
X46132Y-46741D01*
X46196Y-46775D01*
X46239Y-46808D01*
X46260Y-46841D01*
X46132Y-46425D02*
X46132Y-46391D01*
X46153Y-46358D01*
X46175Y-46341D01*
X46217Y-46325D01*
X46303Y-46308D01*
X46410Y-46308D01*
X46496Y-46325D01*
X46539Y-46341D01*
X46560Y-46358D01*
X46582Y-46391D01*
X46582Y-46425D01*
X46560Y-46458D01*
X46539Y-46475D01*
X46496Y-46491D01*
X46410Y-46508D01*
X46303Y-46508D01*
X46217Y-46491D01*
X46175Y-46475D01*
X46153Y-46458D01*
X46132Y-46425D01*
X46132Y-46091D02*
X46132Y-46058D01*
X46153Y-46025D01*
X46175Y-46008D01*
X46217Y-45991D01*
X46303Y-45975D01*
X46410Y-45975D01*
X46496Y-45991D01*
X46539Y-46008D01*
X46560Y-46025D01*
X46582Y-46058D01*
X46582Y-46091D01*
X46560Y-46125D01*
X46539Y-46141D01*
X46496Y-46158D01*
X46410Y-46175D01*
X46303Y-46175D01*
X46217Y-46158D01*
X46175Y-46141D01*
X46153Y-46125D01*
X46132Y-46091D01*
X46282Y-45674D02*
X46582Y-45674D01*
X46282Y-45824D02*
X46517Y-45824D01*
X46560Y-45808D01*
X46582Y-45774D01*
X46582Y-45724D01*
X46560Y-45691D01*
X46539Y-45674D01*
X46282Y-45558D02*
X46282Y-45425D01*
X46582Y-45508D02*
X46196Y-45508D01*
X46153Y-45491D01*
X46132Y-45458D01*
X46132Y-45425D01*
X46110Y-45058D02*
X46689Y-45358D01*
X46582Y-44758D02*
X46582Y-44958D01*
X46582Y-44858D02*
X46132Y-44858D01*
X46196Y-44891D01*
X46239Y-44925D01*
X46260Y-44958D01*
X46132Y-44458D02*
X46132Y-44525D01*
X46153Y-44558D01*
X46175Y-44575D01*
X46239Y-44608D01*
X46325Y-44625D01*
X46496Y-44625D01*
X46539Y-44608D01*
X46560Y-44591D01*
X46582Y-44558D01*
X46582Y-44491D01*
X46560Y-44458D01*
X46539Y-44441D01*
X46496Y-44425D01*
X46389Y-44425D01*
X46346Y-44441D01*
X46325Y-44458D01*
X46303Y-44491D01*
X46303Y-44558D01*
X46325Y-44591D01*
X46346Y-44608D01*
X46389Y-44625D01*
X46282Y-44308D02*
X46582Y-44224D01*
X46282Y-44141D01*
G54D17*
X47010Y-46671D02*
X47010Y-46328D01*
X47182Y-46500D02*
X46839Y-46500D01*
G54D13*
G54D15*
X68916Y-42654D02*
X68892Y-42678D01*
X68821Y-42702D01*
X68773Y-42702D01*
X68702Y-42678D01*
X68654Y-42630D01*
X68630Y-42583D01*
X68607Y-42488D01*
X68607Y-42416D01*
X68630Y-42321D01*
X68654Y-42273D01*
X68702Y-42226D01*
X68773Y-42202D01*
X68821Y-42202D01*
X68892Y-42226D01*
X68916Y-42250D01*
X69083Y-42202D02*
X69392Y-42202D01*
X69226Y-42392D01*
X69297Y-42392D01*
X69345Y-42416D01*
X69369Y-42440D01*
X69392Y-42488D01*
X69392Y-42607D01*
X69369Y-42654D01*
X69345Y-42678D01*
X69297Y-42702D01*
X69154Y-42702D01*
X69107Y-42678D01*
X69083Y-42654D01*
X67238Y-40202D02*
X67547Y-40202D01*
X67380Y-40392D01*
X67452Y-40392D01*
X67500Y-40416D01*
X67523Y-40440D01*
X67547Y-40488D01*
X67547Y-40607D01*
X67523Y-40654D01*
X67500Y-40678D01*
X67452Y-40702D01*
X67309Y-40702D01*
X67261Y-40678D01*
X67238Y-40654D01*
X67714Y-40202D02*
X68023Y-40202D01*
X67857Y-40392D01*
X67928Y-40392D01*
X67976Y-40416D01*
X68000Y-40440D01*
X68023Y-40488D01*
X68023Y-40607D01*
X68000Y-40654D01*
X67976Y-40678D01*
X67928Y-40702D01*
X67785Y-40702D01*
X67738Y-40678D01*
X67714Y-40654D01*
X68190Y-40369D02*
X68309Y-40702D01*
X68428Y-40369D01*
X68976Y-40178D02*
X68547Y-40821D01*
X69119Y-40250D02*
X69142Y-40226D01*
X69190Y-40202D01*
X69309Y-40202D01*
X69357Y-40226D01*
X69380Y-40250D01*
X69404Y-40297D01*
X69404Y-40345D01*
X69380Y-40416D01*
X69095Y-40702D01*
X69404Y-40702D01*
X69857Y-40202D02*
X69619Y-40202D01*
X69595Y-40440D01*
X69619Y-40416D01*
X69666Y-40392D01*
X69785Y-40392D01*
X69833Y-40416D01*
X69857Y-40440D01*
X69880Y-40488D01*
X69880Y-40607D01*
X69857Y-40654D01*
X69833Y-40678D01*
X69785Y-40702D01*
X69666Y-40702D01*
X69619Y-40678D01*
X69595Y-40654D01*
X70190Y-40202D02*
X70238Y-40202D01*
X70285Y-40226D01*
X70309Y-40250D01*
X70333Y-40297D01*
X70357Y-40392D01*
X70357Y-40511D01*
X70333Y-40607D01*
X70309Y-40654D01*
X70285Y-40678D01*
X70238Y-40702D01*
X70190Y-40702D01*
X70142Y-40678D01*
X70119Y-40654D01*
X70095Y-40607D01*
X70071Y-40511D01*
X70071Y-40392D01*
X70095Y-40297D01*
X70119Y-40250D01*
X70142Y-40226D01*
X70190Y-40202D01*
X70523Y-40369D02*
X70642Y-40702D01*
X70761Y-40369D01*
X68916Y-48654D02*
X68892Y-48678D01*
X68821Y-48702D01*
X68773Y-48702D01*
X68702Y-48678D01*
X68654Y-48630D01*
X68630Y-48583D01*
X68607Y-48488D01*
X68607Y-48416D01*
X68630Y-48321D01*
X68654Y-48273D01*
X68702Y-48226D01*
X68773Y-48202D01*
X68821Y-48202D01*
X68892Y-48226D01*
X68916Y-48250D01*
X69345Y-48369D02*
X69345Y-48702D01*
X69226Y-48178D02*
X69107Y-48535D01*
X69416Y-48535D01*
X67059Y-46202D02*
X67369Y-46202D01*
X67202Y-46392D01*
X67273Y-46392D01*
X67321Y-46416D01*
X67345Y-46440D01*
X67369Y-46488D01*
X67369Y-46607D01*
X67345Y-46654D01*
X67321Y-46678D01*
X67273Y-46702D01*
X67130Y-46702D01*
X67083Y-46678D01*
X67059Y-46654D01*
X67535Y-46202D02*
X67845Y-46202D01*
X67678Y-46392D01*
X67750Y-46392D01*
X67797Y-46416D01*
X67821Y-46440D01*
X67845Y-46488D01*
X67845Y-46607D01*
X67821Y-46654D01*
X67797Y-46678D01*
X67750Y-46702D01*
X67607Y-46702D01*
X67559Y-46678D01*
X67535Y-46654D01*
X68273Y-46369D02*
X68273Y-46702D01*
X68059Y-46369D02*
X68059Y-46630D01*
X68083Y-46678D01*
X68130Y-46702D01*
X68202Y-46702D01*
X68250Y-46678D01*
X68273Y-46654D01*
X68440Y-46369D02*
X68630Y-46369D01*
X68511Y-46702D02*
X68511Y-46273D01*
X68535Y-46226D01*
X68583Y-46202D01*
X68630Y-46202D01*
X69154Y-46178D02*
X68726Y-46821D01*
X69297Y-46250D02*
X69321Y-46226D01*
X69369Y-46202D01*
X69488Y-46202D01*
X69535Y-46226D01*
X69559Y-46250D01*
X69583Y-46297D01*
X69583Y-46345D01*
X69559Y-46416D01*
X69273Y-46702D01*
X69583Y-46702D01*
X70035Y-46202D02*
X69797Y-46202D01*
X69773Y-46440D01*
X69797Y-46416D01*
X69845Y-46392D01*
X69964Y-46392D01*
X70011Y-46416D01*
X70035Y-46440D01*
X70059Y-46488D01*
X70059Y-46607D01*
X70035Y-46654D01*
X70011Y-46678D01*
X69964Y-46702D01*
X69845Y-46702D01*
X69797Y-46678D01*
X69773Y-46654D01*
X70369Y-46202D02*
X70416Y-46202D01*
X70464Y-46226D01*
X70488Y-46250D01*
X70511Y-46297D01*
X70535Y-46392D01*
X70535Y-46511D01*
X70511Y-46607D01*
X70488Y-46654D01*
X70464Y-46678D01*
X70416Y-46702D01*
X70369Y-46702D01*
X70321Y-46678D01*
X70297Y-46654D01*
X70273Y-46607D01*
X70250Y-46511D01*
X70250Y-46392D01*
X70273Y-46297D01*
X70297Y-46250D01*
X70321Y-46226D01*
X70369Y-46202D01*
X70702Y-46369D02*
X70821Y-46702D01*
X70940Y-46369D01*
G54D16*
X51704Y-40161D02*
X51704Y-39761D01*
X51800Y-39761D01*
X51857Y-39780D01*
X51895Y-39819D01*
X51914Y-39857D01*
X51933Y-39933D01*
X51933Y-39990D01*
X51914Y-40066D01*
X51895Y-40104D01*
X51857Y-40142D01*
X51800Y-40161D01*
X51704Y-40161D01*
X52314Y-40161D02*
X52085Y-40161D01*
X52200Y-40161D02*
X52200Y-39761D01*
X52161Y-39819D01*
X52123Y-39857D01*
X52085Y-39876D01*
X62204Y-39161D02*
X62204Y-38761D01*
X62300Y-38761D01*
X62357Y-38780D01*
X62395Y-38819D01*
X62414Y-38857D01*
X62433Y-38933D01*
X62433Y-38990D01*
X62414Y-39066D01*
X62395Y-39104D01*
X62357Y-39142D01*
X62300Y-39161D01*
X62204Y-39161D01*
X62585Y-38800D02*
X62604Y-38780D01*
X62642Y-38761D01*
X62738Y-38761D01*
X62776Y-38780D01*
X62795Y-38800D01*
X62814Y-38838D01*
X62814Y-38876D01*
X62795Y-38933D01*
X62566Y-39161D01*
X62814Y-39161D01*
G54D14*
X62450Y-35871D02*
X62307Y-35871D01*
X62307Y-35571D01*
X62707Y-35871D02*
X62535Y-35871D01*
X62621Y-35871D02*
X62621Y-35571D01*
X62592Y-35614D01*
X62564Y-35642D01*
X62535Y-35657D01*
X66450Y-35871D02*
X66307Y-35871D01*
X66307Y-35571D01*
X66535Y-35600D02*
X66550Y-35585D01*
X66578Y-35571D01*
X66650Y-35571D01*
X66678Y-35585D01*
X66692Y-35600D01*
X66707Y-35628D01*
X66707Y-35657D01*
X66692Y-35700D01*
X66521Y-35871D01*
X66707Y-35871D01*
G54D16*
X47816Y-35722D02*
X47650Y-35460D01*
X47530Y-35722D02*
X47530Y-35172D01*
X47721Y-35172D01*
X47769Y-35198D01*
X47792Y-35225D01*
X47816Y-35277D01*
X47816Y-35355D01*
X47792Y-35408D01*
X47769Y-35434D01*
X47721Y-35460D01*
X47530Y-35460D01*
X48292Y-35722D02*
X48007Y-35722D01*
X48150Y-35722D02*
X48150Y-35172D01*
X48102Y-35251D01*
X48054Y-35303D01*
X48007Y-35329D01*
X51316Y-48222D02*
X51150Y-47960D01*
X51030Y-48222D02*
X51030Y-47672D01*
X51221Y-47672D01*
X51269Y-47698D01*
X51292Y-47725D01*
X51316Y-47777D01*
X51316Y-47855D01*
X51292Y-47908D01*
X51269Y-47934D01*
X51221Y-47960D01*
X51030Y-47960D01*
X51507Y-47725D02*
X51530Y-47698D01*
X51578Y-47672D01*
X51697Y-47672D01*
X51745Y-47698D01*
X51769Y-47725D01*
X51792Y-47777D01*
X51792Y-47829D01*
X51769Y-47908D01*
X51483Y-48222D01*
X51792Y-48222D01*
X50016Y-37722D02*
X49850Y-37460D01*
X49730Y-37722D02*
X49730Y-37172D01*
X49921Y-37172D01*
X49969Y-37198D01*
X49992Y-37225D01*
X50016Y-37277D01*
X50016Y-37355D01*
X49992Y-37408D01*
X49969Y-37434D01*
X49921Y-37460D01*
X49730Y-37460D01*
X50183Y-37172D02*
X50492Y-37172D01*
X50326Y-37382D01*
X50397Y-37382D01*
X50445Y-37408D01*
X50469Y-37434D01*
X50492Y-37486D01*
X50492Y-37617D01*
X50469Y-37670D01*
X50445Y-37696D01*
X50397Y-37722D01*
X50254Y-37722D01*
X50207Y-37696D01*
X50183Y-37670D01*
X62016Y-42722D02*
X61850Y-42460D01*
X61730Y-42722D02*
X61730Y-42172D01*
X61921Y-42172D01*
X61969Y-42198D01*
X61992Y-42225D01*
X62016Y-42277D01*
X62016Y-42355D01*
X61992Y-42408D01*
X61969Y-42434D01*
X61921Y-42460D01*
X61730Y-42460D01*
X62445Y-42355D02*
X62445Y-42722D01*
X62326Y-42146D02*
X62207Y-42539D01*
X62516Y-42539D01*
X62016Y-45222D02*
X61850Y-44960D01*
X61730Y-45222D02*
X61730Y-44672D01*
X61921Y-44672D01*
X61969Y-44698D01*
X61992Y-44725D01*
X62016Y-44777D01*
X62016Y-44855D01*
X61992Y-44908D01*
X61969Y-44934D01*
X61921Y-44960D01*
X61730Y-44960D01*
X62469Y-44672D02*
X62230Y-44672D01*
X62207Y-44934D01*
X62230Y-44908D01*
X62278Y-44882D01*
X62397Y-44882D01*
X62445Y-44908D01*
X62469Y-44934D01*
X62492Y-44986D01*
X62492Y-45117D01*
X62469Y-45170D01*
X62445Y-45196D01*
X62397Y-45222D01*
X62278Y-45222D01*
X62230Y-45196D01*
X62207Y-45170D01*
X48157Y-37202D02*
X48157Y-37607D01*
X48178Y-37654D01*
X48200Y-37678D01*
X48242Y-37702D01*
X48328Y-37702D01*
X48371Y-37678D01*
X48392Y-37654D01*
X48414Y-37607D01*
X48414Y-37202D01*
X48864Y-37702D02*
X48607Y-37702D01*
X48735Y-37702D02*
X48735Y-37202D01*
X48692Y-37273D01*
X48650Y-37321D01*
X48607Y-37345D01*
X48702Y-41647D02*
X48202Y-41647D01*
X48559Y-41514D01*
X48202Y-41380D01*
X48702Y-41380D01*
X48654Y-40961D02*
X48678Y-40980D01*
X48702Y-41038D01*
X48702Y-41076D01*
X48678Y-41133D01*
X48630Y-41171D01*
X48583Y-41190D01*
X48488Y-41209D01*
X48416Y-41209D01*
X48321Y-41190D01*
X48273Y-41171D01*
X48226Y-41133D01*
X48202Y-41076D01*
X48202Y-41038D01*
X48226Y-40980D01*
X48250Y-40961D01*
X48678Y-40809D02*
X48702Y-40752D01*
X48702Y-40657D01*
X48678Y-40619D01*
X48654Y-40600D01*
X48607Y-40580D01*
X48559Y-40580D01*
X48511Y-40600D01*
X48488Y-40619D01*
X48464Y-40657D01*
X48440Y-40733D01*
X48416Y-40771D01*
X48392Y-40790D01*
X48345Y-40809D01*
X48297Y-40809D01*
X48250Y-40790D01*
X48226Y-40771D01*
X48202Y-40733D01*
X48202Y-40638D01*
X48226Y-40580D01*
X48202Y-40447D02*
X48202Y-40200D01*
X48392Y-40333D01*
X48392Y-40276D01*
X48416Y-40238D01*
X48440Y-40219D01*
X48488Y-40200D01*
X48607Y-40200D01*
X48654Y-40219D01*
X48678Y-40238D01*
X48702Y-40276D01*
X48702Y-40390D01*
X48678Y-40428D01*
X48654Y-40447D01*
X48369Y-39857D02*
X48702Y-39857D01*
X48178Y-39952D02*
X48535Y-40047D01*
X48535Y-39800D01*
X48202Y-39571D02*
X48202Y-39533D01*
X48226Y-39495D01*
X48250Y-39476D01*
X48297Y-39457D01*
X48392Y-39438D01*
X48511Y-39438D01*
X48607Y-39457D01*
X48654Y-39476D01*
X48678Y-39495D01*
X48702Y-39533D01*
X48702Y-39571D01*
X48678Y-39609D01*
X48654Y-39628D01*
X48607Y-39647D01*
X48511Y-39666D01*
X48392Y-39666D01*
X48297Y-39647D01*
X48250Y-39628D01*
X48226Y-39609D01*
X48202Y-39571D01*
X48202Y-39095D02*
X48202Y-39171D01*
X48226Y-39209D01*
X48250Y-39228D01*
X48321Y-39266D01*
X48416Y-39285D01*
X48607Y-39285D01*
X48654Y-39266D01*
X48678Y-39247D01*
X48702Y-39209D01*
X48702Y-39133D01*
X48678Y-39095D01*
X48654Y-39076D01*
X48607Y-39057D01*
X48488Y-39057D01*
X48440Y-39076D01*
X48416Y-39095D01*
X48392Y-39133D01*
X48392Y-39209D01*
X48416Y-39247D01*
X48440Y-39266D01*
X48488Y-39285D01*
X48202Y-38923D02*
X48202Y-38676D01*
X48392Y-38809D01*
X48392Y-38752D01*
X48416Y-38714D01*
X48440Y-38695D01*
X48488Y-38676D01*
X48607Y-38676D01*
X48654Y-38695D01*
X48678Y-38714D01*
X48702Y-38752D01*
X48702Y-38866D01*
X48678Y-38904D01*
X48654Y-38923D01*
X48559Y-38523D02*
X48559Y-38333D01*
X48702Y-38561D02*
X48202Y-38428D01*
X48702Y-38295D01*
G54D14*
X46214Y-48735D02*
X46228Y-48692D01*
X46242Y-48678D01*
X46271Y-48664D01*
X46314Y-48664D01*
X46342Y-48678D01*
X46357Y-48692D01*
X46371Y-48721D01*
X46371Y-48835D01*
X46071Y-48835D01*
X46071Y-48735D01*
X46085Y-48707D01*
X46100Y-48692D01*
X46128Y-48678D01*
X46157Y-48678D01*
X46185Y-48692D01*
X46200Y-48707D01*
X46214Y-48735D01*
X46214Y-48835D01*
X46071Y-48578D02*
X46071Y-48407D01*
X46371Y-48492D02*
X46071Y-48492D01*
X46371Y-48150D02*
X46371Y-48321D01*
X46371Y-48235D02*
X46071Y-48235D01*
X46114Y-48264D01*
X46142Y-48292D01*
X46157Y-48321D01*
X69371Y-37221D02*
X69071Y-37221D01*
X69071Y-37107D01*
X69085Y-37078D01*
X69100Y-37064D01*
X69128Y-37050D01*
X69171Y-37050D01*
X69200Y-37064D01*
X69214Y-37078D01*
X69228Y-37107D01*
X69228Y-37221D01*
X69371Y-36764D02*
X69371Y-36935D01*
X69371Y-36850D02*
X69071Y-36850D01*
X69114Y-36878D01*
X69142Y-36907D01*
X69157Y-36935D01*
G54D16*
X55516Y-37722D02*
X55350Y-37460D01*
X55230Y-37722D02*
X55230Y-37172D01*
X55421Y-37172D01*
X55469Y-37198D01*
X55492Y-37225D01*
X55516Y-37277D01*
X55516Y-37355D01*
X55492Y-37408D01*
X55469Y-37434D01*
X55421Y-37460D01*
X55230Y-37460D01*
X55945Y-37172D02*
X55850Y-37172D01*
X55802Y-37198D01*
X55778Y-37225D01*
X55730Y-37303D01*
X55707Y-37408D01*
X55707Y-37617D01*
X55730Y-37670D01*
X55754Y-37696D01*
X55802Y-37722D01*
X55897Y-37722D01*
X55945Y-37696D01*
X55969Y-37670D01*
X55992Y-37617D01*
X55992Y-37486D01*
X55969Y-37434D01*
X55945Y-37408D01*
X55897Y-37382D01*
X55802Y-37382D01*
X55754Y-37408D01*
X55730Y-37434D01*
X55707Y-37486D01*
X53016Y-37722D02*
X52850Y-37460D01*
X52730Y-37722D02*
X52730Y-37172D01*
X52921Y-37172D01*
X52969Y-37198D01*
X52992Y-37225D01*
X53016Y-37277D01*
X53016Y-37355D01*
X52992Y-37408D01*
X52969Y-37434D01*
X52921Y-37460D01*
X52730Y-37460D01*
X53183Y-37172D02*
X53516Y-37172D01*
X53302Y-37722D01*
X60545Y-49661D02*
X60545Y-49261D01*
X60697Y-49261D01*
X60735Y-49280D01*
X60754Y-49300D01*
X60773Y-49338D01*
X60773Y-49395D01*
X60754Y-49433D01*
X60735Y-49452D01*
X60697Y-49471D01*
X60545Y-49471D01*
X60945Y-49661D02*
X60945Y-49261D01*
X61173Y-49661D01*
X61173Y-49261D01*
X61364Y-49661D02*
X61364Y-49261D01*
X61516Y-49261D01*
X61554Y-49280D01*
X61573Y-49300D01*
X61592Y-49338D01*
X61592Y-49395D01*
X61573Y-49433D01*
X61554Y-49452D01*
X61516Y-49471D01*
X61364Y-49471D01*
X61973Y-49661D02*
X61745Y-49661D01*
X61859Y-49661D02*
X61859Y-49261D01*
X61821Y-49319D01*
X61783Y-49357D01*
X61745Y-49376D01*
X60173Y-45800D02*
X60192Y-45780D01*
X60230Y-45761D01*
X60326Y-45761D01*
X60364Y-45780D01*
X60383Y-45800D01*
X60402Y-45838D01*
X60402Y-45876D01*
X60383Y-45933D01*
X60154Y-46161D01*
X60402Y-46161D01*
X60554Y-46142D02*
X60611Y-46161D01*
X60707Y-46161D01*
X60745Y-46142D01*
X60764Y-46123D01*
X60783Y-46085D01*
X60783Y-46047D01*
X60764Y-46009D01*
X60745Y-45990D01*
X60707Y-45971D01*
X60630Y-45952D01*
X60592Y-45933D01*
X60573Y-45914D01*
X60554Y-45876D01*
X60554Y-45838D01*
X60573Y-45800D01*
X60592Y-45780D01*
X60630Y-45761D01*
X60726Y-45761D01*
X60783Y-45780D01*
X61088Y-45952D02*
X61145Y-45971D01*
X61164Y-45990D01*
X61183Y-46028D01*
X61183Y-46085D01*
X61164Y-46123D01*
X61145Y-46142D01*
X61107Y-46161D01*
X60954Y-46161D01*
X60954Y-45761D01*
X61088Y-45761D01*
X61126Y-45780D01*
X61145Y-45800D01*
X61164Y-45838D01*
X61164Y-45876D01*
X61145Y-45914D01*
X61126Y-45933D01*
X61088Y-45952D01*
X60954Y-45952D01*
X61526Y-45761D02*
X61450Y-45761D01*
X61411Y-45780D01*
X61392Y-45800D01*
X61354Y-45857D01*
X61335Y-45933D01*
X61335Y-46085D01*
X61354Y-46123D01*
X61373Y-46142D01*
X61411Y-46161D01*
X61488Y-46161D01*
X61526Y-46142D01*
X61545Y-46123D01*
X61564Y-46085D01*
X61564Y-45990D01*
X61545Y-45952D01*
X61526Y-45933D01*
X61488Y-45914D01*
X61411Y-45914D01*
X61373Y-45933D01*
X61354Y-45952D01*
X61335Y-45990D01*
X61907Y-45895D02*
X61907Y-46161D01*
X61811Y-45742D02*
X61716Y-46028D01*
X61964Y-46028D01*
X62078Y-45761D02*
X62345Y-45761D01*
X62173Y-46161D01*
X50683Y-47123D02*
X50664Y-47142D01*
X50607Y-47161D01*
X50569Y-47161D01*
X50511Y-47142D01*
X50473Y-47104D01*
X50454Y-47066D01*
X50435Y-46990D01*
X50435Y-46933D01*
X50454Y-46857D01*
X50473Y-46819D01*
X50511Y-46780D01*
X50569Y-46761D01*
X50607Y-46761D01*
X50664Y-46780D01*
X50683Y-46800D01*
X50835Y-46800D02*
X50854Y-46780D01*
X50892Y-46761D01*
X50988Y-46761D01*
X51026Y-46780D01*
X51045Y-46800D01*
X51064Y-46838D01*
X51064Y-46876D01*
X51045Y-46933D01*
X50816Y-47161D01*
X51064Y-47161D01*
M02*
