G04 (created by PCBNEW (2013-jul-07)-stable) date 2014年08月04日 (週一) 02時43分04秒*
%MOIN*%
G04 Gerber Fmt 3.4, Leading zero omitted, Abs format*
%FSLAX34Y34*%
G01*
G70*
G90*
G04 APERTURE LIST*
%ADD10C,0.00590551*%
%ADD11C,0.005*%
%ADD12C,0.012*%
%ADD13C,0.015*%
%ADD14C,0.006*%
%ADD15C,0.01*%
%ADD16C,0.0125*%
%ADD17C,0.008*%
%ADD18C,0.01125*%
%ADD19C,0.0108*%
G04 APERTURE END LIST*
G54D10*
G54D11*
X44950Y-39650D02*
G75*
G03X44950Y-39650I-1250J0D01*
G74*
G01*
G54D12*
X45370Y-41750D02*
X47350Y-41750D01*
X47350Y-41750D02*
X47350Y-42750D01*
X47350Y-42750D02*
X45350Y-42750D01*
X45350Y-42750D02*
X45350Y-41750D01*
X45350Y-42000D02*
X45600Y-41750D01*
X47720Y-41750D02*
X49700Y-41750D01*
X49700Y-41750D02*
X49700Y-42750D01*
X49700Y-42750D02*
X47700Y-42750D01*
X47700Y-42750D02*
X47700Y-41750D01*
X47700Y-42000D02*
X47950Y-41750D01*
X55270Y-38700D02*
X57250Y-38700D01*
X57250Y-38700D02*
X57250Y-39700D01*
X57250Y-39700D02*
X55250Y-39700D01*
X55250Y-39700D02*
X55250Y-38700D01*
X55250Y-38950D02*
X55500Y-38700D01*
X55270Y-39900D02*
X57250Y-39900D01*
X57250Y-39900D02*
X57250Y-40900D01*
X57250Y-40900D02*
X55250Y-40900D01*
X55250Y-40900D02*
X55250Y-39900D01*
X55250Y-40150D02*
X55500Y-39900D01*
G54D13*
X59000Y-39200D02*
X74000Y-39200D01*
X74000Y-39200D02*
X74000Y-41200D01*
X74000Y-41200D02*
X59000Y-41200D01*
X59000Y-41200D02*
X59000Y-39200D01*
X59000Y-39700D02*
X59500Y-39700D01*
X59500Y-39700D02*
X59500Y-40700D01*
X59500Y-40700D02*
X59000Y-40700D01*
G54D14*
X39600Y-39500D02*
X39600Y-38500D01*
X39600Y-38500D02*
X41600Y-38500D01*
X41600Y-38500D02*
X41600Y-39500D01*
X41600Y-39500D02*
X39600Y-39500D01*
X39600Y-40650D02*
X39600Y-39650D01*
X39600Y-39650D02*
X41600Y-39650D01*
X41600Y-39650D02*
X41600Y-40650D01*
X41600Y-40650D02*
X39600Y-40650D01*
G54D15*
X77600Y-32500D02*
X77600Y-36500D01*
X76600Y-32500D02*
X76600Y-36500D01*
X76600Y-36500D02*
X77600Y-36500D01*
X77600Y-32500D02*
X76600Y-32500D01*
X78800Y-32500D02*
X78800Y-36500D01*
X77800Y-32500D02*
X77800Y-36500D01*
X77800Y-36500D02*
X78800Y-36500D01*
X78800Y-32500D02*
X77800Y-32500D01*
G54D12*
X76900Y-48600D02*
X76900Y-44600D01*
X76900Y-44600D02*
X78900Y-44600D01*
X78900Y-44600D02*
X78900Y-48600D01*
X78900Y-48600D02*
X76900Y-48600D01*
X69900Y-32600D02*
X75900Y-32600D01*
X75900Y-32600D02*
X75900Y-34600D01*
X75900Y-34600D02*
X69900Y-34600D01*
X69900Y-34600D02*
X69900Y-32600D01*
G54D14*
X52100Y-32600D02*
X52100Y-33600D01*
X52100Y-33600D02*
X50100Y-33600D01*
X50100Y-33600D02*
X50100Y-32600D01*
X50100Y-32600D02*
X52100Y-32600D01*
X53100Y-33600D02*
X53100Y-32600D01*
X53100Y-32600D02*
X55100Y-32600D01*
X55100Y-32600D02*
X55100Y-33600D01*
X55100Y-33600D02*
X53100Y-33600D01*
G54D13*
X40100Y-42350D02*
X41100Y-42350D01*
X40659Y-42350D02*
G75*
G03X40659Y-42350I-559J0D01*
G74*
G01*
X75800Y-39450D02*
X75800Y-38450D01*
X76359Y-39450D02*
G75*
G03X76359Y-39450I-559J0D01*
G74*
G01*
X77100Y-39500D02*
X77100Y-38500D01*
X77659Y-39500D02*
G75*
G03X77659Y-39500I-559J0D01*
G74*
G01*
X78400Y-39500D02*
X78400Y-38500D01*
X78959Y-39500D02*
G75*
G03X78959Y-39500I-559J0D01*
G74*
G01*
X55850Y-41950D02*
X56850Y-41950D01*
X56409Y-41950D02*
G75*
G03X56409Y-41950I-559J0D01*
G74*
G01*
X41100Y-33100D02*
X40100Y-33100D01*
X41659Y-33100D02*
G75*
G03X41659Y-33100I-559J0D01*
G74*
G01*
X51200Y-38800D02*
X50200Y-38800D01*
X51759Y-38800D02*
G75*
G03X51759Y-38800I-559J0D01*
G74*
G01*
X53500Y-37100D02*
X53500Y-36100D01*
X54059Y-37100D02*
G75*
G03X54059Y-37100I-559J0D01*
G74*
G01*
X54800Y-37100D02*
X54800Y-36100D01*
X55359Y-37100D02*
G75*
G03X55359Y-37100I-559J0D01*
G74*
G01*
X53600Y-38800D02*
X52600Y-38800D01*
X54159Y-38800D02*
G75*
G03X54159Y-38800I-559J0D01*
G74*
G01*
G54D14*
X76800Y-42850D02*
X75800Y-42850D01*
X75800Y-42850D02*
X75800Y-40850D01*
X75800Y-40850D02*
X76800Y-40850D01*
X76800Y-40850D02*
X76800Y-42850D01*
X77900Y-42850D02*
X76900Y-42850D01*
X76900Y-42850D02*
X76900Y-40850D01*
X76900Y-40850D02*
X77900Y-40850D01*
X77900Y-40850D02*
X77900Y-42850D01*
X79000Y-42850D02*
X78000Y-42850D01*
X78000Y-42850D02*
X78000Y-40850D01*
X78000Y-40850D02*
X79000Y-40850D01*
X79000Y-40850D02*
X79000Y-42850D01*
G54D11*
X48250Y-39800D02*
G75*
G03X48250Y-39800I-1000J0D01*
G74*
G01*
X45750Y-38300D02*
X48750Y-38300D01*
X48750Y-38300D02*
X48750Y-41300D01*
X48750Y-41300D02*
X45750Y-41300D01*
X45750Y-38300D02*
X45750Y-41300D01*
G54D12*
X40200Y-34600D02*
X42200Y-34600D01*
X40200Y-35600D02*
X42200Y-35600D01*
X40200Y-36600D02*
X42200Y-36600D01*
X42200Y-34100D02*
X42200Y-37600D01*
X42200Y-37600D02*
X48200Y-37600D01*
X48200Y-37600D02*
X48200Y-33600D01*
X42200Y-34100D02*
X42200Y-33600D01*
X45200Y-37100D02*
X45200Y-33600D01*
X45200Y-37100D02*
X45200Y-37600D01*
X42200Y-33600D02*
X48200Y-33600D01*
G54D13*
X54300Y-47250D02*
X53800Y-47250D01*
X53800Y-47250D02*
X53800Y-46250D01*
X53800Y-46250D02*
X54300Y-46250D01*
X54300Y-47750D02*
X50300Y-47750D01*
X50300Y-47750D02*
X50300Y-45750D01*
X50300Y-45750D02*
X54300Y-45750D01*
X54300Y-45750D02*
X54300Y-47750D01*
X59200Y-47200D02*
X58700Y-47200D01*
X58700Y-47200D02*
X58700Y-46200D01*
X58700Y-46200D02*
X59200Y-46200D01*
X59200Y-47700D02*
X55200Y-47700D01*
X55200Y-47700D02*
X55200Y-45700D01*
X55200Y-45700D02*
X59200Y-45700D01*
X59200Y-45700D02*
X59200Y-47700D01*
X64100Y-47200D02*
X63600Y-47200D01*
X63600Y-47200D02*
X63600Y-46200D01*
X63600Y-46200D02*
X64100Y-46200D01*
X64100Y-47700D02*
X60100Y-47700D01*
X60100Y-47700D02*
X60100Y-45700D01*
X60100Y-45700D02*
X64100Y-45700D01*
X64100Y-45700D02*
X64100Y-47700D01*
X74450Y-47150D02*
X74450Y-47150D01*
X74450Y-47150D02*
X73950Y-47150D01*
X73950Y-47150D02*
X73950Y-46150D01*
X73950Y-46150D02*
X74450Y-46150D01*
X74450Y-47650D02*
X65450Y-47650D01*
X65450Y-47650D02*
X65450Y-45650D01*
X65450Y-45650D02*
X74450Y-45650D01*
X74450Y-45650D02*
X74450Y-47650D01*
X49350Y-47200D02*
X48850Y-47200D01*
X48850Y-47200D02*
X48850Y-46200D01*
X48850Y-46200D02*
X49350Y-46200D01*
X49350Y-47700D02*
X45350Y-47700D01*
X45350Y-47700D02*
X45350Y-45700D01*
X45350Y-45700D02*
X49350Y-45700D01*
X49350Y-45700D02*
X49350Y-47700D01*
G54D16*
X50700Y-41900D02*
X53200Y-41900D01*
X50700Y-39900D02*
X53200Y-39900D01*
X54200Y-40900D02*
G75*
G03X53200Y-39900I-1000J0D01*
G74*
G01*
X53200Y-41900D02*
G75*
G03X54200Y-40900I0J1000D01*
G74*
G01*
X50700Y-39900D02*
G75*
G03X49700Y-40900I0J-1000D01*
G74*
G01*
X49700Y-40900D02*
G75*
G03X50700Y-41900I1000J0D01*
G74*
G01*
G54D12*
X57400Y-35300D02*
X58900Y-33800D01*
X58900Y-33800D02*
X58900Y-33300D01*
X58900Y-33300D02*
X58400Y-32800D01*
X58400Y-32800D02*
X57400Y-32800D01*
X57400Y-32800D02*
X56400Y-33800D01*
X56400Y-33800D02*
X56400Y-34800D01*
X56400Y-34800D02*
X56900Y-35300D01*
X56900Y-35300D02*
X57400Y-35300D01*
X43000Y-44000D02*
X44500Y-42500D01*
X44500Y-42500D02*
X44500Y-42000D01*
X44500Y-42000D02*
X44000Y-41500D01*
X44000Y-41500D02*
X43000Y-41500D01*
X43000Y-41500D02*
X42000Y-42500D01*
X42000Y-42500D02*
X42000Y-43500D01*
X42000Y-43500D02*
X42500Y-44000D01*
X42500Y-44000D02*
X43000Y-44000D01*
X57400Y-38200D02*
X58900Y-36700D01*
X58900Y-36700D02*
X58900Y-36200D01*
X58900Y-36200D02*
X58400Y-35700D01*
X58400Y-35700D02*
X57400Y-35700D01*
X57400Y-35700D02*
X56400Y-36700D01*
X56400Y-36700D02*
X56400Y-37700D01*
X56400Y-37700D02*
X56900Y-38200D01*
X56900Y-38200D02*
X57400Y-38200D01*
G54D13*
X51700Y-37100D02*
X51700Y-36100D01*
X52259Y-37100D02*
G75*
G03X52259Y-37100I-559J0D01*
G74*
G01*
X50400Y-37100D02*
X50400Y-36100D01*
X50959Y-37100D02*
G75*
G03X50959Y-37100I-559J0D01*
G74*
G01*
X60000Y-34050D02*
X60000Y-34050D01*
X60000Y-34050D02*
X60500Y-34050D01*
X60500Y-34050D02*
X60500Y-35050D01*
X60500Y-35050D02*
X60000Y-35050D01*
X60000Y-33550D02*
X69000Y-33550D01*
X69000Y-33550D02*
X69000Y-35550D01*
X69000Y-35550D02*
X60000Y-35550D01*
X60000Y-35550D02*
X60000Y-33550D01*
G54D14*
X50100Y-34700D02*
X50100Y-33700D01*
X50100Y-33700D02*
X52100Y-33700D01*
X52100Y-33700D02*
X52100Y-34700D01*
X52100Y-34700D02*
X50100Y-34700D01*
X53100Y-34700D02*
X53100Y-33700D01*
X53100Y-33700D02*
X55100Y-33700D01*
X55100Y-33700D02*
X55100Y-34700D01*
X55100Y-34700D02*
X53100Y-34700D01*
G54D17*
X44439Y-39708D02*
X44460Y-39725D01*
X44482Y-39775D01*
X44482Y-39808D01*
X44460Y-39858D01*
X44417Y-39891D01*
X44375Y-39908D01*
X44289Y-39925D01*
X44225Y-39925D01*
X44139Y-39908D01*
X44096Y-39891D01*
X44053Y-39858D01*
X44032Y-39808D01*
X44032Y-39775D01*
X44053Y-39725D01*
X44075Y-39708D01*
X44482Y-39375D02*
X44482Y-39575D01*
X44482Y-39475D02*
X44032Y-39475D01*
X44096Y-39508D01*
X44139Y-39541D01*
X44160Y-39575D01*
X43282Y-40275D02*
X43282Y-40475D01*
X43282Y-40375D02*
X42832Y-40375D01*
X42896Y-40408D01*
X42939Y-40441D01*
X42960Y-40475D01*
X42832Y-40058D02*
X42832Y-40024D01*
X42853Y-39991D01*
X42875Y-39974D01*
X42917Y-39958D01*
X43003Y-39941D01*
X43110Y-39941D01*
X43196Y-39958D01*
X43239Y-39974D01*
X43260Y-39991D01*
X43282Y-40024D01*
X43282Y-40058D01*
X43260Y-40091D01*
X43239Y-40108D01*
X43196Y-40124D01*
X43110Y-40141D01*
X43003Y-40141D01*
X42917Y-40124D01*
X42875Y-40108D01*
X42853Y-40091D01*
X42832Y-40058D01*
X42832Y-39724D02*
X42832Y-39691D01*
X42853Y-39658D01*
X42875Y-39641D01*
X42917Y-39624D01*
X43003Y-39608D01*
X43110Y-39608D01*
X43196Y-39624D01*
X43239Y-39641D01*
X43260Y-39658D01*
X43282Y-39691D01*
X43282Y-39724D01*
X43260Y-39758D01*
X43239Y-39774D01*
X43196Y-39791D01*
X43110Y-39808D01*
X43003Y-39808D01*
X42917Y-39791D01*
X42875Y-39774D01*
X42853Y-39758D01*
X42832Y-39724D01*
X42982Y-39041D02*
X43282Y-39041D01*
X42982Y-39191D02*
X43217Y-39191D01*
X43260Y-39174D01*
X43282Y-39141D01*
X43282Y-39091D01*
X43260Y-39058D01*
X43239Y-39041D01*
X42982Y-38924D02*
X42982Y-38791D01*
X43282Y-38874D02*
X42896Y-38874D01*
X42853Y-38858D01*
X42832Y-38824D01*
X42832Y-38791D01*
G54D18*
X43710Y-40821D02*
X43710Y-40478D01*
X43882Y-40650D02*
X43539Y-40650D01*
G54D12*
G54D17*
X46383Y-41473D02*
X46364Y-41492D01*
X46307Y-41511D01*
X46269Y-41511D01*
X46211Y-41492D01*
X46173Y-41454D01*
X46154Y-41416D01*
X46135Y-41340D01*
X46135Y-41283D01*
X46154Y-41207D01*
X46173Y-41169D01*
X46211Y-41130D01*
X46269Y-41111D01*
X46307Y-41111D01*
X46364Y-41130D01*
X46383Y-41150D01*
X46535Y-41150D02*
X46554Y-41130D01*
X46592Y-41111D01*
X46688Y-41111D01*
X46726Y-41130D01*
X46745Y-41150D01*
X46764Y-41188D01*
X46764Y-41226D01*
X46745Y-41283D01*
X46516Y-41511D01*
X46764Y-41511D01*
X48733Y-41473D02*
X48714Y-41492D01*
X48657Y-41511D01*
X48619Y-41511D01*
X48561Y-41492D01*
X48523Y-41454D01*
X48504Y-41416D01*
X48485Y-41340D01*
X48485Y-41283D01*
X48504Y-41207D01*
X48523Y-41169D01*
X48561Y-41130D01*
X48619Y-41111D01*
X48657Y-41111D01*
X48714Y-41130D01*
X48733Y-41150D01*
X48866Y-41111D02*
X49114Y-41111D01*
X48980Y-41264D01*
X49038Y-41264D01*
X49076Y-41283D01*
X49095Y-41302D01*
X49114Y-41340D01*
X49114Y-41435D01*
X49095Y-41473D01*
X49076Y-41492D01*
X49038Y-41511D01*
X48923Y-41511D01*
X48885Y-41492D01*
X48866Y-41473D01*
X56283Y-38423D02*
X56264Y-38442D01*
X56207Y-38461D01*
X56169Y-38461D01*
X56111Y-38442D01*
X56073Y-38404D01*
X56054Y-38366D01*
X56035Y-38290D01*
X56035Y-38233D01*
X56054Y-38157D01*
X56073Y-38119D01*
X56111Y-38080D01*
X56169Y-38061D01*
X56207Y-38061D01*
X56264Y-38080D01*
X56283Y-38100D01*
X56626Y-38195D02*
X56626Y-38461D01*
X56530Y-38042D02*
X56435Y-38328D01*
X56683Y-38328D01*
X56283Y-39623D02*
X56264Y-39642D01*
X56207Y-39661D01*
X56169Y-39661D01*
X56111Y-39642D01*
X56073Y-39604D01*
X56054Y-39566D01*
X56035Y-39490D01*
X56035Y-39433D01*
X56054Y-39357D01*
X56073Y-39319D01*
X56111Y-39280D01*
X56169Y-39261D01*
X56207Y-39261D01*
X56264Y-39280D01*
X56283Y-39300D01*
X56645Y-39261D02*
X56454Y-39261D01*
X56435Y-39452D01*
X56454Y-39433D01*
X56492Y-39414D01*
X56588Y-39414D01*
X56626Y-39433D01*
X56645Y-39452D01*
X56664Y-39490D01*
X56664Y-39585D01*
X56645Y-39623D01*
X56626Y-39642D01*
X56588Y-39661D01*
X56492Y-39661D01*
X56454Y-39642D01*
X56435Y-39623D01*
G54D18*
X61560Y-40442D02*
X61560Y-39842D01*
X62032Y-40385D02*
X62010Y-40414D01*
X61946Y-40442D01*
X61903Y-40442D01*
X61839Y-40414D01*
X61796Y-40357D01*
X61775Y-40300D01*
X61753Y-40185D01*
X61753Y-40100D01*
X61775Y-39985D01*
X61796Y-39928D01*
X61839Y-39871D01*
X61903Y-39842D01*
X61946Y-39842D01*
X62010Y-39871D01*
X62032Y-39900D01*
X62460Y-40442D02*
X62203Y-40442D01*
X62332Y-40442D02*
X62332Y-39842D01*
X62289Y-39928D01*
X62246Y-39985D01*
X62203Y-40014D01*
G54D12*
G54D18*
X66946Y-40271D02*
X67160Y-40271D01*
X66903Y-40442D02*
X67053Y-39842D01*
X67203Y-40442D01*
X67289Y-39842D02*
X67546Y-39842D01*
X67417Y-40442D02*
X67417Y-39842D01*
X67696Y-40442D02*
X67696Y-39842D01*
X67846Y-40271D01*
X67996Y-39842D01*
X67996Y-40442D01*
X68210Y-40128D02*
X68360Y-40128D01*
X68425Y-40442D02*
X68210Y-40442D01*
X68210Y-39842D01*
X68425Y-39842D01*
X68853Y-39871D02*
X68810Y-39842D01*
X68746Y-39842D01*
X68682Y-39871D01*
X68639Y-39928D01*
X68617Y-39985D01*
X68596Y-40100D01*
X68596Y-40185D01*
X68617Y-40300D01*
X68639Y-40357D01*
X68682Y-40414D01*
X68746Y-40442D01*
X68789Y-40442D01*
X68853Y-40414D01*
X68875Y-40385D01*
X68875Y-40185D01*
X68789Y-40185D01*
X69046Y-40271D02*
X69260Y-40271D01*
X69003Y-40442D02*
X69153Y-39842D01*
X69303Y-40442D01*
X69410Y-39842D02*
X69689Y-39842D01*
X69539Y-40071D01*
X69603Y-40071D01*
X69646Y-40100D01*
X69667Y-40128D01*
X69689Y-40185D01*
X69689Y-40328D01*
X69667Y-40385D01*
X69646Y-40414D01*
X69603Y-40442D01*
X69475Y-40442D01*
X69432Y-40414D01*
X69410Y-40385D01*
X69860Y-39900D02*
X69882Y-39871D01*
X69925Y-39842D01*
X70032Y-39842D01*
X70075Y-39871D01*
X70096Y-39900D01*
X70117Y-39957D01*
X70117Y-40014D01*
X70096Y-40100D01*
X69839Y-40442D01*
X70117Y-40442D01*
X70375Y-40100D02*
X70332Y-40071D01*
X70310Y-40042D01*
X70289Y-39985D01*
X70289Y-39957D01*
X70310Y-39900D01*
X70332Y-39871D01*
X70375Y-39842D01*
X70460Y-39842D01*
X70503Y-39871D01*
X70525Y-39900D01*
X70546Y-39957D01*
X70546Y-39985D01*
X70525Y-40042D01*
X70503Y-40071D01*
X70460Y-40100D01*
X70375Y-40100D01*
X70332Y-40128D01*
X70310Y-40157D01*
X70289Y-40214D01*
X70289Y-40328D01*
X70310Y-40385D01*
X70332Y-40414D01*
X70375Y-40442D01*
X70460Y-40442D01*
X70503Y-40414D01*
X70525Y-40385D01*
X70546Y-40328D01*
X70546Y-40214D01*
X70525Y-40157D01*
X70503Y-40128D01*
X70460Y-40100D01*
X70739Y-40214D02*
X71082Y-40214D01*
X71296Y-40442D02*
X71296Y-39842D01*
X71467Y-39842D01*
X71510Y-39871D01*
X71532Y-39900D01*
X71553Y-39957D01*
X71553Y-40042D01*
X71532Y-40100D01*
X71510Y-40128D01*
X71467Y-40157D01*
X71296Y-40157D01*
G54D12*
G54D14*
X40378Y-38371D02*
X40378Y-38071D01*
X40492Y-38071D01*
X40521Y-38085D01*
X40535Y-38100D01*
X40550Y-38128D01*
X40550Y-38171D01*
X40535Y-38200D01*
X40521Y-38214D01*
X40492Y-38228D01*
X40378Y-38228D01*
X40835Y-38371D02*
X40664Y-38371D01*
X40750Y-38371D02*
X40750Y-38071D01*
X40721Y-38114D01*
X40692Y-38142D01*
X40664Y-38157D01*
X40378Y-39521D02*
X40378Y-39221D01*
X40492Y-39221D01*
X40521Y-39235D01*
X40535Y-39250D01*
X40550Y-39278D01*
X40550Y-39321D01*
X40535Y-39350D01*
X40521Y-39364D01*
X40492Y-39378D01*
X40378Y-39378D01*
X40664Y-39250D02*
X40678Y-39235D01*
X40707Y-39221D01*
X40778Y-39221D01*
X40807Y-39235D01*
X40821Y-39250D01*
X40835Y-39278D01*
X40835Y-39307D01*
X40821Y-39350D01*
X40650Y-39521D01*
X40835Y-39521D01*
G54D17*
X76261Y-34795D02*
X75861Y-34795D01*
X75861Y-34642D01*
X75880Y-34604D01*
X75900Y-34585D01*
X75938Y-34566D01*
X75995Y-34566D01*
X76033Y-34585D01*
X76052Y-34604D01*
X76071Y-34642D01*
X76071Y-34795D01*
X75861Y-34433D02*
X75861Y-34185D01*
X76014Y-34319D01*
X76014Y-34261D01*
X76033Y-34223D01*
X76052Y-34204D01*
X76090Y-34185D01*
X76185Y-34185D01*
X76223Y-34204D01*
X76242Y-34223D01*
X76261Y-34261D01*
X76261Y-34376D01*
X76242Y-34414D01*
X76223Y-34433D01*
X77461Y-34795D02*
X77061Y-34795D01*
X77061Y-34642D01*
X77080Y-34604D01*
X77100Y-34585D01*
X77138Y-34566D01*
X77195Y-34566D01*
X77233Y-34585D01*
X77252Y-34604D01*
X77271Y-34642D01*
X77271Y-34795D01*
X77195Y-34223D02*
X77461Y-34223D01*
X77042Y-34319D02*
X77328Y-34414D01*
X77328Y-34166D01*
X76561Y-46895D02*
X76161Y-46895D01*
X76161Y-46742D01*
X76180Y-46704D01*
X76200Y-46685D01*
X76238Y-46666D01*
X76295Y-46666D01*
X76333Y-46685D01*
X76352Y-46704D01*
X76371Y-46742D01*
X76371Y-46895D01*
X76161Y-46304D02*
X76161Y-46495D01*
X76352Y-46514D01*
X76333Y-46495D01*
X76314Y-46457D01*
X76314Y-46361D01*
X76333Y-46323D01*
X76352Y-46304D01*
X76390Y-46285D01*
X76485Y-46285D01*
X76523Y-46304D01*
X76542Y-46323D01*
X76561Y-46361D01*
X76561Y-46457D01*
X76542Y-46495D01*
X76523Y-46514D01*
G54D15*
X72604Y-32261D02*
X72604Y-31861D01*
X72757Y-31861D01*
X72795Y-31880D01*
X72814Y-31900D01*
X72833Y-31938D01*
X72833Y-31995D01*
X72814Y-32033D01*
X72795Y-32052D01*
X72757Y-32071D01*
X72604Y-32071D01*
X73176Y-31861D02*
X73100Y-31861D01*
X73061Y-31880D01*
X73042Y-31900D01*
X73004Y-31957D01*
X72985Y-32033D01*
X72985Y-32185D01*
X73004Y-32223D01*
X73023Y-32242D01*
X73061Y-32261D01*
X73138Y-32261D01*
X73176Y-32242D01*
X73195Y-32223D01*
X73214Y-32185D01*
X73214Y-32090D01*
X73195Y-32052D01*
X73176Y-32033D01*
X73138Y-32014D01*
X73061Y-32014D01*
X73023Y-32033D01*
X73004Y-32052D01*
X72985Y-32090D01*
G54D19*
G54D17*
X71861Y-35223D02*
X71842Y-35242D01*
X71785Y-35261D01*
X71747Y-35261D01*
X71690Y-35242D01*
X71652Y-35204D01*
X71633Y-35166D01*
X71614Y-35090D01*
X71614Y-35033D01*
X71633Y-34957D01*
X71652Y-34919D01*
X71690Y-34880D01*
X71747Y-34861D01*
X71785Y-34861D01*
X71842Y-34880D01*
X71861Y-34900D01*
X72109Y-34861D02*
X72185Y-34861D01*
X72223Y-34880D01*
X72261Y-34919D01*
X72280Y-34995D01*
X72280Y-35128D01*
X72261Y-35204D01*
X72223Y-35242D01*
X72185Y-35261D01*
X72109Y-35261D01*
X72071Y-35242D01*
X72033Y-35204D01*
X72014Y-35128D01*
X72014Y-34995D01*
X72033Y-34919D01*
X72071Y-34880D01*
X72109Y-34861D01*
X72452Y-35261D02*
X72452Y-34861D01*
X72680Y-35261D01*
X72680Y-34861D01*
X72871Y-35261D02*
X72871Y-34861D01*
X73100Y-35261D01*
X73100Y-34861D01*
X73195Y-35300D02*
X73500Y-35300D01*
X73804Y-35261D02*
X73576Y-35261D01*
X73690Y-35261D02*
X73690Y-34861D01*
X73652Y-34919D01*
X73614Y-34957D01*
X73576Y-34976D01*
X73957Y-34900D02*
X73976Y-34880D01*
X74014Y-34861D01*
X74109Y-34861D01*
X74147Y-34880D01*
X74166Y-34900D01*
X74185Y-34938D01*
X74185Y-34976D01*
X74166Y-35033D01*
X73938Y-35261D01*
X74185Y-35261D01*
G54D14*
X50878Y-33971D02*
X50878Y-33671D01*
X50992Y-33671D01*
X51021Y-33685D01*
X51035Y-33700D01*
X51050Y-33728D01*
X51050Y-33771D01*
X51035Y-33800D01*
X51021Y-33814D01*
X50992Y-33828D01*
X50878Y-33828D01*
X51150Y-33671D02*
X51350Y-33671D01*
X51221Y-33971D01*
X53878Y-32471D02*
X53878Y-32171D01*
X53992Y-32171D01*
X54021Y-32185D01*
X54035Y-32200D01*
X54050Y-32228D01*
X54050Y-32271D01*
X54035Y-32300D01*
X54021Y-32314D01*
X53992Y-32328D01*
X53878Y-32328D01*
X54221Y-32300D02*
X54192Y-32285D01*
X54178Y-32271D01*
X54164Y-32242D01*
X54164Y-32228D01*
X54178Y-32200D01*
X54192Y-32185D01*
X54221Y-32171D01*
X54278Y-32171D01*
X54307Y-32185D01*
X54321Y-32200D01*
X54335Y-32228D01*
X54335Y-32242D01*
X54321Y-32271D01*
X54307Y-32285D01*
X54278Y-32300D01*
X54221Y-32300D01*
X54192Y-32314D01*
X54178Y-32328D01*
X54164Y-32357D01*
X54164Y-32414D01*
X54178Y-32442D01*
X54192Y-32457D01*
X54221Y-32471D01*
X54278Y-32471D01*
X54307Y-32457D01*
X54321Y-32442D01*
X54335Y-32414D01*
X54335Y-32357D01*
X54321Y-32328D01*
X54307Y-32314D01*
X54278Y-32300D01*
G54D17*
X40116Y-43572D02*
X39950Y-43310D01*
X39830Y-43572D02*
X39830Y-43022D01*
X40021Y-43022D01*
X40069Y-43048D01*
X40092Y-43075D01*
X40116Y-43127D01*
X40116Y-43205D01*
X40092Y-43258D01*
X40069Y-43284D01*
X40021Y-43310D01*
X39830Y-43310D01*
X40592Y-43572D02*
X40307Y-43572D01*
X40450Y-43572D02*
X40450Y-43022D01*
X40402Y-43101D01*
X40354Y-43153D01*
X40307Y-43179D01*
X77022Y-39433D02*
X76760Y-39600D01*
X77022Y-39719D02*
X76472Y-39719D01*
X76472Y-39528D01*
X76498Y-39480D01*
X76525Y-39457D01*
X76577Y-39433D01*
X76655Y-39433D01*
X76708Y-39457D01*
X76734Y-39480D01*
X76760Y-39528D01*
X76760Y-39719D01*
X76525Y-39242D02*
X76498Y-39219D01*
X76472Y-39171D01*
X76472Y-39052D01*
X76498Y-39004D01*
X76525Y-38980D01*
X76577Y-38957D01*
X76629Y-38957D01*
X76708Y-38980D01*
X77022Y-39266D01*
X77022Y-38957D01*
X78322Y-39483D02*
X78060Y-39650D01*
X78322Y-39769D02*
X77772Y-39769D01*
X77772Y-39578D01*
X77798Y-39530D01*
X77825Y-39507D01*
X77877Y-39483D01*
X77955Y-39483D01*
X78008Y-39507D01*
X78034Y-39530D01*
X78060Y-39578D01*
X78060Y-39769D01*
X77772Y-39316D02*
X77772Y-39007D01*
X77982Y-39173D01*
X77982Y-39102D01*
X78008Y-39054D01*
X78034Y-39030D01*
X78086Y-39007D01*
X78217Y-39007D01*
X78270Y-39030D01*
X78296Y-39054D01*
X78322Y-39102D01*
X78322Y-39245D01*
X78296Y-39292D01*
X78270Y-39316D01*
X79622Y-39483D02*
X79360Y-39650D01*
X79622Y-39769D02*
X79072Y-39769D01*
X79072Y-39578D01*
X79098Y-39530D01*
X79125Y-39507D01*
X79177Y-39483D01*
X79255Y-39483D01*
X79308Y-39507D01*
X79334Y-39530D01*
X79360Y-39578D01*
X79360Y-39769D01*
X79255Y-39054D02*
X79622Y-39054D01*
X79046Y-39173D02*
X79439Y-39292D01*
X79439Y-38983D01*
X55866Y-43172D02*
X55700Y-42910D01*
X55580Y-43172D02*
X55580Y-42622D01*
X55771Y-42622D01*
X55819Y-42648D01*
X55842Y-42675D01*
X55866Y-42727D01*
X55866Y-42805D01*
X55842Y-42858D01*
X55819Y-42884D01*
X55771Y-42910D01*
X55580Y-42910D01*
X56319Y-42622D02*
X56080Y-42622D01*
X56057Y-42884D01*
X56080Y-42858D01*
X56128Y-42832D01*
X56247Y-42832D01*
X56295Y-42858D01*
X56319Y-42884D01*
X56342Y-42936D01*
X56342Y-43067D01*
X56319Y-43120D01*
X56295Y-43146D01*
X56247Y-43172D01*
X56128Y-43172D01*
X56080Y-43146D01*
X56057Y-43120D01*
X40916Y-32322D02*
X40750Y-32060D01*
X40630Y-32322D02*
X40630Y-31772D01*
X40821Y-31772D01*
X40869Y-31798D01*
X40892Y-31825D01*
X40916Y-31877D01*
X40916Y-31955D01*
X40892Y-32008D01*
X40869Y-32034D01*
X40821Y-32060D01*
X40630Y-32060D01*
X41345Y-31772D02*
X41250Y-31772D01*
X41202Y-31798D01*
X41178Y-31825D01*
X41130Y-31903D01*
X41107Y-32008D01*
X41107Y-32217D01*
X41130Y-32270D01*
X41154Y-32296D01*
X41202Y-32322D01*
X41297Y-32322D01*
X41345Y-32296D01*
X41369Y-32270D01*
X41392Y-32217D01*
X41392Y-32086D01*
X41369Y-32034D01*
X41345Y-32008D01*
X41297Y-31982D01*
X41202Y-31982D01*
X41154Y-32008D01*
X41130Y-32034D01*
X41107Y-32086D01*
X51016Y-38022D02*
X50850Y-37760D01*
X50730Y-38022D02*
X50730Y-37472D01*
X50921Y-37472D01*
X50969Y-37498D01*
X50992Y-37525D01*
X51016Y-37577D01*
X51016Y-37655D01*
X50992Y-37708D01*
X50969Y-37734D01*
X50921Y-37760D01*
X50730Y-37760D01*
X51183Y-37472D02*
X51516Y-37472D01*
X51302Y-38022D01*
X54722Y-37083D02*
X54460Y-37250D01*
X54722Y-37369D02*
X54172Y-37369D01*
X54172Y-37178D01*
X54198Y-37130D01*
X54225Y-37107D01*
X54277Y-37083D01*
X54355Y-37083D01*
X54408Y-37107D01*
X54434Y-37130D01*
X54460Y-37178D01*
X54460Y-37369D01*
X54408Y-36797D02*
X54382Y-36845D01*
X54355Y-36869D01*
X54303Y-36892D01*
X54277Y-36892D01*
X54225Y-36869D01*
X54198Y-36845D01*
X54172Y-36797D01*
X54172Y-36702D01*
X54198Y-36654D01*
X54225Y-36630D01*
X54277Y-36607D01*
X54303Y-36607D01*
X54355Y-36630D01*
X54382Y-36654D01*
X54408Y-36702D01*
X54408Y-36797D01*
X54434Y-36845D01*
X54460Y-36869D01*
X54513Y-36892D01*
X54617Y-36892D01*
X54670Y-36869D01*
X54696Y-36845D01*
X54722Y-36797D01*
X54722Y-36702D01*
X54696Y-36654D01*
X54670Y-36630D01*
X54617Y-36607D01*
X54513Y-36607D01*
X54460Y-36630D01*
X54434Y-36654D01*
X54408Y-36702D01*
X56022Y-37083D02*
X55760Y-37250D01*
X56022Y-37369D02*
X55472Y-37369D01*
X55472Y-37178D01*
X55498Y-37130D01*
X55525Y-37107D01*
X55577Y-37083D01*
X55655Y-37083D01*
X55708Y-37107D01*
X55734Y-37130D01*
X55760Y-37178D01*
X55760Y-37369D01*
X56022Y-36845D02*
X56022Y-36750D01*
X55996Y-36702D01*
X55970Y-36678D01*
X55891Y-36630D01*
X55786Y-36607D01*
X55577Y-36607D01*
X55525Y-36630D01*
X55498Y-36654D01*
X55472Y-36702D01*
X55472Y-36797D01*
X55498Y-36845D01*
X55525Y-36869D01*
X55577Y-36892D01*
X55708Y-36892D01*
X55760Y-36869D01*
X55786Y-36845D01*
X55813Y-36797D01*
X55813Y-36702D01*
X55786Y-36654D01*
X55760Y-36630D01*
X55708Y-36607D01*
X53178Y-38022D02*
X53011Y-37760D01*
X52892Y-38022D02*
X52892Y-37472D01*
X53083Y-37472D01*
X53130Y-37498D01*
X53154Y-37525D01*
X53178Y-37577D01*
X53178Y-37655D01*
X53154Y-37708D01*
X53130Y-37734D01*
X53083Y-37760D01*
X52892Y-37760D01*
X53654Y-38022D02*
X53369Y-38022D01*
X53511Y-38022D02*
X53511Y-37472D01*
X53464Y-37551D01*
X53416Y-37603D01*
X53369Y-37629D01*
X53964Y-37472D02*
X54011Y-37472D01*
X54059Y-37498D01*
X54083Y-37525D01*
X54107Y-37577D01*
X54130Y-37682D01*
X54130Y-37813D01*
X54107Y-37917D01*
X54083Y-37970D01*
X54059Y-37996D01*
X54011Y-38022D01*
X53964Y-38022D01*
X53916Y-37996D01*
X53892Y-37970D01*
X53869Y-37917D01*
X53845Y-37813D01*
X53845Y-37682D01*
X53869Y-37577D01*
X53892Y-37525D01*
X53916Y-37498D01*
X53964Y-37472D01*
G54D14*
X75657Y-42249D02*
X75671Y-42207D01*
X75671Y-42135D01*
X75657Y-42107D01*
X75642Y-42092D01*
X75614Y-42078D01*
X75585Y-42078D01*
X75557Y-42092D01*
X75542Y-42107D01*
X75528Y-42135D01*
X75514Y-42192D01*
X75500Y-42221D01*
X75485Y-42235D01*
X75457Y-42249D01*
X75428Y-42249D01*
X75400Y-42235D01*
X75385Y-42221D01*
X75371Y-42192D01*
X75371Y-42121D01*
X75385Y-42078D01*
X75371Y-41978D02*
X75671Y-41907D01*
X75457Y-41849D01*
X75671Y-41792D01*
X75371Y-41721D01*
X75671Y-41450D02*
X75671Y-41621D01*
X75671Y-41535D02*
X75371Y-41535D01*
X75414Y-41564D01*
X75442Y-41592D01*
X75457Y-41621D01*
X76757Y-42249D02*
X76771Y-42207D01*
X76771Y-42135D01*
X76757Y-42107D01*
X76742Y-42092D01*
X76714Y-42078D01*
X76685Y-42078D01*
X76657Y-42092D01*
X76642Y-42107D01*
X76628Y-42135D01*
X76614Y-42192D01*
X76600Y-42221D01*
X76585Y-42235D01*
X76557Y-42249D01*
X76528Y-42249D01*
X76500Y-42235D01*
X76485Y-42221D01*
X76471Y-42192D01*
X76471Y-42121D01*
X76485Y-42078D01*
X76471Y-41978D02*
X76771Y-41907D01*
X76557Y-41849D01*
X76771Y-41792D01*
X76471Y-41721D01*
X76500Y-41621D02*
X76485Y-41607D01*
X76471Y-41578D01*
X76471Y-41507D01*
X76485Y-41478D01*
X76500Y-41464D01*
X76528Y-41450D01*
X76557Y-41450D01*
X76600Y-41464D01*
X76771Y-41635D01*
X76771Y-41450D01*
X77857Y-42249D02*
X77871Y-42207D01*
X77871Y-42135D01*
X77857Y-42107D01*
X77842Y-42092D01*
X77814Y-42078D01*
X77785Y-42078D01*
X77757Y-42092D01*
X77742Y-42107D01*
X77728Y-42135D01*
X77714Y-42192D01*
X77700Y-42221D01*
X77685Y-42235D01*
X77657Y-42249D01*
X77628Y-42249D01*
X77600Y-42235D01*
X77585Y-42221D01*
X77571Y-42192D01*
X77571Y-42121D01*
X77585Y-42078D01*
X77571Y-41978D02*
X77871Y-41907D01*
X77657Y-41849D01*
X77871Y-41792D01*
X77571Y-41721D01*
X77571Y-41635D02*
X77571Y-41450D01*
X77685Y-41550D01*
X77685Y-41507D01*
X77700Y-41478D01*
X77714Y-41464D01*
X77742Y-41450D01*
X77814Y-41450D01*
X77842Y-41464D01*
X77857Y-41478D01*
X77871Y-41507D01*
X77871Y-41592D01*
X77857Y-41621D01*
X77842Y-41635D01*
G54D17*
X46716Y-39642D02*
X46773Y-39661D01*
X46869Y-39661D01*
X46907Y-39642D01*
X46926Y-39623D01*
X46945Y-39585D01*
X46945Y-39547D01*
X46926Y-39509D01*
X46907Y-39490D01*
X46869Y-39471D01*
X46792Y-39452D01*
X46754Y-39433D01*
X46735Y-39414D01*
X46716Y-39376D01*
X46716Y-39338D01*
X46735Y-39300D01*
X46754Y-39280D01*
X46792Y-39261D01*
X46888Y-39261D01*
X46945Y-39280D01*
X47078Y-39261D02*
X47173Y-39661D01*
X47250Y-39376D01*
X47326Y-39661D01*
X47421Y-39261D01*
X47745Y-39395D02*
X47745Y-39661D01*
X47650Y-39242D02*
X47554Y-39528D01*
X47802Y-39528D01*
X45945Y-40342D02*
X46002Y-40361D01*
X46097Y-40361D01*
X46135Y-40342D01*
X46154Y-40323D01*
X46173Y-40285D01*
X46173Y-40247D01*
X46154Y-40209D01*
X46135Y-40190D01*
X46097Y-40171D01*
X46021Y-40152D01*
X45983Y-40133D01*
X45964Y-40114D01*
X45945Y-40076D01*
X45945Y-40038D01*
X45964Y-40000D01*
X45983Y-39980D01*
X46021Y-39961D01*
X46116Y-39961D01*
X46173Y-39980D01*
X46307Y-39961D02*
X46402Y-40361D01*
X46478Y-40076D01*
X46554Y-40361D01*
X46650Y-39961D01*
X46707Y-40400D02*
X47011Y-40400D01*
X47107Y-40361D02*
X47107Y-39961D01*
X47259Y-39961D01*
X47297Y-39980D01*
X47316Y-40000D01*
X47335Y-40038D01*
X47335Y-40095D01*
X47316Y-40133D01*
X47297Y-40152D01*
X47259Y-40171D01*
X47107Y-40171D01*
X47507Y-39961D02*
X47507Y-40285D01*
X47526Y-40323D01*
X47545Y-40342D01*
X47583Y-40361D01*
X47659Y-40361D01*
X47697Y-40342D01*
X47716Y-40323D01*
X47735Y-40285D01*
X47735Y-39961D01*
X47907Y-40342D02*
X47964Y-40361D01*
X48059Y-40361D01*
X48097Y-40342D01*
X48116Y-40323D01*
X48135Y-40285D01*
X48135Y-40247D01*
X48116Y-40209D01*
X48097Y-40190D01*
X48059Y-40171D01*
X47983Y-40152D01*
X47945Y-40133D01*
X47926Y-40114D01*
X47907Y-40076D01*
X47907Y-40038D01*
X47926Y-40000D01*
X47945Y-39980D01*
X47983Y-39961D01*
X48078Y-39961D01*
X48135Y-39980D01*
X48307Y-40361D02*
X48307Y-39961D01*
X48307Y-40152D02*
X48535Y-40152D01*
X48535Y-40361D02*
X48535Y-39961D01*
X42842Y-35904D02*
X43328Y-35904D01*
X43385Y-35885D01*
X43414Y-35866D01*
X43442Y-35828D01*
X43442Y-35752D01*
X43414Y-35714D01*
X43385Y-35695D01*
X43328Y-35676D01*
X42842Y-35676D01*
X43442Y-35276D02*
X43442Y-35504D01*
X43442Y-35390D02*
X42842Y-35390D01*
X42928Y-35428D01*
X42985Y-35466D01*
X43014Y-35504D01*
X44642Y-36516D02*
X44642Y-36707D01*
X44042Y-36707D01*
X44642Y-36383D02*
X44042Y-36383D01*
X44471Y-36250D01*
X44042Y-36116D01*
X44642Y-36116D01*
X44042Y-35964D02*
X44042Y-35697D01*
X44642Y-35869D01*
X44300Y-35488D02*
X44271Y-35526D01*
X44242Y-35545D01*
X44185Y-35564D01*
X44157Y-35564D01*
X44100Y-35545D01*
X44071Y-35526D01*
X44042Y-35488D01*
X44042Y-35411D01*
X44071Y-35373D01*
X44100Y-35354D01*
X44157Y-35335D01*
X44185Y-35335D01*
X44242Y-35354D01*
X44271Y-35373D01*
X44300Y-35411D01*
X44300Y-35488D01*
X44328Y-35526D01*
X44357Y-35545D01*
X44414Y-35564D01*
X44528Y-35564D01*
X44585Y-35545D01*
X44614Y-35526D01*
X44642Y-35488D01*
X44642Y-35411D01*
X44614Y-35373D01*
X44585Y-35354D01*
X44528Y-35335D01*
X44414Y-35335D01*
X44357Y-35354D01*
X44328Y-35373D01*
X44300Y-35411D01*
X44042Y-35088D02*
X44042Y-35050D01*
X44071Y-35011D01*
X44100Y-34992D01*
X44157Y-34973D01*
X44271Y-34954D01*
X44414Y-34954D01*
X44528Y-34973D01*
X44585Y-34992D01*
X44614Y-35011D01*
X44642Y-35050D01*
X44642Y-35088D01*
X44614Y-35126D01*
X44585Y-35145D01*
X44528Y-35164D01*
X44414Y-35183D01*
X44271Y-35183D01*
X44157Y-35164D01*
X44100Y-35145D01*
X44071Y-35126D01*
X44042Y-35088D01*
X44042Y-34592D02*
X44042Y-34783D01*
X44328Y-34802D01*
X44300Y-34783D01*
X44271Y-34745D01*
X44271Y-34650D01*
X44300Y-34611D01*
X44328Y-34592D01*
X44385Y-34573D01*
X44528Y-34573D01*
X44585Y-34592D01*
X44614Y-34611D01*
X44642Y-34650D01*
X44642Y-34745D01*
X44614Y-34783D01*
X44585Y-34802D01*
G54D18*
X54383Y-47092D02*
X54950Y-47092D01*
X55016Y-47071D01*
X55050Y-47050D01*
X55083Y-47007D01*
X55083Y-46921D01*
X55050Y-46878D01*
X55016Y-46857D01*
X54950Y-46835D01*
X54383Y-46835D01*
X54450Y-46642D02*
X54416Y-46621D01*
X54383Y-46578D01*
X54383Y-46471D01*
X54416Y-46428D01*
X54450Y-46407D01*
X54516Y-46385D01*
X54583Y-46385D01*
X54683Y-46407D01*
X55083Y-46664D01*
X55083Y-46385D01*
G54D12*
G54D15*
X51252Y-46333D02*
X51480Y-46333D01*
X51366Y-47033D02*
X51366Y-46333D01*
X51804Y-47033D02*
X51614Y-47033D01*
X51614Y-46333D01*
X51938Y-47033D02*
X51938Y-46333D01*
X52090Y-46333D01*
X52128Y-46366D01*
X52147Y-46400D01*
X52166Y-46466D01*
X52166Y-46566D01*
X52147Y-46633D01*
X52128Y-46666D01*
X52090Y-46700D01*
X51938Y-46700D01*
X52528Y-46333D02*
X52338Y-46333D01*
X52319Y-46666D01*
X52338Y-46633D01*
X52376Y-46600D01*
X52471Y-46600D01*
X52509Y-46633D01*
X52528Y-46666D01*
X52547Y-46733D01*
X52547Y-46900D01*
X52528Y-46966D01*
X52509Y-47000D01*
X52471Y-47033D01*
X52376Y-47033D01*
X52338Y-47000D01*
X52319Y-46966D01*
X52700Y-46400D02*
X52719Y-46366D01*
X52757Y-46333D01*
X52852Y-46333D01*
X52890Y-46366D01*
X52909Y-46400D01*
X52928Y-46466D01*
X52928Y-46533D01*
X52909Y-46633D01*
X52680Y-47033D01*
X52928Y-47033D01*
X53309Y-47033D02*
X53080Y-47033D01*
X53195Y-47033D02*
X53195Y-46333D01*
X53157Y-46433D01*
X53119Y-46500D01*
X53080Y-46533D01*
G54D12*
G54D18*
X59283Y-47042D02*
X59850Y-47042D01*
X59916Y-47021D01*
X59950Y-47000D01*
X59983Y-46957D01*
X59983Y-46871D01*
X59950Y-46828D01*
X59916Y-46807D01*
X59850Y-46785D01*
X59283Y-46785D01*
X59283Y-46614D02*
X59283Y-46335D01*
X59550Y-46485D01*
X59550Y-46421D01*
X59583Y-46378D01*
X59616Y-46357D01*
X59683Y-46335D01*
X59850Y-46335D01*
X59916Y-46357D01*
X59950Y-46378D01*
X59983Y-46421D01*
X59983Y-46550D01*
X59950Y-46592D01*
X59916Y-46614D01*
G54D12*
G54D15*
X56152Y-46283D02*
X56380Y-46283D01*
X56266Y-46983D02*
X56266Y-46283D01*
X56704Y-46983D02*
X56514Y-46983D01*
X56514Y-46283D01*
X56838Y-46983D02*
X56838Y-46283D01*
X56990Y-46283D01*
X57028Y-46316D01*
X57047Y-46350D01*
X57066Y-46416D01*
X57066Y-46516D01*
X57047Y-46583D01*
X57028Y-46616D01*
X56990Y-46650D01*
X56838Y-46650D01*
X57428Y-46283D02*
X57238Y-46283D01*
X57219Y-46616D01*
X57238Y-46583D01*
X57276Y-46550D01*
X57371Y-46550D01*
X57409Y-46583D01*
X57428Y-46616D01*
X57447Y-46683D01*
X57447Y-46850D01*
X57428Y-46916D01*
X57409Y-46950D01*
X57371Y-46983D01*
X57276Y-46983D01*
X57238Y-46950D01*
X57219Y-46916D01*
X57600Y-46350D02*
X57619Y-46316D01*
X57657Y-46283D01*
X57752Y-46283D01*
X57790Y-46316D01*
X57809Y-46350D01*
X57828Y-46416D01*
X57828Y-46483D01*
X57809Y-46583D01*
X57580Y-46983D01*
X57828Y-46983D01*
X58209Y-46983D02*
X57980Y-46983D01*
X58095Y-46983D02*
X58095Y-46283D01*
X58057Y-46383D01*
X58019Y-46450D01*
X57980Y-46483D01*
G54D12*
G54D18*
X64183Y-47042D02*
X64750Y-47042D01*
X64816Y-47021D01*
X64850Y-47000D01*
X64883Y-46957D01*
X64883Y-46871D01*
X64850Y-46828D01*
X64816Y-46807D01*
X64750Y-46785D01*
X64183Y-46785D01*
X64416Y-46378D02*
X64883Y-46378D01*
X64150Y-46485D02*
X64650Y-46592D01*
X64650Y-46314D01*
G54D12*
G54D15*
X61052Y-46283D02*
X61280Y-46283D01*
X61166Y-46983D02*
X61166Y-46283D01*
X61604Y-46983D02*
X61414Y-46983D01*
X61414Y-46283D01*
X61738Y-46983D02*
X61738Y-46283D01*
X61890Y-46283D01*
X61928Y-46316D01*
X61947Y-46350D01*
X61966Y-46416D01*
X61966Y-46516D01*
X61947Y-46583D01*
X61928Y-46616D01*
X61890Y-46650D01*
X61738Y-46650D01*
X62328Y-46283D02*
X62138Y-46283D01*
X62119Y-46616D01*
X62138Y-46583D01*
X62176Y-46550D01*
X62271Y-46550D01*
X62309Y-46583D01*
X62328Y-46616D01*
X62347Y-46683D01*
X62347Y-46850D01*
X62328Y-46916D01*
X62309Y-46950D01*
X62271Y-46983D01*
X62176Y-46983D01*
X62138Y-46950D01*
X62119Y-46916D01*
X62500Y-46350D02*
X62519Y-46316D01*
X62557Y-46283D01*
X62652Y-46283D01*
X62690Y-46316D01*
X62709Y-46350D01*
X62728Y-46416D01*
X62728Y-46483D01*
X62709Y-46583D01*
X62480Y-46983D01*
X62728Y-46983D01*
X63109Y-46983D02*
X62880Y-46983D01*
X62995Y-46983D02*
X62995Y-46283D01*
X62957Y-46383D01*
X62919Y-46450D01*
X62880Y-46483D01*
G54D12*
G54D18*
X72107Y-46792D02*
X72107Y-47278D01*
X72128Y-47335D01*
X72150Y-47364D01*
X72192Y-47392D01*
X72278Y-47392D01*
X72321Y-47364D01*
X72342Y-47335D01*
X72364Y-47278D01*
X72364Y-46792D01*
X72792Y-46792D02*
X72578Y-46792D01*
X72557Y-47078D01*
X72578Y-47050D01*
X72621Y-47021D01*
X72728Y-47021D01*
X72771Y-47050D01*
X72792Y-47078D01*
X72814Y-47135D01*
X72814Y-47278D01*
X72792Y-47335D01*
X72771Y-47364D01*
X72728Y-47392D01*
X72621Y-47392D01*
X72578Y-47364D01*
X72557Y-47335D01*
G54D12*
G54D18*
X67853Y-46392D02*
X67853Y-45792D01*
X67853Y-46078D02*
X68110Y-46078D01*
X68110Y-46392D02*
X68110Y-45792D01*
X68325Y-46078D02*
X68475Y-46078D01*
X68539Y-46392D02*
X68325Y-46392D01*
X68325Y-45792D01*
X68539Y-45792D01*
X68882Y-46078D02*
X68732Y-46078D01*
X68732Y-46392D02*
X68732Y-45792D01*
X68946Y-45792D01*
X69310Y-45992D02*
X69310Y-46392D01*
X69203Y-45764D02*
X69096Y-46192D01*
X69375Y-46192D01*
X69525Y-45850D02*
X69546Y-45821D01*
X69589Y-45792D01*
X69696Y-45792D01*
X69739Y-45821D01*
X69760Y-45850D01*
X69782Y-45907D01*
X69782Y-45964D01*
X69760Y-46050D01*
X69503Y-46392D01*
X69782Y-46392D01*
X70060Y-45792D02*
X70103Y-45792D01*
X70146Y-45821D01*
X70167Y-45850D01*
X70189Y-45907D01*
X70210Y-46021D01*
X70210Y-46164D01*
X70189Y-46278D01*
X70167Y-46335D01*
X70146Y-46364D01*
X70103Y-46392D01*
X70060Y-46392D01*
X70017Y-46364D01*
X69996Y-46335D01*
X69975Y-46278D01*
X69953Y-46164D01*
X69953Y-46021D01*
X69975Y-45907D01*
X69996Y-45850D01*
X70017Y-45821D01*
X70060Y-45792D01*
X70382Y-45850D02*
X70403Y-45821D01*
X70446Y-45792D01*
X70553Y-45792D01*
X70596Y-45821D01*
X70617Y-45850D01*
X70639Y-45907D01*
X70639Y-45964D01*
X70617Y-46050D01*
X70360Y-46392D01*
X70639Y-46392D01*
X70896Y-46050D02*
X70853Y-46021D01*
X70832Y-45992D01*
X70810Y-45935D01*
X70810Y-45907D01*
X70832Y-45850D01*
X70853Y-45821D01*
X70896Y-45792D01*
X70982Y-45792D01*
X71025Y-45821D01*
X71046Y-45850D01*
X71067Y-45907D01*
X71067Y-45935D01*
X71046Y-45992D01*
X71025Y-46021D01*
X70982Y-46050D01*
X70896Y-46050D01*
X70853Y-46078D01*
X70832Y-46107D01*
X70810Y-46164D01*
X70810Y-46278D01*
X70832Y-46335D01*
X70853Y-46364D01*
X70896Y-46392D01*
X70982Y-46392D01*
X71025Y-46364D01*
X71046Y-46335D01*
X71067Y-46278D01*
X71067Y-46164D01*
X71046Y-46107D01*
X71025Y-46078D01*
X70982Y-46050D01*
G54D12*
G54D18*
X49433Y-47042D02*
X50000Y-47042D01*
X50066Y-47021D01*
X50100Y-47000D01*
X50133Y-46957D01*
X50133Y-46871D01*
X50100Y-46828D01*
X50066Y-46807D01*
X50000Y-46785D01*
X49433Y-46785D01*
X49433Y-46614D02*
X49433Y-46314D01*
X50133Y-46507D01*
G54D12*
G54D15*
X46302Y-46283D02*
X46530Y-46283D01*
X46416Y-46983D02*
X46416Y-46283D01*
X46854Y-46983D02*
X46664Y-46983D01*
X46664Y-46283D01*
X46988Y-46983D02*
X46988Y-46283D01*
X47140Y-46283D01*
X47178Y-46316D01*
X47197Y-46350D01*
X47216Y-46416D01*
X47216Y-46516D01*
X47197Y-46583D01*
X47178Y-46616D01*
X47140Y-46650D01*
X46988Y-46650D01*
X47578Y-46283D02*
X47388Y-46283D01*
X47369Y-46616D01*
X47388Y-46583D01*
X47426Y-46550D01*
X47521Y-46550D01*
X47559Y-46583D01*
X47578Y-46616D01*
X47597Y-46683D01*
X47597Y-46850D01*
X47578Y-46916D01*
X47559Y-46950D01*
X47521Y-46983D01*
X47426Y-46983D01*
X47388Y-46950D01*
X47369Y-46916D01*
X47750Y-46350D02*
X47769Y-46316D01*
X47807Y-46283D01*
X47902Y-46283D01*
X47940Y-46316D01*
X47959Y-46350D01*
X47978Y-46416D01*
X47978Y-46483D01*
X47959Y-46583D01*
X47730Y-46983D01*
X47978Y-46983D01*
X48359Y-46983D02*
X48130Y-46983D01*
X48245Y-46983D02*
X48245Y-46283D01*
X48207Y-46383D01*
X48169Y-46450D01*
X48130Y-46483D01*
G54D12*
X51464Y-39042D02*
X51864Y-39642D01*
X51864Y-39042D02*
X51464Y-39642D01*
X52407Y-39642D02*
X52064Y-39642D01*
X52235Y-39642D02*
X52235Y-39042D01*
X52178Y-39128D01*
X52121Y-39185D01*
X52064Y-39214D01*
X50892Y-42642D02*
X50550Y-42642D01*
X50721Y-42642D02*
X50721Y-42042D01*
X50664Y-42128D01*
X50607Y-42185D01*
X50550Y-42214D01*
X51407Y-42042D02*
X51292Y-42042D01*
X51235Y-42071D01*
X51207Y-42100D01*
X51150Y-42185D01*
X51121Y-42300D01*
X51121Y-42528D01*
X51150Y-42585D01*
X51178Y-42614D01*
X51235Y-42642D01*
X51350Y-42642D01*
X51407Y-42614D01*
X51435Y-42585D01*
X51464Y-42528D01*
X51464Y-42385D01*
X51435Y-42328D01*
X51407Y-42300D01*
X51350Y-42271D01*
X51235Y-42271D01*
X51178Y-42300D01*
X51150Y-42328D01*
X51121Y-42385D01*
X51721Y-42642D02*
X51721Y-42042D01*
X51921Y-42471D01*
X52121Y-42042D01*
X52121Y-42642D01*
X52407Y-42642D02*
X52407Y-42042D01*
X52407Y-42328D02*
X52750Y-42328D01*
X52750Y-42642D02*
X52750Y-42042D01*
X52978Y-42042D02*
X53378Y-42042D01*
X52978Y-42642D01*
X53378Y-42642D01*
G54D17*
X57361Y-36000D02*
X57323Y-35980D01*
X57285Y-35942D01*
X57228Y-35885D01*
X57190Y-35866D01*
X57152Y-35866D01*
X57171Y-35961D02*
X57133Y-35942D01*
X57095Y-35904D01*
X57076Y-35828D01*
X57076Y-35695D01*
X57095Y-35619D01*
X57133Y-35580D01*
X57171Y-35561D01*
X57247Y-35561D01*
X57285Y-35580D01*
X57323Y-35619D01*
X57342Y-35695D01*
X57342Y-35828D01*
X57323Y-35904D01*
X57285Y-35942D01*
X57247Y-35961D01*
X57171Y-35961D01*
X57723Y-35961D02*
X57495Y-35961D01*
X57609Y-35961D02*
X57609Y-35561D01*
X57571Y-35619D01*
X57533Y-35657D01*
X57495Y-35676D01*
X56876Y-32461D02*
X56876Y-32061D01*
X57104Y-32461D01*
X57104Y-32061D01*
X57295Y-32461D02*
X57295Y-32061D01*
X57447Y-32061D01*
X57485Y-32080D01*
X57504Y-32100D01*
X57523Y-32138D01*
X57523Y-32195D01*
X57504Y-32233D01*
X57485Y-32252D01*
X57447Y-32271D01*
X57295Y-32271D01*
X57695Y-32461D02*
X57695Y-32061D01*
X57923Y-32461D01*
X57923Y-32061D01*
X42961Y-44700D02*
X42923Y-44680D01*
X42885Y-44642D01*
X42828Y-44585D01*
X42790Y-44566D01*
X42752Y-44566D01*
X42771Y-44661D02*
X42733Y-44642D01*
X42695Y-44604D01*
X42676Y-44528D01*
X42676Y-44395D01*
X42695Y-44319D01*
X42733Y-44280D01*
X42771Y-44261D01*
X42847Y-44261D01*
X42885Y-44280D01*
X42923Y-44319D01*
X42942Y-44395D01*
X42942Y-44528D01*
X42923Y-44604D01*
X42885Y-44642D01*
X42847Y-44661D01*
X42771Y-44661D01*
X43095Y-44300D02*
X43114Y-44280D01*
X43152Y-44261D01*
X43247Y-44261D01*
X43285Y-44280D01*
X43304Y-44300D01*
X43323Y-44338D01*
X43323Y-44376D01*
X43304Y-44433D01*
X43076Y-44661D01*
X43323Y-44661D01*
X42476Y-41161D02*
X42476Y-40761D01*
X42704Y-41161D01*
X42704Y-40761D01*
X42895Y-41161D02*
X42895Y-40761D01*
X43047Y-40761D01*
X43085Y-40780D01*
X43104Y-40800D01*
X43123Y-40838D01*
X43123Y-40895D01*
X43104Y-40933D01*
X43085Y-40952D01*
X43047Y-40971D01*
X42895Y-40971D01*
X43295Y-41161D02*
X43295Y-40761D01*
X43523Y-41161D01*
X43523Y-40761D01*
X57361Y-38900D02*
X57323Y-38880D01*
X57285Y-38842D01*
X57228Y-38785D01*
X57190Y-38766D01*
X57152Y-38766D01*
X57171Y-38861D02*
X57133Y-38842D01*
X57095Y-38804D01*
X57076Y-38728D01*
X57076Y-38595D01*
X57095Y-38519D01*
X57133Y-38480D01*
X57171Y-38461D01*
X57247Y-38461D01*
X57285Y-38480D01*
X57323Y-38519D01*
X57342Y-38595D01*
X57342Y-38728D01*
X57323Y-38804D01*
X57285Y-38842D01*
X57247Y-38861D01*
X57171Y-38861D01*
X57476Y-38461D02*
X57723Y-38461D01*
X57590Y-38614D01*
X57647Y-38614D01*
X57685Y-38633D01*
X57704Y-38652D01*
X57723Y-38690D01*
X57723Y-38785D01*
X57704Y-38823D01*
X57685Y-38842D01*
X57647Y-38861D01*
X57533Y-38861D01*
X57495Y-38842D01*
X57476Y-38823D01*
X56876Y-35361D02*
X56876Y-34961D01*
X57104Y-35361D01*
X57104Y-34961D01*
X57295Y-35361D02*
X57295Y-34961D01*
X57447Y-34961D01*
X57485Y-34980D01*
X57504Y-35000D01*
X57523Y-35038D01*
X57523Y-35095D01*
X57504Y-35133D01*
X57485Y-35152D01*
X57447Y-35171D01*
X57295Y-35171D01*
X57695Y-35361D02*
X57695Y-34961D01*
X57923Y-35361D01*
X57923Y-34961D01*
X52922Y-37321D02*
X52660Y-37488D01*
X52922Y-37607D02*
X52372Y-37607D01*
X52372Y-37416D01*
X52398Y-37369D01*
X52425Y-37345D01*
X52477Y-37321D01*
X52555Y-37321D01*
X52608Y-37345D01*
X52634Y-37369D01*
X52660Y-37416D01*
X52660Y-37607D01*
X52922Y-36845D02*
X52922Y-37130D01*
X52922Y-36988D02*
X52372Y-36988D01*
X52451Y-37035D01*
X52503Y-37083D01*
X52529Y-37130D01*
X52922Y-36369D02*
X52922Y-36654D01*
X52922Y-36511D02*
X52372Y-36511D01*
X52451Y-36559D01*
X52503Y-36607D01*
X52529Y-36654D01*
X51622Y-37321D02*
X51360Y-37488D01*
X51622Y-37607D02*
X51072Y-37607D01*
X51072Y-37416D01*
X51098Y-37369D01*
X51125Y-37345D01*
X51177Y-37321D01*
X51255Y-37321D01*
X51308Y-37345D01*
X51334Y-37369D01*
X51360Y-37416D01*
X51360Y-37607D01*
X51622Y-36845D02*
X51622Y-37130D01*
X51622Y-36988D02*
X51072Y-36988D01*
X51151Y-37035D01*
X51203Y-37083D01*
X51229Y-37130D01*
X51125Y-36654D02*
X51098Y-36630D01*
X51072Y-36583D01*
X51072Y-36464D01*
X51098Y-36416D01*
X51125Y-36392D01*
X51177Y-36369D01*
X51229Y-36369D01*
X51308Y-36392D01*
X51622Y-36678D01*
X51622Y-36369D01*
G54D18*
X61657Y-33692D02*
X61657Y-34178D01*
X61678Y-34235D01*
X61700Y-34264D01*
X61742Y-34292D01*
X61828Y-34292D01*
X61871Y-34264D01*
X61892Y-34235D01*
X61914Y-34178D01*
X61914Y-33692D01*
X62321Y-33692D02*
X62235Y-33692D01*
X62192Y-33721D01*
X62171Y-33750D01*
X62128Y-33835D01*
X62107Y-33950D01*
X62107Y-34178D01*
X62128Y-34235D01*
X62150Y-34264D01*
X62192Y-34292D01*
X62278Y-34292D01*
X62321Y-34264D01*
X62342Y-34235D01*
X62364Y-34178D01*
X62364Y-34035D01*
X62342Y-33978D01*
X62321Y-33950D01*
X62278Y-33921D01*
X62192Y-33921D01*
X62150Y-33950D01*
X62128Y-33978D01*
X62107Y-34035D01*
G54D12*
G54D18*
X63692Y-35292D02*
X63692Y-34692D01*
X63950Y-35292D02*
X63757Y-34950D01*
X63950Y-34692D02*
X63692Y-35035D01*
X64378Y-35292D02*
X64121Y-35292D01*
X64250Y-35292D02*
X64250Y-34692D01*
X64207Y-34778D01*
X64164Y-34835D01*
X64121Y-34864D01*
X64785Y-34692D02*
X64571Y-34692D01*
X64550Y-34978D01*
X64571Y-34950D01*
X64614Y-34921D01*
X64721Y-34921D01*
X64764Y-34950D01*
X64785Y-34978D01*
X64807Y-35035D01*
X64807Y-35178D01*
X64785Y-35235D01*
X64764Y-35264D01*
X64721Y-35292D01*
X64614Y-35292D01*
X64571Y-35264D01*
X64550Y-35235D01*
X65214Y-34692D02*
X65000Y-34692D01*
X64978Y-34978D01*
X65000Y-34950D01*
X65042Y-34921D01*
X65150Y-34921D01*
X65192Y-34950D01*
X65214Y-34978D01*
X65235Y-35035D01*
X65235Y-35178D01*
X65214Y-35235D01*
X65192Y-35264D01*
X65150Y-35292D01*
X65042Y-35292D01*
X65000Y-35264D01*
X64978Y-35235D01*
X65428Y-35292D02*
X65428Y-34692D01*
X65642Y-35292D02*
X65642Y-34692D01*
X65750Y-34692D01*
X65814Y-34721D01*
X65857Y-34778D01*
X65878Y-34835D01*
X65900Y-34950D01*
X65900Y-35035D01*
X65878Y-35150D01*
X65857Y-35207D01*
X65814Y-35264D01*
X65750Y-35292D01*
X65642Y-35292D01*
X66328Y-35292D02*
X66071Y-35292D01*
X66200Y-35292D02*
X66200Y-34692D01*
X66157Y-34778D01*
X66114Y-34835D01*
X66071Y-34864D01*
G54D12*
G54D14*
X50878Y-33571D02*
X50878Y-33271D01*
X50992Y-33271D01*
X51021Y-33285D01*
X51035Y-33300D01*
X51050Y-33328D01*
X51050Y-33371D01*
X51035Y-33400D01*
X51021Y-33414D01*
X50992Y-33428D01*
X50878Y-33428D01*
X51192Y-33571D02*
X51250Y-33571D01*
X51278Y-33557D01*
X51292Y-33542D01*
X51321Y-33500D01*
X51335Y-33442D01*
X51335Y-33328D01*
X51321Y-33300D01*
X51307Y-33285D01*
X51278Y-33271D01*
X51221Y-33271D01*
X51192Y-33285D01*
X51178Y-33300D01*
X51164Y-33328D01*
X51164Y-33400D01*
X51178Y-33428D01*
X51192Y-33442D01*
X51221Y-33457D01*
X51278Y-33457D01*
X51307Y-33442D01*
X51321Y-33428D01*
X51335Y-33400D01*
X53735Y-33571D02*
X53735Y-33271D01*
X53850Y-33271D01*
X53878Y-33285D01*
X53892Y-33300D01*
X53907Y-33328D01*
X53907Y-33371D01*
X53892Y-33400D01*
X53878Y-33414D01*
X53850Y-33428D01*
X53735Y-33428D01*
X54192Y-33571D02*
X54021Y-33571D01*
X54107Y-33571D02*
X54107Y-33271D01*
X54078Y-33314D01*
X54050Y-33342D01*
X54021Y-33357D01*
X54378Y-33271D02*
X54407Y-33271D01*
X54435Y-33285D01*
X54450Y-33300D01*
X54464Y-33328D01*
X54478Y-33385D01*
X54478Y-33457D01*
X54464Y-33514D01*
X54450Y-33542D01*
X54435Y-33557D01*
X54407Y-33571D01*
X54378Y-33571D01*
X54350Y-33557D01*
X54335Y-33542D01*
X54321Y-33514D01*
X54307Y-33457D01*
X54307Y-33385D01*
X54321Y-33328D01*
X54335Y-33300D01*
X54350Y-33285D01*
X54378Y-33271D01*
M02*
