G04 (created by PCBNEW (2013-jul-07)-stable) date 2014年08月03日 (週日) 21時30分56秒*
%MOIN*%
G04 Gerber Fmt 3.4, Leading zero omitted, Abs format*
%FSLAX34Y34*%
G01*
G70*
G90*
G04 APERTURE LIST*
%ADD10C,0.00590551*%
%ADD11C,0.011811*%
%ADD12R,0.06X0.06*%
%ADD13C,0.06*%
%ADD14C,0.055*%
%ADD15O,0.062X0.09*%
%ADD16R,0.062X0.09*%
%ADD17R,0.35X0.35*%
%ADD18C,0.07*%
%ADD19R,0.07X0.07*%
%ADD20C,0.056*%
%ADD21R,0.055X0.055*%
%ADD22C,0.035*%
%ADD23C,0.01*%
G04 APERTURE END LIST*
G54D10*
G54D11*
X44393Y-47404D02*
X44365Y-47376D01*
X44309Y-47348D01*
X44168Y-47348D01*
X44112Y-47376D01*
X44084Y-47404D01*
X44056Y-47460D01*
X44056Y-47517D01*
X44084Y-47601D01*
X44421Y-47939D01*
X44056Y-47939D01*
X43690Y-47348D02*
X43634Y-47348D01*
X43577Y-47376D01*
X43549Y-47404D01*
X43521Y-47460D01*
X43493Y-47573D01*
X43493Y-47714D01*
X43521Y-47826D01*
X43549Y-47882D01*
X43577Y-47910D01*
X43634Y-47939D01*
X43690Y-47939D01*
X43746Y-47910D01*
X43774Y-47882D01*
X43802Y-47826D01*
X43831Y-47714D01*
X43831Y-47573D01*
X43802Y-47460D01*
X43774Y-47404D01*
X43746Y-47376D01*
X43690Y-47348D01*
X42931Y-47939D02*
X43268Y-47939D01*
X43099Y-47939D02*
X43099Y-47348D01*
X43156Y-47432D01*
X43212Y-47489D01*
X43268Y-47517D01*
X42424Y-47545D02*
X42424Y-47939D01*
X42565Y-47320D02*
X42706Y-47742D01*
X42340Y-47742D01*
X41693Y-47320D02*
X42200Y-48079D01*
X41553Y-47348D02*
X41159Y-47348D01*
X41412Y-47939D01*
X40512Y-47320D02*
X41018Y-48079D01*
X40343Y-47404D02*
X40315Y-47376D01*
X40259Y-47348D01*
X40119Y-47348D01*
X40062Y-47376D01*
X40034Y-47404D01*
X40006Y-47460D01*
X40006Y-47517D01*
X40034Y-47601D01*
X40372Y-47939D01*
X40006Y-47939D01*
G54D12*
X43700Y-40150D03*
G54D13*
X43700Y-39150D03*
G54D14*
X45850Y-42250D03*
X46850Y-42250D03*
X48200Y-42250D03*
X49200Y-42250D03*
X55750Y-39200D03*
X56750Y-39200D03*
X55750Y-40400D03*
X56750Y-40400D03*
G54D15*
X61000Y-41700D03*
X62000Y-41700D03*
X63000Y-41700D03*
X64000Y-41700D03*
X65000Y-41700D03*
X66000Y-41700D03*
X67000Y-41700D03*
X68000Y-41700D03*
X69000Y-41700D03*
X70000Y-41700D03*
X71000Y-41700D03*
X72000Y-41700D03*
X73000Y-41700D03*
G54D16*
X60000Y-41700D03*
G54D15*
X73000Y-38700D03*
X72000Y-38700D03*
X71000Y-38700D03*
X70000Y-38700D03*
X69000Y-38700D03*
X68000Y-38700D03*
X67000Y-38700D03*
X66000Y-38700D03*
X65000Y-38700D03*
X64000Y-38700D03*
X63000Y-38700D03*
X62000Y-38700D03*
X61000Y-38700D03*
X60000Y-38700D03*
G54D12*
X40100Y-39000D03*
G54D13*
X41100Y-39000D03*
G54D12*
X40100Y-40150D03*
G54D13*
X41100Y-40150D03*
G54D12*
X77100Y-36000D03*
G54D13*
X77100Y-35000D03*
X77100Y-34000D03*
X77100Y-33000D03*
G54D12*
X78300Y-36000D03*
G54D13*
X78300Y-35000D03*
X78300Y-34000D03*
X78300Y-33000D03*
G54D12*
X78400Y-48100D03*
G54D13*
X77400Y-48100D03*
X78400Y-47100D03*
X77400Y-47100D03*
X78400Y-46100D03*
X77400Y-46100D03*
X78400Y-45100D03*
X77400Y-45100D03*
G54D12*
X70400Y-34100D03*
G54D13*
X70400Y-33100D03*
X71400Y-34100D03*
X71400Y-33100D03*
X72400Y-34100D03*
X72400Y-33100D03*
X73400Y-34100D03*
X73400Y-33100D03*
X74400Y-34100D03*
X74400Y-33100D03*
X75400Y-34100D03*
X75400Y-33100D03*
G54D12*
X51600Y-33100D03*
G54D13*
X50600Y-33100D03*
G54D12*
X53600Y-33100D03*
G54D13*
X54600Y-33100D03*
G54D14*
X40100Y-42350D03*
X41100Y-42350D03*
X75800Y-39450D03*
X75800Y-38450D03*
X77100Y-39500D03*
X77100Y-38500D03*
X78400Y-39500D03*
X78400Y-38500D03*
X55850Y-41950D03*
X56850Y-41950D03*
X41100Y-33100D03*
X40100Y-33100D03*
X51200Y-38800D03*
X50200Y-38800D03*
X53500Y-37100D03*
X53500Y-36100D03*
X54800Y-37100D03*
X54800Y-36100D03*
X53600Y-38800D03*
X52600Y-38800D03*
G54D12*
X76300Y-42350D03*
G54D13*
X76300Y-41350D03*
G54D12*
X77400Y-42350D03*
G54D13*
X77400Y-41350D03*
G54D12*
X78500Y-42350D03*
G54D13*
X78500Y-41350D03*
G54D14*
X48750Y-38800D03*
X48750Y-40800D03*
X45750Y-38800D03*
X45750Y-40800D03*
G54D17*
X46700Y-35600D03*
G54D18*
X40200Y-34600D03*
G54D19*
X40200Y-35600D03*
G54D18*
X40200Y-36600D03*
G54D16*
X53800Y-45250D03*
G54D15*
X52800Y-45250D03*
X51800Y-45250D03*
X50800Y-45250D03*
X50800Y-48250D03*
X51800Y-48250D03*
X52800Y-48250D03*
X53800Y-48250D03*
G54D16*
X58700Y-45200D03*
G54D15*
X57700Y-45200D03*
X56700Y-45200D03*
X55700Y-45200D03*
X55700Y-48200D03*
X56700Y-48200D03*
X57700Y-48200D03*
X58700Y-48200D03*
G54D16*
X63600Y-45200D03*
G54D15*
X62600Y-45200D03*
X61600Y-45200D03*
X60600Y-45200D03*
X60600Y-48200D03*
X61600Y-48200D03*
X62600Y-48200D03*
X63600Y-48200D03*
G54D16*
X73450Y-45150D03*
G54D15*
X72450Y-45150D03*
X71450Y-45150D03*
X70450Y-45150D03*
X69450Y-45150D03*
X68450Y-45150D03*
X67450Y-45150D03*
X66450Y-45150D03*
X66450Y-48150D03*
X67450Y-48150D03*
X68450Y-48150D03*
X69450Y-48150D03*
X70450Y-48150D03*
X71450Y-48150D03*
X72450Y-48150D03*
X73450Y-48150D03*
G54D16*
X48850Y-45200D03*
G54D15*
X47850Y-45200D03*
X46850Y-45200D03*
X45850Y-45200D03*
X45850Y-48200D03*
X46850Y-48200D03*
X47850Y-48200D03*
X48850Y-48200D03*
G54D20*
X50950Y-40900D03*
X52950Y-40900D03*
G54D21*
X58400Y-33800D03*
G54D14*
X57400Y-33800D03*
X57400Y-34800D03*
G54D21*
X44000Y-42500D03*
G54D14*
X43000Y-42500D03*
X43000Y-43500D03*
G54D21*
X58400Y-36700D03*
G54D14*
X57400Y-36700D03*
X57400Y-37700D03*
X51700Y-37100D03*
X51700Y-36100D03*
X50400Y-37100D03*
X50400Y-36100D03*
G54D16*
X61000Y-36050D03*
G54D15*
X62000Y-36050D03*
X63000Y-36050D03*
X64000Y-36050D03*
X65000Y-36050D03*
X66000Y-36050D03*
X67000Y-36050D03*
X68000Y-36050D03*
X68000Y-33050D03*
X67000Y-33050D03*
X66000Y-33050D03*
X65000Y-33050D03*
X64000Y-33050D03*
X63000Y-33050D03*
X62000Y-33050D03*
X61000Y-33050D03*
G54D12*
X50600Y-34200D03*
G54D13*
X51600Y-34200D03*
G54D12*
X53600Y-34200D03*
G54D13*
X54600Y-34200D03*
G54D22*
X70818Y-46987D03*
X61447Y-37403D03*
X68470Y-47329D03*
X56317Y-43860D03*
G54D23*
X42250Y-43500D02*
X41100Y-42350D01*
X43000Y-43500D02*
X42250Y-43500D01*
X48200Y-39350D02*
X48200Y-42250D01*
X48750Y-38800D02*
X48200Y-39350D01*
X67000Y-38700D02*
X66824Y-38700D01*
X66824Y-40875D02*
X66000Y-41700D01*
X66824Y-38700D02*
X66824Y-40875D01*
X65460Y-37335D02*
X66824Y-38700D01*
X65460Y-36050D02*
X65460Y-37335D01*
X65000Y-36050D02*
X65460Y-36050D01*
X73910Y-48150D02*
X73450Y-48150D01*
X73910Y-45190D02*
X73910Y-48150D01*
X76300Y-42800D02*
X73910Y-45190D01*
X76300Y-42350D02*
X76300Y-42800D01*
X76386Y-33713D02*
X77100Y-33000D01*
X76386Y-38011D02*
X76386Y-33713D01*
X76750Y-42350D02*
X76300Y-42350D01*
X77201Y-41898D02*
X76750Y-42350D01*
X77203Y-41900D02*
X77201Y-41898D01*
X77400Y-41900D02*
X77203Y-41900D01*
X77400Y-42350D02*
X77400Y-41900D01*
X76386Y-39561D02*
X76386Y-38011D01*
X76950Y-40124D02*
X76386Y-39561D01*
X76950Y-41646D02*
X76950Y-40124D01*
X77201Y-41898D02*
X76950Y-41646D01*
X75318Y-38011D02*
X76386Y-38011D01*
X74028Y-39300D02*
X75318Y-38011D01*
X68801Y-39300D02*
X74028Y-39300D01*
X68460Y-38958D02*
X68801Y-39300D01*
X68460Y-38700D02*
X68460Y-38958D01*
X68000Y-38700D02*
X68460Y-38700D01*
X43550Y-36600D02*
X40200Y-36600D01*
X45750Y-38800D02*
X43550Y-36600D01*
X77400Y-39800D02*
X77400Y-41350D01*
X77100Y-39500D02*
X77400Y-39800D01*
X54050Y-40900D02*
X55750Y-39200D01*
X52950Y-40900D02*
X54050Y-40900D01*
X71950Y-45855D02*
X70818Y-46987D01*
X71950Y-42750D02*
X71950Y-45855D01*
X72539Y-42160D02*
X71950Y-42750D01*
X72539Y-41700D02*
X72539Y-42160D01*
X73000Y-41700D02*
X72539Y-41700D01*
X70450Y-46570D02*
X70450Y-48150D01*
X70950Y-46070D02*
X70450Y-46570D01*
X70950Y-42750D02*
X70950Y-46070D01*
X71539Y-42160D02*
X70950Y-42750D01*
X71539Y-41700D02*
X71539Y-42160D01*
X72000Y-41700D02*
X71539Y-41700D01*
X69910Y-48150D02*
X69450Y-48150D01*
X69910Y-42789D02*
X69910Y-48150D01*
X70539Y-42160D02*
X69910Y-42789D01*
X70539Y-41700D02*
X70539Y-42160D01*
X71000Y-41700D02*
X70539Y-41700D01*
X69539Y-41700D02*
X70000Y-41700D01*
X69539Y-42160D02*
X69539Y-41700D01*
X68910Y-42789D02*
X69539Y-42160D01*
X68910Y-48150D02*
X68910Y-42789D01*
X68450Y-48150D02*
X68910Y-48150D01*
X66460Y-36050D02*
X66000Y-36050D01*
X66460Y-36308D02*
X66460Y-36050D01*
X68019Y-37868D02*
X66460Y-36308D01*
X68961Y-37868D02*
X68019Y-37868D01*
X69539Y-38446D02*
X68961Y-37868D01*
X69539Y-38700D02*
X69539Y-38446D01*
X70000Y-38700D02*
X69539Y-38700D01*
X67460Y-36050D02*
X67000Y-36050D01*
X67460Y-36308D02*
X67460Y-36050D01*
X68093Y-36942D02*
X67460Y-36308D01*
X69035Y-36942D02*
X68093Y-36942D01*
X70539Y-38446D02*
X69035Y-36942D01*
X70539Y-38700D02*
X70539Y-38446D01*
X71000Y-38700D02*
X70539Y-38700D01*
X41100Y-39000D02*
X41100Y-40150D01*
X65539Y-42060D02*
X65539Y-39314D01*
X65783Y-42303D02*
X65539Y-42060D01*
X66450Y-42303D02*
X65783Y-42303D01*
X73541Y-40708D02*
X75800Y-38450D01*
X68198Y-40708D02*
X73541Y-40708D01*
X67460Y-41446D02*
X68198Y-40708D01*
X67460Y-41700D02*
X67460Y-41446D01*
X67000Y-41700D02*
X67460Y-41700D01*
X47275Y-42675D02*
X46850Y-42250D01*
X48774Y-42675D02*
X47275Y-42675D01*
X49200Y-42250D02*
X48774Y-42675D01*
X44622Y-40072D02*
X46850Y-40072D01*
X43700Y-39150D02*
X44622Y-40072D01*
X48568Y-38354D02*
X46850Y-40072D01*
X49754Y-38354D02*
X48568Y-38354D01*
X50200Y-38800D02*
X49754Y-38354D01*
X46850Y-40072D02*
X46850Y-42250D01*
X58400Y-36700D02*
X58400Y-33800D01*
X64395Y-32445D02*
X65000Y-33050D01*
X60179Y-32445D02*
X64395Y-32445D01*
X58825Y-33800D02*
X60179Y-32445D01*
X58400Y-33800D02*
X58825Y-33800D01*
X66450Y-42303D02*
X66450Y-45150D01*
X66539Y-42214D02*
X66450Y-42303D01*
X66539Y-41700D02*
X66539Y-42214D01*
X67000Y-41700D02*
X66539Y-41700D01*
X65539Y-38700D02*
X66000Y-38700D01*
X65539Y-39314D02*
X65539Y-38700D01*
X50629Y-39229D02*
X50200Y-38800D01*
X52170Y-39229D02*
X50629Y-39229D01*
X52600Y-38800D02*
X52170Y-39229D01*
X55850Y-41300D02*
X55850Y-41950D01*
X56750Y-40400D02*
X55850Y-41300D01*
X56870Y-40279D02*
X56750Y-40400D01*
X56870Y-39320D02*
X56870Y-40279D01*
X61461Y-38353D02*
X61461Y-39049D01*
X59807Y-36700D02*
X61461Y-38353D01*
X58400Y-36700D02*
X59807Y-36700D01*
X61726Y-39314D02*
X65539Y-39314D01*
X61461Y-39049D02*
X61726Y-39314D01*
X61190Y-39320D02*
X56870Y-39320D01*
X61461Y-39049D02*
X61190Y-39320D01*
X56870Y-39320D02*
X56750Y-39200D01*
X53030Y-38369D02*
X52600Y-38800D01*
X55919Y-38369D02*
X53030Y-38369D01*
X56750Y-39200D02*
X55919Y-38369D01*
X57349Y-38700D02*
X60000Y-38700D01*
X55749Y-37100D02*
X57349Y-38700D01*
X54800Y-37100D02*
X55749Y-37100D01*
X60539Y-38446D02*
X60539Y-38700D01*
X60173Y-38080D02*
X60539Y-38446D01*
X59282Y-38080D02*
X60173Y-38080D01*
X59219Y-38143D02*
X59282Y-38080D01*
X57075Y-38143D02*
X59219Y-38143D01*
X55594Y-36662D02*
X57075Y-38143D01*
X53937Y-36662D02*
X55594Y-36662D01*
X53500Y-37100D02*
X53937Y-36662D01*
X61000Y-38700D02*
X60539Y-38700D01*
X51200Y-37900D02*
X50400Y-37100D01*
X51200Y-38800D02*
X51200Y-37900D01*
X61511Y-37403D02*
X61447Y-37403D01*
X62539Y-38431D02*
X61511Y-37403D01*
X62539Y-38700D02*
X62539Y-38431D01*
X63000Y-38700D02*
X62539Y-38700D01*
X47927Y-33100D02*
X41100Y-33100D01*
X49216Y-34389D02*
X47927Y-33100D01*
X49216Y-35539D02*
X49216Y-34389D01*
X50330Y-36653D02*
X49216Y-35539D01*
X51253Y-36653D02*
X50330Y-36653D01*
X51700Y-37100D02*
X51253Y-36653D01*
X47310Y-48200D02*
X46850Y-48200D01*
X47310Y-48453D02*
X47310Y-48200D01*
X47659Y-48801D02*
X47310Y-48453D01*
X48046Y-48801D02*
X47659Y-48801D01*
X48389Y-48458D02*
X48046Y-48801D01*
X48389Y-48200D02*
X48389Y-48458D01*
X48825Y-48200D02*
X48389Y-48200D01*
X44000Y-45350D02*
X44000Y-42500D01*
X46389Y-47739D02*
X44000Y-45350D01*
X46389Y-48200D02*
X46389Y-47739D01*
X46850Y-48200D02*
X46389Y-48200D01*
X59160Y-48200D02*
X58700Y-48200D01*
X59762Y-48801D02*
X59160Y-48200D01*
X60790Y-48801D02*
X59762Y-48801D01*
X61139Y-48453D02*
X60790Y-48801D01*
X61139Y-48200D02*
X61139Y-48453D01*
X61600Y-48200D02*
X61139Y-48200D01*
X63139Y-48200D02*
X63600Y-48200D01*
X63139Y-48458D02*
X63139Y-48200D01*
X62796Y-48801D02*
X63139Y-48458D01*
X62409Y-48801D02*
X62796Y-48801D01*
X62060Y-48453D02*
X62409Y-48801D01*
X62060Y-48200D02*
X62060Y-48453D01*
X61600Y-48200D02*
X62060Y-48200D01*
X51339Y-48250D02*
X51624Y-48250D01*
X51339Y-48503D02*
X51339Y-48250D01*
X50992Y-48850D02*
X51339Y-48503D01*
X49475Y-48850D02*
X50992Y-48850D01*
X48825Y-48200D02*
X49475Y-48850D01*
X52224Y-48850D02*
X51624Y-48250D01*
X52992Y-48850D02*
X52224Y-48850D01*
X53339Y-48503D02*
X52992Y-48850D01*
X53339Y-48250D02*
X53339Y-48503D01*
X53800Y-48250D02*
X53339Y-48250D01*
X56700Y-48200D02*
X56700Y-48800D01*
X54810Y-48800D02*
X56700Y-48800D01*
X54260Y-48250D02*
X54810Y-48800D01*
X53800Y-48250D02*
X54260Y-48250D01*
X58239Y-48200D02*
X58700Y-48200D01*
X58239Y-48453D02*
X58239Y-48200D01*
X57892Y-48800D02*
X58239Y-48453D01*
X56700Y-48800D02*
X57892Y-48800D01*
X51800Y-48250D02*
X51624Y-48250D01*
X48850Y-48200D02*
X48825Y-48200D01*
X40100Y-42350D02*
X40100Y-40150D01*
X53431Y-33550D02*
X53600Y-33550D01*
X53149Y-33831D02*
X53431Y-33550D01*
X53149Y-35749D02*
X53149Y-33831D01*
X53500Y-36100D02*
X53149Y-35749D01*
X53600Y-33100D02*
X53600Y-33550D01*
X55053Y-33553D02*
X54600Y-33100D01*
X55053Y-35846D02*
X55053Y-33553D01*
X54800Y-36100D02*
X55053Y-35846D01*
X57239Y-45200D02*
X57524Y-45200D01*
X57239Y-45453D02*
X57239Y-45200D01*
X56888Y-45805D02*
X57239Y-45453D01*
X56506Y-45805D02*
X56888Y-45805D01*
X56160Y-45458D02*
X56506Y-45805D01*
X56160Y-45200D02*
X56160Y-45458D01*
X55700Y-45200D02*
X56160Y-45200D01*
X61060Y-45200D02*
X60600Y-45200D01*
X61060Y-44941D02*
X61060Y-45200D01*
X61405Y-44596D02*
X61060Y-44941D01*
X61788Y-44596D02*
X61405Y-44596D01*
X62139Y-44946D02*
X61788Y-44596D01*
X62139Y-45200D02*
X62139Y-44946D01*
X62600Y-45200D02*
X62139Y-45200D01*
X60139Y-45200D02*
X60600Y-45200D01*
X59539Y-44599D02*
X60139Y-45200D01*
X57524Y-44599D02*
X59539Y-44599D01*
X57524Y-45200D02*
X57524Y-44599D01*
X57524Y-42624D02*
X56850Y-41950D01*
X57524Y-44599D02*
X57524Y-42624D01*
X46310Y-45200D02*
X45850Y-45200D01*
X46310Y-44941D02*
X46310Y-45200D01*
X46666Y-44585D02*
X46310Y-44941D01*
X47027Y-44585D02*
X46666Y-44585D01*
X47389Y-44946D02*
X47027Y-44585D01*
X47389Y-45200D02*
X47389Y-44946D01*
X47850Y-45200D02*
X47389Y-45200D01*
X52800Y-45250D02*
X52712Y-45250D01*
X51260Y-45250D02*
X50800Y-45250D01*
X51260Y-44996D02*
X51260Y-45250D01*
X51609Y-44647D02*
X51260Y-44996D01*
X52109Y-44647D02*
X51609Y-44647D01*
X52712Y-45250D02*
X52109Y-44647D01*
X55239Y-45200D02*
X55700Y-45200D01*
X54689Y-44650D02*
X55239Y-45200D01*
X53312Y-44650D02*
X54689Y-44650D01*
X52712Y-45250D02*
X53312Y-44650D01*
X57700Y-45200D02*
X57524Y-45200D01*
X51060Y-33560D02*
X50600Y-33100D01*
X51060Y-35439D02*
X51060Y-33560D01*
X50400Y-36100D02*
X51060Y-35439D01*
X52050Y-34000D02*
X51600Y-33550D01*
X52050Y-35749D02*
X52050Y-34000D01*
X51700Y-36100D02*
X52050Y-35749D01*
X51600Y-33100D02*
X51600Y-33550D01*
X74333Y-32033D02*
X75400Y-33100D01*
X59386Y-32033D02*
X74333Y-32033D01*
X57970Y-33448D02*
X59386Y-32033D01*
X57970Y-37129D02*
X57970Y-33448D01*
X57400Y-37700D02*
X57970Y-37129D01*
X54260Y-45250D02*
X53800Y-45250D01*
X55710Y-46700D02*
X54260Y-45250D01*
X63754Y-46700D02*
X55710Y-46700D01*
X65822Y-48768D02*
X63754Y-46700D01*
X70629Y-48768D02*
X65822Y-48768D01*
X70989Y-48408D02*
X70629Y-48768D01*
X70989Y-48150D02*
X70989Y-48408D01*
X71450Y-48150D02*
X70989Y-48150D01*
X67989Y-45150D02*
X68450Y-45150D01*
X67989Y-45408D02*
X67989Y-45150D01*
X67641Y-45757D02*
X67989Y-45408D01*
X64617Y-45757D02*
X67641Y-45757D01*
X64060Y-45200D02*
X64617Y-45757D01*
X63600Y-45200D02*
X64060Y-45200D01*
X67184Y-46044D02*
X68470Y-47329D01*
X60004Y-46044D02*
X67184Y-46044D01*
X59160Y-45200D02*
X60004Y-46044D01*
X58700Y-45200D02*
X59160Y-45200D01*
X56700Y-44242D02*
X56700Y-45200D01*
X56317Y-43860D02*
X56700Y-44242D01*
X72748Y-32448D02*
X73400Y-33100D01*
X67802Y-32448D02*
X72748Y-32448D01*
X67460Y-32791D02*
X67802Y-32448D01*
X67460Y-33050D02*
X67460Y-32791D01*
X67000Y-33050D02*
X67460Y-33050D01*
X73868Y-33631D02*
X73400Y-34100D01*
X73868Y-32929D02*
X73868Y-33631D01*
X73175Y-32236D02*
X73868Y-32929D01*
X67014Y-32236D02*
X73175Y-32236D01*
X66460Y-32791D02*
X67014Y-32236D01*
X66460Y-33050D02*
X66460Y-32791D01*
X66000Y-33050D02*
X66460Y-33050D01*
X71937Y-33637D02*
X72400Y-34100D01*
X69011Y-33637D02*
X71937Y-33637D01*
X68974Y-33674D02*
X69011Y-33637D01*
X64826Y-33674D02*
X68974Y-33674D01*
X64460Y-33308D02*
X64826Y-33674D01*
X64460Y-33050D02*
X64460Y-33308D01*
X64000Y-33050D02*
X64460Y-33050D01*
X70949Y-32649D02*
X71400Y-33100D01*
X68861Y-32649D02*
X70949Y-32649D01*
X68460Y-33050D02*
X68861Y-32649D01*
X68000Y-33050D02*
X68460Y-33050D01*
X69450Y-36050D02*
X71400Y-34100D01*
X68000Y-36050D02*
X69450Y-36050D01*
X44150Y-40550D02*
X45850Y-42250D01*
X44150Y-40150D02*
X44150Y-40550D01*
X43700Y-40150D02*
X44150Y-40150D01*
X39696Y-35103D02*
X40200Y-34600D01*
X39696Y-38146D02*
X39696Y-35103D01*
X40100Y-38549D02*
X39696Y-38146D01*
X40100Y-39000D02*
X40100Y-38549D01*
X77900Y-47600D02*
X78400Y-47100D01*
X76443Y-47600D02*
X77900Y-47600D01*
X75074Y-48968D02*
X76443Y-47600D01*
X65162Y-48968D02*
X75074Y-48968D01*
X63787Y-47592D02*
X65162Y-48968D01*
X63207Y-47592D02*
X63787Y-47592D01*
X62600Y-48200D02*
X63207Y-47592D01*
X49090Y-40459D02*
X48750Y-40800D01*
X52509Y-40459D02*
X49090Y-40459D01*
X52509Y-39890D02*
X52509Y-40459D01*
X53600Y-38800D02*
X52509Y-39890D01*
X59539Y-41700D02*
X60000Y-41700D01*
X59354Y-41514D02*
X59539Y-41700D01*
X56681Y-41514D02*
X59354Y-41514D01*
X56350Y-41845D02*
X56681Y-41514D01*
X56350Y-42060D02*
X56350Y-41845D01*
X56035Y-42375D02*
X56350Y-42060D01*
X53792Y-42375D02*
X56035Y-42375D01*
X52509Y-41092D02*
X53792Y-42375D01*
X52509Y-40459D02*
X52509Y-41092D01*
X76300Y-39950D02*
X76300Y-41350D01*
X75800Y-39450D02*
X76300Y-39950D01*
G54D10*
G36*
X40012Y-33818D02*
X39750Y-33926D01*
X39673Y-34004D01*
X39673Y-33689D01*
X39692Y-33708D01*
X39956Y-33818D01*
X40012Y-33818D01*
X40012Y-33818D01*
G37*
G54D23*
X40012Y-33818D02*
X39750Y-33926D01*
X39673Y-34004D01*
X39673Y-33689D01*
X39692Y-33708D01*
X39956Y-33818D01*
X40012Y-33818D01*
G54D10*
G36*
X44578Y-33593D02*
X44574Y-33598D01*
X44506Y-33761D01*
X44506Y-33937D01*
X44506Y-36858D01*
X43899Y-36250D01*
X43738Y-36143D01*
X43550Y-36106D01*
X40965Y-36106D01*
X40993Y-36038D01*
X40993Y-35862D01*
X40993Y-35162D01*
X40926Y-34998D01*
X40903Y-34975D01*
X40993Y-34758D01*
X40993Y-34442D01*
X40873Y-34150D01*
X40650Y-33927D01*
X40358Y-33806D01*
X40272Y-33806D01*
X40506Y-33709D01*
X40599Y-33616D01*
X40692Y-33708D01*
X40956Y-33818D01*
X41242Y-33818D01*
X41506Y-33709D01*
X41622Y-33593D01*
X44578Y-33593D01*
X44578Y-33593D01*
G37*
G54D23*
X44578Y-33593D02*
X44574Y-33598D01*
X44506Y-33761D01*
X44506Y-33937D01*
X44506Y-36858D01*
X43899Y-36250D01*
X43738Y-36143D01*
X43550Y-36106D01*
X40965Y-36106D01*
X40993Y-36038D01*
X40993Y-35862D01*
X40993Y-35162D01*
X40926Y-34998D01*
X40903Y-34975D01*
X40993Y-34758D01*
X40993Y-34442D01*
X40873Y-34150D01*
X40650Y-33927D01*
X40358Y-33806D01*
X40272Y-33806D01*
X40506Y-33709D01*
X40599Y-33616D01*
X40692Y-33708D01*
X40956Y-33818D01*
X41242Y-33818D01*
X41506Y-33709D01*
X41622Y-33593D01*
X44578Y-33593D01*
G54D10*
G36*
X44617Y-46665D02*
X39673Y-46665D01*
X39673Y-42939D01*
X39692Y-42958D01*
X39956Y-43068D01*
X40242Y-43068D01*
X40506Y-42959D01*
X40599Y-42866D01*
X40692Y-42958D01*
X40956Y-43068D01*
X41120Y-43068D01*
X41900Y-43849D01*
X41900Y-43849D01*
X42061Y-43956D01*
X42061Y-43956D01*
X42212Y-43986D01*
X42249Y-43993D01*
X42249Y-43993D01*
X42250Y-43993D01*
X42477Y-43993D01*
X42592Y-44108D01*
X42856Y-44218D01*
X43142Y-44218D01*
X43406Y-44109D01*
X43506Y-44010D01*
X43506Y-45350D01*
X43543Y-45538D01*
X43650Y-45699D01*
X44617Y-46665D01*
X44617Y-46665D01*
G37*
G54D23*
X44617Y-46665D02*
X39673Y-46665D01*
X39673Y-42939D01*
X39692Y-42958D01*
X39956Y-43068D01*
X40242Y-43068D01*
X40506Y-42959D01*
X40599Y-42866D01*
X40692Y-42958D01*
X40956Y-43068D01*
X41120Y-43068D01*
X41900Y-43849D01*
X41900Y-43849D01*
X42061Y-43956D01*
X42061Y-43956D01*
X42212Y-43986D01*
X42249Y-43993D01*
X42249Y-43993D01*
X42250Y-43993D01*
X42477Y-43993D01*
X42592Y-44108D01*
X42856Y-44218D01*
X43142Y-44218D01*
X43406Y-44109D01*
X43506Y-44010D01*
X43506Y-45350D01*
X43543Y-45538D01*
X43650Y-45699D01*
X44617Y-46665D01*
G54D10*
G36*
X45068Y-40566D02*
X45031Y-40656D01*
X45031Y-40733D01*
X44864Y-40566D01*
X45068Y-40566D01*
X45068Y-40566D01*
G37*
G54D23*
X45068Y-40566D02*
X45031Y-40656D01*
X45031Y-40733D01*
X44864Y-40566D01*
X45068Y-40566D01*
G54D10*
G36*
X45403Y-47451D02*
X45317Y-47509D01*
X45153Y-47754D01*
X45096Y-48042D01*
X45096Y-48357D01*
X45149Y-48626D01*
X39673Y-48626D01*
X39673Y-48616D01*
X45008Y-48616D01*
X45008Y-47056D01*
X45403Y-47451D01*
X45403Y-47451D01*
G37*
G54D23*
X45403Y-47451D02*
X45317Y-47509D01*
X45153Y-47754D01*
X45096Y-48042D01*
X45096Y-48357D01*
X45149Y-48626D01*
X39673Y-48626D01*
X39673Y-48616D01*
X45008Y-48616D01*
X45008Y-47056D01*
X45403Y-47451D01*
G54D10*
G36*
X46356Y-41727D02*
X46350Y-41733D01*
X46257Y-41641D01*
X45993Y-41531D01*
X45829Y-41531D01*
X45816Y-41518D01*
X45892Y-41518D01*
X46156Y-41409D01*
X46356Y-41210D01*
X46356Y-41727D01*
X46356Y-41727D01*
G37*
G54D23*
X46356Y-41727D02*
X46350Y-41733D01*
X46257Y-41641D01*
X45993Y-41531D01*
X45829Y-41531D01*
X45816Y-41518D01*
X45892Y-41518D01*
X46156Y-41409D01*
X46356Y-41210D01*
X46356Y-41727D01*
G54D10*
G36*
X47706Y-41727D02*
X47591Y-41842D01*
X47524Y-42001D01*
X47459Y-41843D01*
X47343Y-41727D01*
X47343Y-40277D01*
X47706Y-39914D01*
X47706Y-41727D01*
X47706Y-41727D01*
G37*
G54D23*
X47706Y-41727D02*
X47591Y-41842D01*
X47524Y-42001D01*
X47459Y-41843D01*
X47343Y-41727D01*
X47343Y-40277D01*
X47706Y-39914D01*
X47706Y-41727D01*
G54D10*
G36*
X50567Y-35234D02*
X50420Y-35381D01*
X50257Y-35381D01*
X49993Y-35490D01*
X49929Y-35554D01*
X49710Y-35335D01*
X49710Y-34389D01*
X49672Y-34200D01*
X49565Y-34040D01*
X48276Y-32750D01*
X48115Y-32643D01*
X47927Y-32606D01*
X41622Y-32606D01*
X41507Y-32491D01*
X41243Y-32381D01*
X40957Y-32381D01*
X40693Y-32490D01*
X40600Y-32583D01*
X40507Y-32491D01*
X40243Y-32381D01*
X39957Y-32381D01*
X39693Y-32490D01*
X39673Y-32510D01*
X39673Y-32373D01*
X50411Y-32373D01*
X50179Y-32469D01*
X49969Y-32678D01*
X49856Y-32951D01*
X49856Y-33247D01*
X49969Y-33520D01*
X50010Y-33562D01*
X49924Y-33648D01*
X49856Y-33811D01*
X49856Y-33987D01*
X49856Y-34587D01*
X49923Y-34751D01*
X50048Y-34875D01*
X50211Y-34943D01*
X50387Y-34943D01*
X50567Y-34943D01*
X50567Y-35234D01*
X50567Y-35234D01*
G37*
G54D23*
X50567Y-35234D02*
X50420Y-35381D01*
X50257Y-35381D01*
X49993Y-35490D01*
X49929Y-35554D01*
X49710Y-35335D01*
X49710Y-34389D01*
X49672Y-34200D01*
X49565Y-34040D01*
X48276Y-32750D01*
X48115Y-32643D01*
X47927Y-32606D01*
X41622Y-32606D01*
X41507Y-32491D01*
X41243Y-32381D01*
X40957Y-32381D01*
X40693Y-32490D01*
X40600Y-32583D01*
X40507Y-32491D01*
X40243Y-32381D01*
X39957Y-32381D01*
X39693Y-32490D01*
X39673Y-32510D01*
X39673Y-32373D01*
X50411Y-32373D01*
X50179Y-32469D01*
X49969Y-32678D01*
X49856Y-32951D01*
X49856Y-33247D01*
X49969Y-33520D01*
X50010Y-33562D01*
X49924Y-33648D01*
X49856Y-33811D01*
X49856Y-33987D01*
X49856Y-34587D01*
X49923Y-34751D01*
X50048Y-34875D01*
X50211Y-34943D01*
X50387Y-34943D01*
X50567Y-34943D01*
X50567Y-35234D01*
G54D10*
G36*
X51170Y-32373D02*
X51048Y-32423D01*
X51008Y-32464D01*
X50789Y-32373D01*
X51170Y-32373D01*
X51170Y-32373D01*
G37*
G54D23*
X51170Y-32373D02*
X51048Y-32423D01*
X51008Y-32464D01*
X50789Y-32373D01*
X51170Y-32373D01*
G54D10*
G36*
X51556Y-35381D02*
X51554Y-35382D01*
X51554Y-34943D01*
X51556Y-34943D01*
X51556Y-35381D01*
X51556Y-35381D01*
G37*
G54D23*
X51556Y-35381D02*
X51554Y-35382D01*
X51554Y-34943D01*
X51556Y-34943D01*
X51556Y-35381D01*
G54D10*
G36*
X52048Y-39722D02*
X52015Y-39890D01*
X52015Y-39965D01*
X49090Y-39965D01*
X48902Y-40002D01*
X48784Y-40081D01*
X48693Y-40081D01*
X48693Y-39554D01*
X48729Y-39518D01*
X48892Y-39518D01*
X49156Y-39409D01*
X49358Y-39207D01*
X49468Y-38943D01*
X49468Y-38847D01*
X49481Y-38847D01*
X49481Y-38942D01*
X49590Y-39206D01*
X49792Y-39408D01*
X50056Y-39518D01*
X50220Y-39518D01*
X50279Y-39578D01*
X50280Y-39578D01*
X50440Y-39685D01*
X50629Y-39722D01*
X52048Y-39722D01*
X52048Y-39722D01*
G37*
G54D23*
X52048Y-39722D02*
X52015Y-39890D01*
X52015Y-39965D01*
X49090Y-39965D01*
X48902Y-40002D01*
X48784Y-40081D01*
X48693Y-40081D01*
X48693Y-39554D01*
X48729Y-39518D01*
X48892Y-39518D01*
X49156Y-39409D01*
X49358Y-39207D01*
X49468Y-38943D01*
X49468Y-38847D01*
X49481Y-38847D01*
X49481Y-38942D01*
X49590Y-39206D01*
X49792Y-39408D01*
X50056Y-39518D01*
X50220Y-39518D01*
X50279Y-39578D01*
X50280Y-39578D01*
X50440Y-39685D01*
X50629Y-39722D01*
X52048Y-39722D01*
G54D10*
G36*
X54411Y-32373D02*
X54191Y-32464D01*
X54151Y-32424D01*
X54029Y-32373D01*
X54411Y-32373D01*
X54411Y-32373D01*
G37*
G54D23*
X54411Y-32373D02*
X54191Y-32464D01*
X54151Y-32424D01*
X54029Y-32373D01*
X54411Y-32373D01*
G54D10*
G36*
X54559Y-35421D02*
X54393Y-35490D01*
X54191Y-35692D01*
X54150Y-35791D01*
X54109Y-35693D01*
X53907Y-35491D01*
X53643Y-35381D01*
X53643Y-35381D01*
X53643Y-34943D01*
X53987Y-34943D01*
X54151Y-34876D01*
X54191Y-34835D01*
X54451Y-34943D01*
X54559Y-34943D01*
X54559Y-35421D01*
X54559Y-35421D01*
G37*
G54D23*
X54559Y-35421D02*
X54393Y-35490D01*
X54191Y-35692D01*
X54150Y-35791D01*
X54109Y-35693D01*
X53907Y-35491D01*
X53643Y-35381D01*
X53643Y-35381D01*
X53643Y-34943D01*
X53987Y-34943D01*
X54151Y-34876D01*
X54191Y-34835D01*
X54451Y-34943D01*
X54559Y-34943D01*
X54559Y-35421D01*
G54D10*
G36*
X55111Y-38863D02*
X55031Y-39056D01*
X55031Y-39220D01*
X53845Y-40406D01*
X53479Y-40406D01*
X53360Y-40286D01*
X53094Y-40176D01*
X53002Y-40176D01*
X53002Y-40095D01*
X53579Y-39518D01*
X53742Y-39518D01*
X54006Y-39409D01*
X54208Y-39207D01*
X54318Y-38943D01*
X54318Y-38863D01*
X55111Y-38863D01*
X55111Y-38863D01*
G37*
G54D23*
X55111Y-38863D02*
X55031Y-39056D01*
X55031Y-39220D01*
X53845Y-40406D01*
X53479Y-40406D01*
X53360Y-40286D01*
X53094Y-40176D01*
X53002Y-40176D01*
X53002Y-40095D01*
X53579Y-39518D01*
X53742Y-39518D01*
X54006Y-39409D01*
X54208Y-39207D01*
X54318Y-38943D01*
X54318Y-38863D01*
X55111Y-38863D01*
G54D10*
G36*
X55436Y-41047D02*
X55393Y-41111D01*
X55356Y-41300D01*
X55356Y-41427D01*
X55241Y-41542D01*
X55131Y-41806D01*
X55131Y-41881D01*
X53997Y-41881D01*
X53508Y-41393D01*
X54050Y-41393D01*
X54238Y-41356D01*
X54399Y-41249D01*
X55053Y-40595D01*
X55140Y-40806D01*
X55342Y-41008D01*
X55436Y-41047D01*
X55436Y-41047D01*
G37*
G54D23*
X55436Y-41047D02*
X55393Y-41111D01*
X55356Y-41300D01*
X55356Y-41427D01*
X55241Y-41542D01*
X55131Y-41806D01*
X55131Y-41881D01*
X53997Y-41881D01*
X53508Y-41393D01*
X54050Y-41393D01*
X54238Y-41356D01*
X54399Y-41249D01*
X55053Y-40595D01*
X55140Y-40806D01*
X55342Y-41008D01*
X55436Y-41047D01*
G54D10*
G36*
X55826Y-37876D02*
X53030Y-37876D01*
X53030Y-37876D01*
X52841Y-37913D01*
X52681Y-38020D01*
X52620Y-38081D01*
X52457Y-38081D01*
X52193Y-38190D01*
X51991Y-38392D01*
X51899Y-38611D01*
X51809Y-38393D01*
X51693Y-38277D01*
X51693Y-37900D01*
X51693Y-37899D01*
X51677Y-37818D01*
X51842Y-37818D01*
X52106Y-37709D01*
X52308Y-37507D01*
X52418Y-37243D01*
X52418Y-36957D01*
X52309Y-36693D01*
X52216Y-36600D01*
X52308Y-36507D01*
X52418Y-36243D01*
X52418Y-36069D01*
X52506Y-35938D01*
X52543Y-35749D01*
X52543Y-34000D01*
X52506Y-33811D01*
X52399Y-33651D01*
X52312Y-33564D01*
X52343Y-33488D01*
X52343Y-33312D01*
X52343Y-32712D01*
X52276Y-32548D01*
X52151Y-32424D01*
X52029Y-32373D01*
X53170Y-32373D01*
X53048Y-32423D01*
X52924Y-32548D01*
X52856Y-32711D01*
X52856Y-32887D01*
X52856Y-33426D01*
X52800Y-33482D01*
X52693Y-33642D01*
X52656Y-33831D01*
X52656Y-35749D01*
X52693Y-35938D01*
X52781Y-36069D01*
X52781Y-36242D01*
X52890Y-36506D01*
X52983Y-36599D01*
X52891Y-36692D01*
X52781Y-36956D01*
X52781Y-37242D01*
X52890Y-37506D01*
X53092Y-37708D01*
X53356Y-37818D01*
X53642Y-37818D01*
X53906Y-37709D01*
X54108Y-37507D01*
X54149Y-37408D01*
X54190Y-37506D01*
X54392Y-37708D01*
X54656Y-37818D01*
X54942Y-37818D01*
X55206Y-37709D01*
X55322Y-37593D01*
X55544Y-37593D01*
X55826Y-37876D01*
X55826Y-37876D01*
G37*
G54D23*
X55826Y-37876D02*
X53030Y-37876D01*
X53030Y-37876D01*
X52841Y-37913D01*
X52681Y-38020D01*
X52620Y-38081D01*
X52457Y-38081D01*
X52193Y-38190D01*
X51991Y-38392D01*
X51899Y-38611D01*
X51809Y-38393D01*
X51693Y-38277D01*
X51693Y-37900D01*
X51693Y-37899D01*
X51677Y-37818D01*
X51842Y-37818D01*
X52106Y-37709D01*
X52308Y-37507D01*
X52418Y-37243D01*
X52418Y-36957D01*
X52309Y-36693D01*
X52216Y-36600D01*
X52308Y-36507D01*
X52418Y-36243D01*
X52418Y-36069D01*
X52506Y-35938D01*
X52543Y-35749D01*
X52543Y-34000D01*
X52506Y-33811D01*
X52399Y-33651D01*
X52312Y-33564D01*
X52343Y-33488D01*
X52343Y-33312D01*
X52343Y-32712D01*
X52276Y-32548D01*
X52151Y-32424D01*
X52029Y-32373D01*
X53170Y-32373D01*
X53048Y-32423D01*
X52924Y-32548D01*
X52856Y-32711D01*
X52856Y-32887D01*
X52856Y-33426D01*
X52800Y-33482D01*
X52693Y-33642D01*
X52656Y-33831D01*
X52656Y-35749D01*
X52693Y-35938D01*
X52781Y-36069D01*
X52781Y-36242D01*
X52890Y-36506D01*
X52983Y-36599D01*
X52891Y-36692D01*
X52781Y-36956D01*
X52781Y-37242D01*
X52890Y-37506D01*
X53092Y-37708D01*
X53356Y-37818D01*
X53642Y-37818D01*
X53906Y-37709D01*
X54108Y-37507D01*
X54149Y-37408D01*
X54190Y-37506D01*
X54392Y-37708D01*
X54656Y-37818D01*
X54942Y-37818D01*
X55206Y-37709D01*
X55322Y-37593D01*
X55544Y-37593D01*
X55826Y-37876D01*
G54D10*
G36*
X56206Y-44483D02*
X56200Y-44487D01*
X56176Y-44472D01*
X56194Y-44479D01*
X56206Y-44479D01*
X56206Y-44483D01*
X56206Y-44483D01*
G37*
G54D23*
X56206Y-44483D02*
X56200Y-44487D01*
X56176Y-44472D01*
X56194Y-44479D01*
X56206Y-44479D01*
X56206Y-44483D01*
G54D10*
G36*
X56235Y-46206D02*
X55914Y-46206D01*
X55799Y-46091D01*
X55988Y-46053D01*
X56029Y-46026D01*
X56156Y-46153D01*
X56157Y-46154D01*
X56235Y-46206D01*
X56235Y-46206D01*
G37*
G54D23*
X56235Y-46206D02*
X55914Y-46206D01*
X55799Y-46091D01*
X55988Y-46053D01*
X56029Y-46026D01*
X56156Y-46153D01*
X56157Y-46154D01*
X56235Y-46206D01*
G54D10*
G36*
X56333Y-39800D02*
X56250Y-39883D01*
X56166Y-39799D01*
X56249Y-39716D01*
X56333Y-39800D01*
X56333Y-39800D01*
G37*
G54D23*
X56333Y-39800D02*
X56250Y-39883D01*
X56166Y-39799D01*
X56249Y-39716D01*
X56333Y-39800D01*
G54D10*
G36*
X58348Y-32373D02*
X57621Y-33099D01*
X57614Y-33110D01*
X57543Y-33081D01*
X57257Y-33081D01*
X56993Y-33190D01*
X56791Y-33392D01*
X56681Y-33656D01*
X56681Y-33942D01*
X56790Y-34206D01*
X56883Y-34299D01*
X56791Y-34392D01*
X56681Y-34656D01*
X56681Y-34942D01*
X56790Y-35206D01*
X56992Y-35408D01*
X57256Y-35518D01*
X57477Y-35518D01*
X57477Y-35981D01*
X57257Y-35981D01*
X56993Y-36090D01*
X56791Y-36292D01*
X56681Y-36556D01*
X56681Y-36842D01*
X56790Y-37106D01*
X56883Y-37199D01*
X56856Y-37226D01*
X55943Y-36313D01*
X55783Y-36206D01*
X55594Y-36168D01*
X55518Y-36168D01*
X55518Y-35987D01*
X55546Y-35846D01*
X55546Y-33553D01*
X55509Y-33364D01*
X55402Y-33203D01*
X55343Y-33145D01*
X55343Y-32952D01*
X55230Y-32679D01*
X55021Y-32469D01*
X54789Y-32373D01*
X58348Y-32373D01*
X58348Y-32373D01*
G37*
G54D23*
X58348Y-32373D02*
X57621Y-33099D01*
X57614Y-33110D01*
X57543Y-33081D01*
X57257Y-33081D01*
X56993Y-33190D01*
X56791Y-33392D01*
X56681Y-33656D01*
X56681Y-33942D01*
X56790Y-34206D01*
X56883Y-34299D01*
X56791Y-34392D01*
X56681Y-34656D01*
X56681Y-34942D01*
X56790Y-35206D01*
X56992Y-35408D01*
X57256Y-35518D01*
X57477Y-35518D01*
X57477Y-35981D01*
X57257Y-35981D01*
X56993Y-36090D01*
X56791Y-36292D01*
X56681Y-36556D01*
X56681Y-36842D01*
X56790Y-37106D01*
X56883Y-37199D01*
X56856Y-37226D01*
X55943Y-36313D01*
X55783Y-36206D01*
X55594Y-36168D01*
X55518Y-36168D01*
X55518Y-35987D01*
X55546Y-35846D01*
X55546Y-33553D01*
X55509Y-33364D01*
X55402Y-33203D01*
X55343Y-33145D01*
X55343Y-32952D01*
X55230Y-32679D01*
X55021Y-32469D01*
X54789Y-32373D01*
X58348Y-32373D01*
G54D10*
G36*
X59468Y-46206D02*
X57159Y-46206D01*
X57237Y-46154D01*
X57367Y-46024D01*
X57411Y-46053D01*
X57700Y-46111D01*
X57988Y-46053D01*
X58095Y-45982D01*
X58138Y-46025D01*
X58301Y-46093D01*
X58477Y-46093D01*
X59097Y-46093D01*
X59261Y-46026D01*
X59274Y-46012D01*
X59468Y-46206D01*
X59468Y-46206D01*
G37*
G54D23*
X59468Y-46206D02*
X57159Y-46206D01*
X57237Y-46154D01*
X57367Y-46024D01*
X57411Y-46053D01*
X57700Y-46111D01*
X57988Y-46053D01*
X58095Y-45982D01*
X58138Y-46025D01*
X58301Y-46093D01*
X58477Y-46093D01*
X59097Y-46093D01*
X59261Y-46026D01*
X59274Y-46012D01*
X59468Y-46206D01*
G54D10*
G36*
X59995Y-37586D02*
X59282Y-37586D01*
X59093Y-37624D01*
X59055Y-37650D01*
X58148Y-37650D01*
X58319Y-37478D01*
X58319Y-37478D01*
X58359Y-37418D01*
X58762Y-37418D01*
X58926Y-37351D01*
X59050Y-37226D01*
X59064Y-37193D01*
X59602Y-37193D01*
X59995Y-37586D01*
X59995Y-37586D01*
G37*
G54D23*
X59995Y-37586D02*
X59282Y-37586D01*
X59093Y-37624D01*
X59055Y-37650D01*
X58148Y-37650D01*
X58319Y-37478D01*
X58319Y-37478D01*
X58359Y-37418D01*
X58762Y-37418D01*
X58926Y-37351D01*
X59050Y-37226D01*
X59064Y-37193D01*
X59602Y-37193D01*
X59995Y-37586D01*
G54D10*
G36*
X61031Y-36943D02*
X60922Y-37052D01*
X60903Y-37098D01*
X60749Y-36943D01*
X60777Y-36943D01*
X61031Y-36943D01*
X61031Y-36943D01*
G37*
G54D23*
X61031Y-36943D02*
X60922Y-37052D01*
X60903Y-37098D01*
X60749Y-36943D01*
X60777Y-36943D01*
X61031Y-36943D01*
G54D10*
G36*
X62932Y-47193D02*
X62857Y-47243D01*
X62777Y-47324D01*
X62600Y-47288D01*
X62311Y-47346D01*
X62100Y-47487D01*
X61888Y-47346D01*
X61600Y-47288D01*
X61311Y-47346D01*
X61100Y-47487D01*
X60888Y-47346D01*
X60600Y-47288D01*
X60311Y-47346D01*
X60067Y-47509D01*
X59903Y-47754D01*
X59846Y-48042D01*
X59846Y-48187D01*
X59509Y-47850D01*
X59401Y-47778D01*
X59396Y-47754D01*
X59232Y-47509D01*
X58988Y-47346D01*
X58700Y-47288D01*
X58411Y-47346D01*
X58200Y-47487D01*
X57988Y-47346D01*
X57700Y-47288D01*
X57411Y-47346D01*
X57200Y-47487D01*
X56988Y-47346D01*
X56700Y-47288D01*
X56411Y-47346D01*
X56200Y-47487D01*
X55988Y-47346D01*
X55700Y-47288D01*
X55411Y-47346D01*
X55167Y-47509D01*
X55003Y-47754D01*
X54946Y-48042D01*
X54946Y-48237D01*
X54609Y-47900D01*
X54501Y-47828D01*
X54496Y-47804D01*
X54332Y-47559D01*
X54088Y-47396D01*
X53800Y-47338D01*
X53511Y-47396D01*
X53300Y-47537D01*
X53088Y-47396D01*
X52800Y-47338D01*
X52511Y-47396D01*
X52300Y-47537D01*
X52088Y-47396D01*
X51800Y-47338D01*
X51511Y-47396D01*
X51300Y-47537D01*
X51088Y-47396D01*
X50800Y-47338D01*
X50511Y-47396D01*
X50267Y-47559D01*
X50103Y-47804D01*
X50046Y-48092D01*
X50046Y-48356D01*
X49679Y-48356D01*
X49603Y-48280D01*
X49603Y-45562D01*
X49603Y-44662D01*
X49536Y-44498D01*
X49411Y-44374D01*
X49248Y-44306D01*
X49072Y-44306D01*
X48452Y-44306D01*
X48288Y-44373D01*
X48245Y-44417D01*
X48138Y-44346D01*
X47850Y-44288D01*
X47561Y-44346D01*
X47517Y-44375D01*
X47377Y-44235D01*
X47216Y-44128D01*
X47027Y-44091D01*
X46666Y-44091D01*
X46477Y-44128D01*
X46317Y-44235D01*
X46316Y-44237D01*
X46179Y-44373D01*
X46138Y-44346D01*
X45850Y-44288D01*
X45561Y-44346D01*
X45317Y-44509D01*
X45153Y-44754D01*
X45096Y-45042D01*
X45096Y-45357D01*
X45153Y-45645D01*
X45317Y-45890D01*
X45561Y-46053D01*
X45850Y-46111D01*
X46138Y-46053D01*
X46350Y-45912D01*
X46561Y-46053D01*
X46850Y-46111D01*
X47138Y-46053D01*
X47350Y-45912D01*
X47561Y-46053D01*
X47850Y-46111D01*
X48138Y-46053D01*
X48245Y-45982D01*
X48288Y-46025D01*
X48451Y-46093D01*
X48627Y-46093D01*
X49247Y-46093D01*
X49411Y-46026D01*
X49535Y-45901D01*
X49603Y-45738D01*
X49603Y-45562D01*
X49603Y-48280D01*
X49603Y-48280D01*
X49603Y-48042D01*
X49546Y-47754D01*
X49382Y-47509D01*
X49138Y-47346D01*
X48850Y-47288D01*
X48561Y-47346D01*
X48350Y-47487D01*
X48138Y-47346D01*
X47850Y-47288D01*
X47561Y-47346D01*
X47350Y-47487D01*
X47138Y-47346D01*
X46850Y-47288D01*
X46672Y-47324D01*
X44493Y-45145D01*
X44493Y-43164D01*
X44526Y-43151D01*
X44650Y-43026D01*
X44718Y-42863D01*
X44718Y-42687D01*
X44718Y-42137D01*
X44651Y-41973D01*
X44526Y-41849D01*
X44363Y-41781D01*
X44187Y-41781D01*
X43637Y-41781D01*
X43473Y-41848D01*
X43419Y-41902D01*
X43407Y-41891D01*
X43143Y-41781D01*
X42857Y-41781D01*
X42593Y-41890D01*
X42391Y-42092D01*
X42281Y-42356D01*
X42281Y-42642D01*
X42390Y-42906D01*
X42483Y-42999D01*
X42477Y-43006D01*
X42454Y-43006D01*
X41818Y-42370D01*
X41818Y-42207D01*
X41709Y-41943D01*
X41507Y-41741D01*
X41243Y-41631D01*
X40957Y-41631D01*
X40693Y-41740D01*
X40600Y-41833D01*
X40593Y-41827D01*
X40593Y-40850D01*
X40651Y-40826D01*
X40691Y-40785D01*
X40951Y-40893D01*
X41247Y-40893D01*
X41520Y-40780D01*
X41730Y-40571D01*
X41843Y-40298D01*
X41843Y-40002D01*
X41730Y-39729D01*
X41593Y-39591D01*
X41593Y-39557D01*
X41730Y-39421D01*
X41843Y-39148D01*
X41843Y-38852D01*
X41730Y-38579D01*
X41521Y-38369D01*
X41248Y-38256D01*
X40952Y-38256D01*
X40691Y-38364D01*
X40651Y-38324D01*
X40488Y-38256D01*
X40486Y-38256D01*
X40449Y-38200D01*
X40190Y-37942D01*
X40190Y-37393D01*
X40357Y-37393D01*
X40649Y-37273D01*
X40828Y-37093D01*
X43345Y-37093D01*
X45031Y-38779D01*
X45031Y-38942D01*
X45140Y-39206D01*
X45342Y-39408D01*
X45606Y-39518D01*
X45892Y-39518D01*
X46156Y-39409D01*
X46358Y-39207D01*
X46468Y-38943D01*
X46468Y-38657D01*
X46359Y-38393D01*
X46157Y-38191D01*
X45893Y-38081D01*
X45729Y-38081D01*
X45441Y-37793D01*
X48537Y-37793D01*
X48701Y-37726D01*
X48825Y-37601D01*
X48893Y-37438D01*
X48893Y-37262D01*
X48893Y-35914D01*
X49755Y-36776D01*
X49681Y-36956D01*
X49681Y-37242D01*
X49790Y-37506D01*
X49992Y-37708D01*
X50256Y-37818D01*
X50420Y-37818D01*
X50706Y-38104D01*
X50706Y-38277D01*
X50700Y-38283D01*
X50607Y-38191D01*
X50343Y-38081D01*
X50179Y-38081D01*
X50103Y-38005D01*
X49943Y-37898D01*
X49754Y-37860D01*
X48568Y-37860D01*
X48379Y-37898D01*
X48219Y-38005D01*
X48219Y-38005D01*
X46645Y-39579D01*
X44827Y-39579D01*
X44443Y-39195D01*
X44443Y-39002D01*
X44330Y-38729D01*
X44121Y-38519D01*
X43848Y-38406D01*
X43552Y-38406D01*
X43279Y-38519D01*
X43069Y-38728D01*
X42956Y-39001D01*
X42956Y-39297D01*
X43064Y-39558D01*
X43024Y-39598D01*
X42956Y-39761D01*
X42956Y-39937D01*
X42956Y-40537D01*
X43023Y-40701D01*
X43148Y-40825D01*
X43311Y-40893D01*
X43487Y-40893D01*
X43797Y-40893D01*
X43800Y-40899D01*
X45131Y-42229D01*
X45131Y-42392D01*
X45240Y-42656D01*
X45442Y-42858D01*
X45706Y-42968D01*
X45992Y-42968D01*
X46256Y-42859D01*
X46349Y-42766D01*
X46442Y-42858D01*
X46706Y-42968D01*
X46870Y-42968D01*
X46926Y-43024D01*
X46926Y-43024D01*
X47022Y-43088D01*
X47086Y-43131D01*
X47086Y-43131D01*
X47275Y-43168D01*
X48774Y-43168D01*
X48963Y-43131D01*
X49123Y-43024D01*
X49179Y-42968D01*
X49342Y-42968D01*
X49606Y-42859D01*
X49808Y-42657D01*
X49918Y-42393D01*
X49918Y-42107D01*
X49809Y-41843D01*
X49607Y-41641D01*
X49343Y-41531D01*
X49057Y-41531D01*
X48793Y-41640D01*
X48700Y-41733D01*
X48693Y-41727D01*
X48693Y-41518D01*
X48892Y-41518D01*
X49156Y-41409D01*
X49358Y-41207D01*
X49464Y-40952D01*
X50226Y-40952D01*
X50226Y-41043D01*
X50336Y-41309D01*
X50539Y-41513D01*
X50805Y-41623D01*
X51093Y-41623D01*
X51359Y-41513D01*
X51563Y-41310D01*
X51673Y-41044D01*
X51673Y-40952D01*
X52015Y-40952D01*
X52015Y-41092D01*
X52052Y-41281D01*
X52159Y-41441D01*
X53443Y-42724D01*
X53603Y-42831D01*
X53792Y-42869D01*
X56035Y-42869D01*
X56223Y-42831D01*
X56384Y-42724D01*
X56518Y-42590D01*
X56706Y-42668D01*
X56870Y-42668D01*
X57030Y-42828D01*
X57030Y-43875D01*
X56936Y-43781D01*
X56936Y-43738D01*
X56842Y-43510D01*
X56668Y-43336D01*
X56441Y-43242D01*
X56195Y-43241D01*
X55967Y-43335D01*
X55793Y-43509D01*
X55699Y-43737D01*
X55698Y-43983D01*
X55792Y-44210D01*
X55913Y-44331D01*
X55700Y-44288D01*
X55411Y-44346D01*
X55215Y-44477D01*
X55038Y-44300D01*
X54878Y-44193D01*
X54689Y-44156D01*
X53313Y-44156D01*
X53312Y-44156D01*
X53123Y-44193D01*
X52963Y-44300D01*
X52904Y-44359D01*
X52800Y-44338D01*
X52549Y-44388D01*
X52458Y-44298D01*
X52298Y-44191D01*
X52109Y-44153D01*
X51609Y-44153D01*
X51420Y-44191D01*
X51356Y-44233D01*
X51260Y-44298D01*
X51260Y-44298D01*
X51132Y-44425D01*
X51088Y-44396D01*
X50800Y-44338D01*
X50511Y-44396D01*
X50267Y-44559D01*
X50103Y-44804D01*
X50046Y-45092D01*
X50046Y-45407D01*
X50103Y-45695D01*
X50267Y-45940D01*
X50511Y-46103D01*
X50800Y-46161D01*
X51088Y-46103D01*
X51300Y-45962D01*
X51511Y-46103D01*
X51800Y-46161D01*
X52088Y-46103D01*
X52300Y-45962D01*
X52511Y-46103D01*
X52800Y-46161D01*
X53088Y-46103D01*
X53195Y-46032D01*
X53238Y-46075D01*
X53401Y-46143D01*
X53577Y-46143D01*
X54197Y-46143D01*
X54361Y-46076D01*
X54374Y-46062D01*
X55361Y-47049D01*
X55521Y-47156D01*
X55710Y-47193D01*
X62932Y-47193D01*
X62932Y-47193D01*
G37*
G54D23*
X62932Y-47193D02*
X62857Y-47243D01*
X62777Y-47324D01*
X62600Y-47288D01*
X62311Y-47346D01*
X62100Y-47487D01*
X61888Y-47346D01*
X61600Y-47288D01*
X61311Y-47346D01*
X61100Y-47487D01*
X60888Y-47346D01*
X60600Y-47288D01*
X60311Y-47346D01*
X60067Y-47509D01*
X59903Y-47754D01*
X59846Y-48042D01*
X59846Y-48187D01*
X59509Y-47850D01*
X59401Y-47778D01*
X59396Y-47754D01*
X59232Y-47509D01*
X58988Y-47346D01*
X58700Y-47288D01*
X58411Y-47346D01*
X58200Y-47487D01*
X57988Y-47346D01*
X57700Y-47288D01*
X57411Y-47346D01*
X57200Y-47487D01*
X56988Y-47346D01*
X56700Y-47288D01*
X56411Y-47346D01*
X56200Y-47487D01*
X55988Y-47346D01*
X55700Y-47288D01*
X55411Y-47346D01*
X55167Y-47509D01*
X55003Y-47754D01*
X54946Y-48042D01*
X54946Y-48237D01*
X54609Y-47900D01*
X54501Y-47828D01*
X54496Y-47804D01*
X54332Y-47559D01*
X54088Y-47396D01*
X53800Y-47338D01*
X53511Y-47396D01*
X53300Y-47537D01*
X53088Y-47396D01*
X52800Y-47338D01*
X52511Y-47396D01*
X52300Y-47537D01*
X52088Y-47396D01*
X51800Y-47338D01*
X51511Y-47396D01*
X51300Y-47537D01*
X51088Y-47396D01*
X50800Y-47338D01*
X50511Y-47396D01*
X50267Y-47559D01*
X50103Y-47804D01*
X50046Y-48092D01*
X50046Y-48356D01*
X49679Y-48356D01*
X49603Y-48280D01*
X49603Y-45562D01*
X49603Y-44662D01*
X49536Y-44498D01*
X49411Y-44374D01*
X49248Y-44306D01*
X49072Y-44306D01*
X48452Y-44306D01*
X48288Y-44373D01*
X48245Y-44417D01*
X48138Y-44346D01*
X47850Y-44288D01*
X47561Y-44346D01*
X47517Y-44375D01*
X47377Y-44235D01*
X47216Y-44128D01*
X47027Y-44091D01*
X46666Y-44091D01*
X46477Y-44128D01*
X46317Y-44235D01*
X46316Y-44237D01*
X46179Y-44373D01*
X46138Y-44346D01*
X45850Y-44288D01*
X45561Y-44346D01*
X45317Y-44509D01*
X45153Y-44754D01*
X45096Y-45042D01*
X45096Y-45357D01*
X45153Y-45645D01*
X45317Y-45890D01*
X45561Y-46053D01*
X45850Y-46111D01*
X46138Y-46053D01*
X46350Y-45912D01*
X46561Y-46053D01*
X46850Y-46111D01*
X47138Y-46053D01*
X47350Y-45912D01*
X47561Y-46053D01*
X47850Y-46111D01*
X48138Y-46053D01*
X48245Y-45982D01*
X48288Y-46025D01*
X48451Y-46093D01*
X48627Y-46093D01*
X49247Y-46093D01*
X49411Y-46026D01*
X49535Y-45901D01*
X49603Y-45738D01*
X49603Y-45562D01*
X49603Y-48280D01*
X49603Y-48280D01*
X49603Y-48042D01*
X49546Y-47754D01*
X49382Y-47509D01*
X49138Y-47346D01*
X48850Y-47288D01*
X48561Y-47346D01*
X48350Y-47487D01*
X48138Y-47346D01*
X47850Y-47288D01*
X47561Y-47346D01*
X47350Y-47487D01*
X47138Y-47346D01*
X46850Y-47288D01*
X46672Y-47324D01*
X44493Y-45145D01*
X44493Y-43164D01*
X44526Y-43151D01*
X44650Y-43026D01*
X44718Y-42863D01*
X44718Y-42687D01*
X44718Y-42137D01*
X44651Y-41973D01*
X44526Y-41849D01*
X44363Y-41781D01*
X44187Y-41781D01*
X43637Y-41781D01*
X43473Y-41848D01*
X43419Y-41902D01*
X43407Y-41891D01*
X43143Y-41781D01*
X42857Y-41781D01*
X42593Y-41890D01*
X42391Y-42092D01*
X42281Y-42356D01*
X42281Y-42642D01*
X42390Y-42906D01*
X42483Y-42999D01*
X42477Y-43006D01*
X42454Y-43006D01*
X41818Y-42370D01*
X41818Y-42207D01*
X41709Y-41943D01*
X41507Y-41741D01*
X41243Y-41631D01*
X40957Y-41631D01*
X40693Y-41740D01*
X40600Y-41833D01*
X40593Y-41827D01*
X40593Y-40850D01*
X40651Y-40826D01*
X40691Y-40785D01*
X40951Y-40893D01*
X41247Y-40893D01*
X41520Y-40780D01*
X41730Y-40571D01*
X41843Y-40298D01*
X41843Y-40002D01*
X41730Y-39729D01*
X41593Y-39591D01*
X41593Y-39557D01*
X41730Y-39421D01*
X41843Y-39148D01*
X41843Y-38852D01*
X41730Y-38579D01*
X41521Y-38369D01*
X41248Y-38256D01*
X40952Y-38256D01*
X40691Y-38364D01*
X40651Y-38324D01*
X40488Y-38256D01*
X40486Y-38256D01*
X40449Y-38200D01*
X40190Y-37942D01*
X40190Y-37393D01*
X40357Y-37393D01*
X40649Y-37273D01*
X40828Y-37093D01*
X43345Y-37093D01*
X45031Y-38779D01*
X45031Y-38942D01*
X45140Y-39206D01*
X45342Y-39408D01*
X45606Y-39518D01*
X45892Y-39518D01*
X46156Y-39409D01*
X46358Y-39207D01*
X46468Y-38943D01*
X46468Y-38657D01*
X46359Y-38393D01*
X46157Y-38191D01*
X45893Y-38081D01*
X45729Y-38081D01*
X45441Y-37793D01*
X48537Y-37793D01*
X48701Y-37726D01*
X48825Y-37601D01*
X48893Y-37438D01*
X48893Y-37262D01*
X48893Y-35914D01*
X49755Y-36776D01*
X49681Y-36956D01*
X49681Y-37242D01*
X49790Y-37506D01*
X49992Y-37708D01*
X50256Y-37818D01*
X50420Y-37818D01*
X50706Y-38104D01*
X50706Y-38277D01*
X50700Y-38283D01*
X50607Y-38191D01*
X50343Y-38081D01*
X50179Y-38081D01*
X50103Y-38005D01*
X49943Y-37898D01*
X49754Y-37860D01*
X48568Y-37860D01*
X48379Y-37898D01*
X48219Y-38005D01*
X48219Y-38005D01*
X46645Y-39579D01*
X44827Y-39579D01*
X44443Y-39195D01*
X44443Y-39002D01*
X44330Y-38729D01*
X44121Y-38519D01*
X43848Y-38406D01*
X43552Y-38406D01*
X43279Y-38519D01*
X43069Y-38728D01*
X42956Y-39001D01*
X42956Y-39297D01*
X43064Y-39558D01*
X43024Y-39598D01*
X42956Y-39761D01*
X42956Y-39937D01*
X42956Y-40537D01*
X43023Y-40701D01*
X43148Y-40825D01*
X43311Y-40893D01*
X43487Y-40893D01*
X43797Y-40893D01*
X43800Y-40899D01*
X45131Y-42229D01*
X45131Y-42392D01*
X45240Y-42656D01*
X45442Y-42858D01*
X45706Y-42968D01*
X45992Y-42968D01*
X46256Y-42859D01*
X46349Y-42766D01*
X46442Y-42858D01*
X46706Y-42968D01*
X46870Y-42968D01*
X46926Y-43024D01*
X46926Y-43024D01*
X47022Y-43088D01*
X47086Y-43131D01*
X47086Y-43131D01*
X47275Y-43168D01*
X48774Y-43168D01*
X48963Y-43131D01*
X49123Y-43024D01*
X49179Y-42968D01*
X49342Y-42968D01*
X49606Y-42859D01*
X49808Y-42657D01*
X49918Y-42393D01*
X49918Y-42107D01*
X49809Y-41843D01*
X49607Y-41641D01*
X49343Y-41531D01*
X49057Y-41531D01*
X48793Y-41640D01*
X48700Y-41733D01*
X48693Y-41727D01*
X48693Y-41518D01*
X48892Y-41518D01*
X49156Y-41409D01*
X49358Y-41207D01*
X49464Y-40952D01*
X50226Y-40952D01*
X50226Y-41043D01*
X50336Y-41309D01*
X50539Y-41513D01*
X50805Y-41623D01*
X51093Y-41623D01*
X51359Y-41513D01*
X51563Y-41310D01*
X51673Y-41044D01*
X51673Y-40952D01*
X52015Y-40952D01*
X52015Y-41092D01*
X52052Y-41281D01*
X52159Y-41441D01*
X53443Y-42724D01*
X53603Y-42831D01*
X53792Y-42869D01*
X56035Y-42869D01*
X56223Y-42831D01*
X56384Y-42724D01*
X56518Y-42590D01*
X56706Y-42668D01*
X56870Y-42668D01*
X57030Y-42828D01*
X57030Y-43875D01*
X56936Y-43781D01*
X56936Y-43738D01*
X56842Y-43510D01*
X56668Y-43336D01*
X56441Y-43242D01*
X56195Y-43241D01*
X55967Y-43335D01*
X55793Y-43509D01*
X55699Y-43737D01*
X55698Y-43983D01*
X55792Y-44210D01*
X55913Y-44331D01*
X55700Y-44288D01*
X55411Y-44346D01*
X55215Y-44477D01*
X55038Y-44300D01*
X54878Y-44193D01*
X54689Y-44156D01*
X53313Y-44156D01*
X53312Y-44156D01*
X53123Y-44193D01*
X52963Y-44300D01*
X52904Y-44359D01*
X52800Y-44338D01*
X52549Y-44388D01*
X52458Y-44298D01*
X52298Y-44191D01*
X52109Y-44153D01*
X51609Y-44153D01*
X51420Y-44191D01*
X51356Y-44233D01*
X51260Y-44298D01*
X51260Y-44298D01*
X51132Y-44425D01*
X51088Y-44396D01*
X50800Y-44338D01*
X50511Y-44396D01*
X50267Y-44559D01*
X50103Y-44804D01*
X50046Y-45092D01*
X50046Y-45407D01*
X50103Y-45695D01*
X50267Y-45940D01*
X50511Y-46103D01*
X50800Y-46161D01*
X51088Y-46103D01*
X51300Y-45962D01*
X51511Y-46103D01*
X51800Y-46161D01*
X52088Y-46103D01*
X52300Y-45962D01*
X52511Y-46103D01*
X52800Y-46161D01*
X53088Y-46103D01*
X53195Y-46032D01*
X53238Y-46075D01*
X53401Y-46143D01*
X53577Y-46143D01*
X54197Y-46143D01*
X54361Y-46076D01*
X54374Y-46062D01*
X55361Y-47049D01*
X55521Y-47156D01*
X55710Y-47193D01*
X62932Y-47193D01*
G54D10*
G36*
X65046Y-40797D02*
X65000Y-40788D01*
X64711Y-40846D01*
X64500Y-40987D01*
X64288Y-40846D01*
X64000Y-40788D01*
X63711Y-40846D01*
X63500Y-40987D01*
X63288Y-40846D01*
X63000Y-40788D01*
X62711Y-40846D01*
X62500Y-40987D01*
X62288Y-40846D01*
X62000Y-40788D01*
X61711Y-40846D01*
X61500Y-40987D01*
X61288Y-40846D01*
X61000Y-40788D01*
X60711Y-40846D01*
X60604Y-40917D01*
X60561Y-40874D01*
X60398Y-40806D01*
X60222Y-40806D01*
X59602Y-40806D01*
X59438Y-40873D01*
X59314Y-40998D01*
X59304Y-41020D01*
X57129Y-41020D01*
X57156Y-41009D01*
X57358Y-40807D01*
X57468Y-40543D01*
X57468Y-40257D01*
X57363Y-40003D01*
X57363Y-39813D01*
X61190Y-39813D01*
X61379Y-39776D01*
X61462Y-39720D01*
X61537Y-39770D01*
X61726Y-39808D01*
X61726Y-39808D01*
X65046Y-39808D01*
X65046Y-40797D01*
X65046Y-40797D01*
G37*
G54D23*
X65046Y-40797D02*
X65000Y-40788D01*
X64711Y-40846D01*
X64500Y-40987D01*
X64288Y-40846D01*
X64000Y-40788D01*
X63711Y-40846D01*
X63500Y-40987D01*
X63288Y-40846D01*
X63000Y-40788D01*
X62711Y-40846D01*
X62500Y-40987D01*
X62288Y-40846D01*
X62000Y-40788D01*
X61711Y-40846D01*
X61500Y-40987D01*
X61288Y-40846D01*
X61000Y-40788D01*
X60711Y-40846D01*
X60604Y-40917D01*
X60561Y-40874D01*
X60398Y-40806D01*
X60222Y-40806D01*
X59602Y-40806D01*
X59438Y-40873D01*
X59314Y-40998D01*
X59304Y-41020D01*
X57129Y-41020D01*
X57156Y-41009D01*
X57358Y-40807D01*
X57468Y-40543D01*
X57468Y-40257D01*
X57363Y-40003D01*
X57363Y-39813D01*
X61190Y-39813D01*
X61379Y-39776D01*
X61462Y-39720D01*
X61537Y-39770D01*
X61726Y-39808D01*
X61726Y-39808D01*
X65046Y-39808D01*
X65046Y-40797D01*
G54D10*
G36*
X65268Y-37842D02*
X65000Y-37788D01*
X64711Y-37846D01*
X64500Y-37987D01*
X64288Y-37846D01*
X64000Y-37788D01*
X63711Y-37846D01*
X63500Y-37987D01*
X63288Y-37846D01*
X63000Y-37788D01*
X62711Y-37846D01*
X62676Y-37869D01*
X62051Y-37244D01*
X61971Y-37053D01*
X61850Y-36931D01*
X62000Y-36961D01*
X62288Y-36903D01*
X62500Y-36762D01*
X62711Y-36903D01*
X63000Y-36961D01*
X63288Y-36903D01*
X63500Y-36762D01*
X63711Y-36903D01*
X64000Y-36961D01*
X64288Y-36903D01*
X64500Y-36762D01*
X64711Y-36903D01*
X64966Y-36954D01*
X64966Y-37335D01*
X65004Y-37524D01*
X65111Y-37684D01*
X65268Y-37842D01*
X65268Y-37842D01*
G37*
G54D23*
X65268Y-37842D02*
X65000Y-37788D01*
X64711Y-37846D01*
X64500Y-37987D01*
X64288Y-37846D01*
X64000Y-37788D01*
X63711Y-37846D01*
X63500Y-37987D01*
X63288Y-37846D01*
X63000Y-37788D01*
X62711Y-37846D01*
X62676Y-37869D01*
X62051Y-37244D01*
X61971Y-37053D01*
X61850Y-36931D01*
X62000Y-36961D01*
X62288Y-36903D01*
X62500Y-36762D01*
X62711Y-36903D01*
X63000Y-36961D01*
X63288Y-36903D01*
X63500Y-36762D01*
X63711Y-36903D01*
X64000Y-36961D01*
X64288Y-36903D01*
X64500Y-36762D01*
X64711Y-36903D01*
X64966Y-36954D01*
X64966Y-37335D01*
X65004Y-37524D01*
X65111Y-37684D01*
X65268Y-37842D01*
G54D10*
G36*
X65956Y-44433D02*
X65917Y-44459D01*
X65753Y-44704D01*
X65696Y-44992D01*
X65696Y-45263D01*
X64822Y-45263D01*
X64409Y-44850D01*
X64353Y-44813D01*
X64353Y-44662D01*
X64286Y-44498D01*
X64161Y-44374D01*
X63998Y-44306D01*
X63822Y-44306D01*
X63202Y-44306D01*
X63038Y-44373D01*
X62995Y-44417D01*
X62888Y-44346D01*
X62600Y-44288D01*
X62311Y-44346D01*
X62267Y-44375D01*
X62138Y-44246D01*
X61977Y-44139D01*
X61788Y-44102D01*
X61405Y-44102D01*
X61216Y-44139D01*
X61056Y-44246D01*
X60929Y-44373D01*
X60888Y-44346D01*
X60600Y-44288D01*
X60311Y-44346D01*
X60115Y-44477D01*
X59888Y-44250D01*
X59728Y-44143D01*
X59539Y-44105D01*
X58018Y-44105D01*
X58018Y-42624D01*
X58018Y-42624D01*
X58018Y-42624D01*
X58010Y-42586D01*
X57980Y-42435D01*
X57980Y-42435D01*
X57873Y-42275D01*
X57873Y-42275D01*
X57606Y-42008D01*
X59149Y-42008D01*
X59190Y-42049D01*
X59190Y-42049D01*
X59246Y-42086D01*
X59246Y-42237D01*
X59313Y-42401D01*
X59438Y-42525D01*
X59601Y-42593D01*
X59777Y-42593D01*
X60397Y-42593D01*
X60561Y-42526D01*
X60604Y-42482D01*
X60711Y-42553D01*
X61000Y-42611D01*
X61288Y-42553D01*
X61500Y-42412D01*
X61711Y-42553D01*
X62000Y-42611D01*
X62288Y-42553D01*
X62500Y-42412D01*
X62711Y-42553D01*
X63000Y-42611D01*
X63288Y-42553D01*
X63500Y-42412D01*
X63711Y-42553D01*
X64000Y-42611D01*
X64288Y-42553D01*
X64500Y-42412D01*
X64711Y-42553D01*
X65000Y-42611D01*
X65288Y-42553D01*
X65316Y-42535D01*
X65434Y-42653D01*
X65594Y-42760D01*
X65783Y-42797D01*
X65956Y-42797D01*
X65956Y-44433D01*
X65956Y-44433D01*
G37*
G54D23*
X65956Y-44433D02*
X65917Y-44459D01*
X65753Y-44704D01*
X65696Y-44992D01*
X65696Y-45263D01*
X64822Y-45263D01*
X64409Y-44850D01*
X64353Y-44813D01*
X64353Y-44662D01*
X64286Y-44498D01*
X64161Y-44374D01*
X63998Y-44306D01*
X63822Y-44306D01*
X63202Y-44306D01*
X63038Y-44373D01*
X62995Y-44417D01*
X62888Y-44346D01*
X62600Y-44288D01*
X62311Y-44346D01*
X62267Y-44375D01*
X62138Y-44246D01*
X61977Y-44139D01*
X61788Y-44102D01*
X61405Y-44102D01*
X61216Y-44139D01*
X61056Y-44246D01*
X60929Y-44373D01*
X60888Y-44346D01*
X60600Y-44288D01*
X60311Y-44346D01*
X60115Y-44477D01*
X59888Y-44250D01*
X59728Y-44143D01*
X59539Y-44105D01*
X58018Y-44105D01*
X58018Y-42624D01*
X58018Y-42624D01*
X58018Y-42624D01*
X58010Y-42586D01*
X57980Y-42435D01*
X57980Y-42435D01*
X57873Y-42275D01*
X57873Y-42275D01*
X57606Y-42008D01*
X59149Y-42008D01*
X59190Y-42049D01*
X59190Y-42049D01*
X59246Y-42086D01*
X59246Y-42237D01*
X59313Y-42401D01*
X59438Y-42525D01*
X59601Y-42593D01*
X59777Y-42593D01*
X60397Y-42593D01*
X60561Y-42526D01*
X60604Y-42482D01*
X60711Y-42553D01*
X61000Y-42611D01*
X61288Y-42553D01*
X61500Y-42412D01*
X61711Y-42553D01*
X62000Y-42611D01*
X62288Y-42553D01*
X62500Y-42412D01*
X62711Y-42553D01*
X63000Y-42611D01*
X63288Y-42553D01*
X63500Y-42412D01*
X63711Y-42553D01*
X64000Y-42611D01*
X64288Y-42553D01*
X64500Y-42412D01*
X64711Y-42553D01*
X65000Y-42611D01*
X65288Y-42553D01*
X65316Y-42535D01*
X65434Y-42653D01*
X65594Y-42760D01*
X65783Y-42797D01*
X65956Y-42797D01*
X65956Y-44433D01*
G54D10*
G36*
X66330Y-40671D02*
X66177Y-40824D01*
X66033Y-40795D01*
X66033Y-39604D01*
X66288Y-39553D01*
X66330Y-39525D01*
X66330Y-40671D01*
X66330Y-40671D01*
G37*
G54D23*
X66330Y-40671D02*
X66177Y-40824D01*
X66033Y-40795D01*
X66033Y-39604D01*
X66288Y-39553D01*
X66330Y-39525D01*
X66330Y-40671D01*
G54D10*
G36*
X67321Y-37868D02*
X67288Y-37846D01*
X67000Y-37788D01*
X66711Y-37846D01*
X66686Y-37863D01*
X65953Y-37131D01*
X65953Y-36952D01*
X66000Y-36961D01*
X66288Y-36903D01*
X66329Y-36876D01*
X67321Y-37868D01*
X67321Y-37868D01*
G37*
G54D23*
X67321Y-37868D02*
X67288Y-37846D01*
X67000Y-37788D01*
X66711Y-37846D01*
X66686Y-37863D01*
X65953Y-37131D01*
X65953Y-36952D01*
X66000Y-36961D01*
X66288Y-36903D01*
X66329Y-36876D01*
X67321Y-37868D01*
G54D10*
G36*
X67738Y-47296D02*
X67450Y-47238D01*
X67161Y-47296D01*
X66950Y-47437D01*
X66738Y-47296D01*
X66450Y-47238D01*
X66161Y-47296D01*
X65917Y-47459D01*
X65753Y-47704D01*
X65704Y-47951D01*
X64290Y-46538D01*
X66980Y-46538D01*
X67738Y-47296D01*
X67738Y-47296D01*
G37*
G54D23*
X67738Y-47296D02*
X67450Y-47238D01*
X67161Y-47296D01*
X66950Y-47437D01*
X66738Y-47296D01*
X66450Y-47238D01*
X66161Y-47296D01*
X65917Y-47459D01*
X65753Y-47704D01*
X65704Y-47951D01*
X64290Y-46538D01*
X66980Y-46538D01*
X67738Y-47296D01*
G54D10*
G36*
X68416Y-46578D02*
X67963Y-46124D01*
X67990Y-46106D01*
X68120Y-45976D01*
X68161Y-46003D01*
X68416Y-46054D01*
X68416Y-46578D01*
X68416Y-46578D01*
G37*
G54D23*
X68416Y-46578D02*
X67963Y-46124D01*
X67990Y-46106D01*
X68120Y-45976D01*
X68161Y-46003D01*
X68416Y-46054D01*
X68416Y-46578D01*
G54D10*
G36*
X68555Y-42449D02*
X68454Y-42600D01*
X68416Y-42789D01*
X68416Y-44245D01*
X68161Y-44296D01*
X67950Y-44437D01*
X67738Y-44296D01*
X67450Y-44238D01*
X67161Y-44296D01*
X66950Y-44437D01*
X66943Y-44433D01*
X66943Y-42600D01*
X67000Y-42611D01*
X67288Y-42553D01*
X67500Y-42412D01*
X67711Y-42553D01*
X68000Y-42611D01*
X68288Y-42553D01*
X68500Y-42412D01*
X68555Y-42449D01*
X68555Y-42449D01*
G37*
G54D23*
X68555Y-42449D02*
X68454Y-42600D01*
X68416Y-42789D01*
X68416Y-44245D01*
X68161Y-44296D01*
X67950Y-44437D01*
X67738Y-44296D01*
X67450Y-44238D01*
X67161Y-44296D01*
X66950Y-44437D01*
X66943Y-44433D01*
X66943Y-42600D01*
X67000Y-42611D01*
X67288Y-42553D01*
X67500Y-42412D01*
X67711Y-42553D01*
X68000Y-42611D01*
X68288Y-42553D01*
X68500Y-42412D01*
X68555Y-42449D01*
G54D10*
G36*
X69416Y-44245D02*
X69403Y-44247D01*
X69403Y-42994D01*
X69416Y-42981D01*
X69416Y-44245D01*
X69416Y-44245D01*
G37*
G54D23*
X69416Y-44245D02*
X69403Y-44247D01*
X69403Y-42994D01*
X69416Y-42981D01*
X69416Y-44245D01*
G54D10*
G36*
X69416Y-47245D02*
X69403Y-47247D01*
X69403Y-46052D01*
X69416Y-46054D01*
X69416Y-47245D01*
X69416Y-47245D01*
G37*
G54D23*
X69416Y-47245D02*
X69403Y-47247D01*
X69403Y-46052D01*
X69416Y-46054D01*
X69416Y-47245D01*
G54D10*
G36*
X69656Y-33142D02*
X69656Y-33143D01*
X69064Y-33143D01*
X69065Y-33142D01*
X69656Y-33142D01*
X69656Y-33142D01*
G37*
G54D23*
X69656Y-33142D02*
X69656Y-33143D01*
X69064Y-33143D01*
X69065Y-33142D01*
X69656Y-33142D01*
G54D10*
G36*
X69973Y-34828D02*
X69245Y-35556D01*
X68664Y-35556D01*
X68532Y-35359D01*
X68288Y-35196D01*
X68000Y-35138D01*
X67711Y-35196D01*
X67500Y-35337D01*
X67288Y-35196D01*
X67000Y-35138D01*
X66711Y-35196D01*
X66500Y-35337D01*
X66288Y-35196D01*
X66000Y-35138D01*
X65711Y-35196D01*
X65500Y-35337D01*
X65288Y-35196D01*
X65000Y-35138D01*
X64711Y-35196D01*
X64500Y-35337D01*
X64288Y-35196D01*
X64000Y-35138D01*
X63711Y-35196D01*
X63500Y-35337D01*
X63288Y-35196D01*
X63000Y-35138D01*
X62711Y-35196D01*
X62500Y-35337D01*
X62288Y-35196D01*
X62000Y-35138D01*
X61711Y-35196D01*
X61604Y-35267D01*
X61561Y-35224D01*
X61398Y-35156D01*
X61222Y-35156D01*
X60602Y-35156D01*
X60438Y-35223D01*
X60314Y-35348D01*
X60246Y-35511D01*
X60246Y-35687D01*
X60246Y-36440D01*
X60156Y-36350D01*
X59996Y-36243D01*
X59807Y-36206D01*
X59064Y-36206D01*
X59051Y-36173D01*
X58926Y-36049D01*
X58893Y-36035D01*
X58893Y-34464D01*
X58926Y-34451D01*
X59050Y-34326D01*
X59105Y-34194D01*
X59174Y-34149D01*
X60246Y-33077D01*
X60246Y-33207D01*
X60303Y-33495D01*
X60467Y-33740D01*
X60711Y-33903D01*
X61000Y-33961D01*
X61288Y-33903D01*
X61500Y-33762D01*
X61711Y-33903D01*
X62000Y-33961D01*
X62288Y-33903D01*
X62500Y-33762D01*
X62711Y-33903D01*
X63000Y-33961D01*
X63288Y-33903D01*
X63500Y-33762D01*
X63711Y-33903D01*
X64000Y-33961D01*
X64288Y-33903D01*
X64329Y-33876D01*
X64477Y-34024D01*
X64637Y-34131D01*
X64826Y-34168D01*
X64826Y-34168D01*
X68974Y-34168D01*
X68974Y-34168D01*
X68975Y-34168D01*
X69069Y-34149D01*
X69162Y-34131D01*
X69656Y-34131D01*
X69656Y-34487D01*
X69723Y-34651D01*
X69848Y-34775D01*
X69973Y-34828D01*
X69973Y-34828D01*
G37*
G54D23*
X69973Y-34828D02*
X69245Y-35556D01*
X68664Y-35556D01*
X68532Y-35359D01*
X68288Y-35196D01*
X68000Y-35138D01*
X67711Y-35196D01*
X67500Y-35337D01*
X67288Y-35196D01*
X67000Y-35138D01*
X66711Y-35196D01*
X66500Y-35337D01*
X66288Y-35196D01*
X66000Y-35138D01*
X65711Y-35196D01*
X65500Y-35337D01*
X65288Y-35196D01*
X65000Y-35138D01*
X64711Y-35196D01*
X64500Y-35337D01*
X64288Y-35196D01*
X64000Y-35138D01*
X63711Y-35196D01*
X63500Y-35337D01*
X63288Y-35196D01*
X63000Y-35138D01*
X62711Y-35196D01*
X62500Y-35337D01*
X62288Y-35196D01*
X62000Y-35138D01*
X61711Y-35196D01*
X61604Y-35267D01*
X61561Y-35224D01*
X61398Y-35156D01*
X61222Y-35156D01*
X60602Y-35156D01*
X60438Y-35223D01*
X60314Y-35348D01*
X60246Y-35511D01*
X60246Y-35687D01*
X60246Y-36440D01*
X60156Y-36350D01*
X59996Y-36243D01*
X59807Y-36206D01*
X59064Y-36206D01*
X59051Y-36173D01*
X58926Y-36049D01*
X58893Y-36035D01*
X58893Y-34464D01*
X58926Y-34451D01*
X59050Y-34326D01*
X59105Y-34194D01*
X59174Y-34149D01*
X60246Y-33077D01*
X60246Y-33207D01*
X60303Y-33495D01*
X60467Y-33740D01*
X60711Y-33903D01*
X61000Y-33961D01*
X61288Y-33903D01*
X61500Y-33762D01*
X61711Y-33903D01*
X62000Y-33961D01*
X62288Y-33903D01*
X62500Y-33762D01*
X62711Y-33903D01*
X63000Y-33961D01*
X63288Y-33903D01*
X63500Y-33762D01*
X63711Y-33903D01*
X64000Y-33961D01*
X64288Y-33903D01*
X64329Y-33876D01*
X64477Y-34024D01*
X64637Y-34131D01*
X64826Y-34168D01*
X64826Y-34168D01*
X68974Y-34168D01*
X68974Y-34168D01*
X68975Y-34168D01*
X69069Y-34149D01*
X69162Y-34131D01*
X69656Y-34131D01*
X69656Y-34487D01*
X69723Y-34651D01*
X69848Y-34775D01*
X69973Y-34828D01*
G54D10*
G36*
X70456Y-44240D02*
X70450Y-44238D01*
X70403Y-44247D01*
X70403Y-42994D01*
X70456Y-42941D01*
X70456Y-44240D01*
X70456Y-44240D01*
G37*
G54D23*
X70456Y-44240D02*
X70450Y-44238D01*
X70403Y-44247D01*
X70403Y-42994D01*
X70456Y-42941D01*
X70456Y-44240D01*
G54D10*
G36*
X71456Y-44240D02*
X71450Y-44238D01*
X71443Y-44240D01*
X71443Y-42954D01*
X71456Y-42941D01*
X71456Y-44240D01*
X71456Y-44240D01*
G37*
G54D23*
X71456Y-44240D02*
X71450Y-44238D01*
X71443Y-44240D01*
X71443Y-42954D01*
X71456Y-42941D01*
X71456Y-44240D01*
G54D10*
G36*
X73416Y-47245D02*
X73161Y-47296D01*
X72950Y-47437D01*
X72738Y-47296D01*
X72450Y-47238D01*
X72161Y-47296D01*
X71950Y-47437D01*
X71738Y-47296D01*
X71450Y-47238D01*
X71378Y-47253D01*
X71437Y-47111D01*
X71437Y-47066D01*
X72299Y-46205D01*
X72401Y-46051D01*
X72450Y-46061D01*
X72738Y-46003D01*
X72845Y-45932D01*
X72888Y-45975D01*
X73051Y-46043D01*
X73227Y-46043D01*
X73416Y-46043D01*
X73416Y-47245D01*
X73416Y-47245D01*
G37*
G54D23*
X73416Y-47245D02*
X73161Y-47296D01*
X72950Y-47437D01*
X72738Y-47296D01*
X72450Y-47238D01*
X72161Y-47296D01*
X71950Y-47437D01*
X71738Y-47296D01*
X71450Y-47238D01*
X71378Y-47253D01*
X71437Y-47111D01*
X71437Y-47066D01*
X72299Y-46205D01*
X72401Y-46051D01*
X72450Y-46061D01*
X72738Y-46003D01*
X72845Y-45932D01*
X72888Y-45975D01*
X73051Y-46043D01*
X73227Y-46043D01*
X73416Y-46043D01*
X73416Y-47245D01*
G54D10*
G36*
X73757Y-39793D02*
X73336Y-40214D01*
X68198Y-40214D01*
X68009Y-40252D01*
X67849Y-40359D01*
X67332Y-40875D01*
X67318Y-40865D01*
X67318Y-39534D01*
X67500Y-39412D01*
X67711Y-39553D01*
X68000Y-39611D01*
X68288Y-39553D01*
X68329Y-39526D01*
X68452Y-39649D01*
X68452Y-39649D01*
X68612Y-39756D01*
X68801Y-39793D01*
X73757Y-39793D01*
X73757Y-39793D01*
G37*
G54D23*
X73757Y-39793D02*
X73336Y-40214D01*
X68198Y-40214D01*
X68009Y-40252D01*
X67849Y-40359D01*
X67332Y-40875D01*
X67318Y-40865D01*
X67318Y-39534D01*
X67500Y-39412D01*
X67711Y-39553D01*
X68000Y-39611D01*
X68288Y-39553D01*
X68329Y-39526D01*
X68452Y-39649D01*
X68452Y-39649D01*
X68612Y-39756D01*
X68801Y-39793D01*
X73757Y-39793D01*
G54D10*
G36*
X75806Y-40792D02*
X75669Y-40928D01*
X75556Y-41201D01*
X75556Y-41497D01*
X75664Y-41758D01*
X75624Y-41798D01*
X75556Y-41961D01*
X75556Y-42137D01*
X75556Y-42737D01*
X75587Y-42814D01*
X74044Y-44357D01*
X74011Y-44324D01*
X73848Y-44256D01*
X73672Y-44256D01*
X73052Y-44256D01*
X72888Y-44323D01*
X72845Y-44367D01*
X72738Y-44296D01*
X72450Y-44238D01*
X72443Y-44240D01*
X72443Y-42954D01*
X72822Y-42575D01*
X73000Y-42611D01*
X73288Y-42553D01*
X73532Y-42390D01*
X73696Y-42145D01*
X73753Y-41857D01*
X73753Y-41542D01*
X73696Y-41254D01*
X73647Y-41181D01*
X73730Y-41164D01*
X73890Y-41057D01*
X75161Y-39786D01*
X75190Y-39856D01*
X75392Y-40058D01*
X75656Y-40168D01*
X75806Y-40168D01*
X75806Y-40792D01*
X75806Y-40792D01*
G37*
G54D23*
X75806Y-40792D02*
X75669Y-40928D01*
X75556Y-41201D01*
X75556Y-41497D01*
X75664Y-41758D01*
X75624Y-41798D01*
X75556Y-41961D01*
X75556Y-42137D01*
X75556Y-42737D01*
X75587Y-42814D01*
X74044Y-44357D01*
X74011Y-44324D01*
X73848Y-44256D01*
X73672Y-44256D01*
X73052Y-44256D01*
X72888Y-44323D01*
X72845Y-44367D01*
X72738Y-44296D01*
X72450Y-44238D01*
X72443Y-44240D01*
X72443Y-42954D01*
X72822Y-42575D01*
X73000Y-42611D01*
X73288Y-42553D01*
X73532Y-42390D01*
X73696Y-42145D01*
X73753Y-41857D01*
X73753Y-41542D01*
X73696Y-41254D01*
X73647Y-41181D01*
X73730Y-41164D01*
X73890Y-41057D01*
X75161Y-39786D01*
X75190Y-39856D01*
X75392Y-40058D01*
X75656Y-40168D01*
X75806Y-40168D01*
X75806Y-40792D01*
G54D10*
G36*
X75892Y-37517D02*
X75318Y-37517D01*
X75318Y-37517D01*
X75129Y-37554D01*
X74968Y-37661D01*
X73824Y-38806D01*
X73753Y-38806D01*
X73753Y-38542D01*
X73696Y-38254D01*
X73532Y-38009D01*
X73288Y-37846D01*
X73000Y-37788D01*
X72711Y-37846D01*
X72500Y-37987D01*
X72288Y-37846D01*
X72000Y-37788D01*
X71711Y-37846D01*
X71500Y-37987D01*
X71288Y-37846D01*
X71000Y-37788D01*
X70711Y-37846D01*
X70667Y-37875D01*
X69384Y-36593D01*
X69310Y-36543D01*
X69450Y-36543D01*
X69638Y-36506D01*
X69799Y-36399D01*
X71354Y-34843D01*
X71547Y-34843D01*
X71820Y-34730D01*
X71899Y-34651D01*
X71978Y-34730D01*
X72251Y-34843D01*
X72547Y-34843D01*
X72820Y-34730D01*
X72899Y-34651D01*
X72978Y-34730D01*
X73251Y-34843D01*
X73547Y-34843D01*
X73820Y-34730D01*
X73899Y-34651D01*
X73978Y-34730D01*
X74251Y-34843D01*
X74547Y-34843D01*
X74820Y-34730D01*
X74899Y-34651D01*
X74978Y-34730D01*
X75251Y-34843D01*
X75547Y-34843D01*
X75820Y-34730D01*
X75892Y-34658D01*
X75892Y-37517D01*
X75892Y-37517D01*
G37*
G54D23*
X75892Y-37517D02*
X75318Y-37517D01*
X75318Y-37517D01*
X75129Y-37554D01*
X74968Y-37661D01*
X73824Y-38806D01*
X73753Y-38806D01*
X73753Y-38542D01*
X73696Y-38254D01*
X73532Y-38009D01*
X73288Y-37846D01*
X73000Y-37788D01*
X72711Y-37846D01*
X72500Y-37987D01*
X72288Y-37846D01*
X72000Y-37788D01*
X71711Y-37846D01*
X71500Y-37987D01*
X71288Y-37846D01*
X71000Y-37788D01*
X70711Y-37846D01*
X70667Y-37875D01*
X69384Y-36593D01*
X69310Y-36543D01*
X69450Y-36543D01*
X69638Y-36506D01*
X69799Y-36399D01*
X71354Y-34843D01*
X71547Y-34843D01*
X71820Y-34730D01*
X71899Y-34651D01*
X71978Y-34730D01*
X72251Y-34843D01*
X72547Y-34843D01*
X72820Y-34730D01*
X72899Y-34651D01*
X72978Y-34730D01*
X73251Y-34843D01*
X73547Y-34843D01*
X73820Y-34730D01*
X73899Y-34651D01*
X73978Y-34730D01*
X74251Y-34843D01*
X74547Y-34843D01*
X74820Y-34730D01*
X74899Y-34651D01*
X74978Y-34730D01*
X75251Y-34843D01*
X75547Y-34843D01*
X75820Y-34730D01*
X75892Y-34658D01*
X75892Y-37517D01*
G54D10*
G36*
X76675Y-32373D02*
X76469Y-32578D01*
X76356Y-32851D01*
X76356Y-33045D01*
X76136Y-33264D01*
X76143Y-33248D01*
X76143Y-32952D01*
X76030Y-32679D01*
X75821Y-32469D01*
X75589Y-32373D01*
X76675Y-32373D01*
X76675Y-32373D01*
G37*
G54D23*
X76675Y-32373D02*
X76469Y-32578D01*
X76356Y-32851D01*
X76356Y-33045D01*
X76136Y-33264D01*
X76143Y-33248D01*
X76143Y-32952D01*
X76030Y-32679D01*
X75821Y-32469D01*
X75589Y-32373D01*
X76675Y-32373D01*
G54D10*
G36*
X76875Y-48626D02*
X76115Y-48626D01*
X76648Y-48093D01*
X76656Y-48093D01*
X76656Y-48247D01*
X76769Y-48520D01*
X76875Y-48626D01*
X76875Y-48626D01*
G37*
G54D23*
X76875Y-48626D02*
X76115Y-48626D01*
X76648Y-48093D01*
X76656Y-48093D01*
X76656Y-48247D01*
X76769Y-48520D01*
X76875Y-48626D01*
G54D10*
G36*
X77748Y-33499D02*
X77699Y-33548D01*
X77651Y-33500D01*
X77700Y-33451D01*
X77748Y-33499D01*
X77748Y-33499D01*
G37*
G54D23*
X77748Y-33499D02*
X77699Y-33548D01*
X77651Y-33500D01*
X77700Y-33451D01*
X77748Y-33499D01*
G54D10*
G36*
X77748Y-34499D02*
X77699Y-34548D01*
X77651Y-34500D01*
X77700Y-34451D01*
X77748Y-34499D01*
X77748Y-34499D01*
G37*
G54D23*
X77748Y-34499D02*
X77699Y-34548D01*
X77651Y-34500D01*
X77700Y-34451D01*
X77748Y-34499D01*
G54D10*
G36*
X77875Y-32373D02*
X77699Y-32548D01*
X77525Y-32373D01*
X77875Y-32373D01*
X77875Y-32373D01*
G37*
G54D23*
X77875Y-32373D02*
X77699Y-32548D01*
X77525Y-32373D01*
X77875Y-32373D01*
G54D10*
G36*
X77883Y-38999D02*
X77791Y-39092D01*
X77750Y-39191D01*
X77709Y-39093D01*
X77616Y-39000D01*
X77708Y-38907D01*
X77749Y-38808D01*
X77790Y-38906D01*
X77883Y-38999D01*
X77883Y-38999D01*
G37*
G54D23*
X77883Y-38999D02*
X77791Y-39092D01*
X77750Y-39191D01*
X77709Y-39093D01*
X77616Y-39000D01*
X77708Y-38907D01*
X77749Y-38808D01*
X77790Y-38906D01*
X77883Y-38999D01*
G54D10*
G36*
X78726Y-32374D02*
X78725Y-32373D01*
X78726Y-32373D01*
X78726Y-32374D01*
X78726Y-32374D01*
G37*
G54D23*
X78726Y-32374D02*
X78725Y-32373D01*
X78726Y-32373D01*
X78726Y-32374D01*
G54D10*
G36*
X78726Y-37857D02*
X78543Y-37781D01*
X78257Y-37781D01*
X77993Y-37890D01*
X77791Y-38092D01*
X77750Y-38191D01*
X77709Y-38093D01*
X77507Y-37891D01*
X77243Y-37781D01*
X76957Y-37781D01*
X76880Y-37813D01*
X76880Y-36743D01*
X76887Y-36743D01*
X77487Y-36743D01*
X77651Y-36676D01*
X77699Y-36627D01*
X77748Y-36675D01*
X77911Y-36743D01*
X78087Y-36743D01*
X78687Y-36743D01*
X78726Y-36727D01*
X78726Y-37857D01*
X78726Y-37857D01*
G37*
G54D23*
X78726Y-37857D02*
X78543Y-37781D01*
X78257Y-37781D01*
X77993Y-37890D01*
X77791Y-38092D01*
X77750Y-38191D01*
X77709Y-38093D01*
X77507Y-37891D01*
X77243Y-37781D01*
X76957Y-37781D01*
X76880Y-37813D01*
X76880Y-36743D01*
X76887Y-36743D01*
X77487Y-36743D01*
X77651Y-36676D01*
X77699Y-36627D01*
X77748Y-36675D01*
X77911Y-36743D01*
X78087Y-36743D01*
X78687Y-36743D01*
X78726Y-36727D01*
X78726Y-37857D01*
G54D10*
G36*
X78726Y-40638D02*
X78648Y-40606D01*
X78352Y-40606D01*
X78079Y-40719D01*
X77949Y-40848D01*
X77893Y-40791D01*
X77893Y-40010D01*
X77992Y-40108D01*
X78256Y-40218D01*
X78542Y-40218D01*
X78726Y-40142D01*
X78726Y-40638D01*
X78726Y-40638D01*
G37*
G54D23*
X78726Y-40638D02*
X78648Y-40606D01*
X78352Y-40606D01*
X78079Y-40719D01*
X77949Y-40848D01*
X77893Y-40791D01*
X77893Y-40010D01*
X77992Y-40108D01*
X78256Y-40218D01*
X78542Y-40218D01*
X78726Y-40142D01*
X78726Y-40638D01*
G54D10*
G36*
X78726Y-44430D02*
X78548Y-44356D01*
X78252Y-44356D01*
X77979Y-44469D01*
X77900Y-44548D01*
X77821Y-44469D01*
X77548Y-44356D01*
X77252Y-44356D01*
X76979Y-44469D01*
X76769Y-44678D01*
X76656Y-44951D01*
X76656Y-45247D01*
X76769Y-45520D01*
X76848Y-45599D01*
X76769Y-45678D01*
X76656Y-45951D01*
X76656Y-46247D01*
X76769Y-46520D01*
X76848Y-46599D01*
X76769Y-46678D01*
X76656Y-46951D01*
X76656Y-47106D01*
X76443Y-47106D01*
X76254Y-47143D01*
X76094Y-47250D01*
X74870Y-48475D01*
X74275Y-48475D01*
X74366Y-48338D01*
X74403Y-48150D01*
X74403Y-45394D01*
X76649Y-43149D01*
X76686Y-43093D01*
X76687Y-43093D01*
X76850Y-43026D01*
X77011Y-43093D01*
X77187Y-43093D01*
X77787Y-43093D01*
X77950Y-43026D01*
X78111Y-43093D01*
X78287Y-43093D01*
X78726Y-43093D01*
X78726Y-44430D01*
X78726Y-44430D01*
G37*
G54D23*
X78726Y-44430D02*
X78548Y-44356D01*
X78252Y-44356D01*
X77979Y-44469D01*
X77900Y-44548D01*
X77821Y-44469D01*
X77548Y-44356D01*
X77252Y-44356D01*
X76979Y-44469D01*
X76769Y-44678D01*
X76656Y-44951D01*
X76656Y-45247D01*
X76769Y-45520D01*
X76848Y-45599D01*
X76769Y-45678D01*
X76656Y-45951D01*
X76656Y-46247D01*
X76769Y-46520D01*
X76848Y-46599D01*
X76769Y-46678D01*
X76656Y-46951D01*
X76656Y-47106D01*
X76443Y-47106D01*
X76254Y-47143D01*
X76094Y-47250D01*
X74870Y-48475D01*
X74275Y-48475D01*
X74366Y-48338D01*
X74403Y-48150D01*
X74403Y-45394D01*
X76649Y-43149D01*
X76686Y-43093D01*
X76687Y-43093D01*
X76850Y-43026D01*
X77011Y-43093D01*
X77187Y-43093D01*
X77787Y-43093D01*
X77950Y-43026D01*
X78111Y-43093D01*
X78287Y-43093D01*
X78726Y-43093D01*
X78726Y-44430D01*
M02*
