G04 (created by PCBNEW (2013-jul-07)-stable) date 2014年08月03日 (週日) 21時34分56秒*
%MOIN*%
G04 Gerber Fmt 3.4, Leading zero omitted, Abs format*
%FSLAX34Y34*%
G01*
G70*
G90*
G04 APERTURE LIST*
%ADD10C,0.00590551*%
%ADD11C,0.015*%
%ADD12C,0.012*%
%ADD13C,0.01*%
%ADD14C,0.008*%
%ADD15C,0.01125*%
%ADD16C,0.006*%
G04 APERTURE END LIST*
G54D10*
G54D11*
X68100Y-43300D02*
X68100Y-43800D01*
X67850Y-43550D02*
X68350Y-43550D01*
X66350Y-40800D02*
X68850Y-40800D01*
X68850Y-40800D02*
X68850Y-42800D01*
X68850Y-42800D02*
X66350Y-42800D01*
X68850Y-40550D02*
X69100Y-40550D01*
X69100Y-40550D02*
X69100Y-43050D01*
X69100Y-43050D02*
X68850Y-43050D01*
X68350Y-40550D02*
X68850Y-40550D01*
X68850Y-43050D02*
X66350Y-43050D01*
X66350Y-40550D02*
X68350Y-40550D01*
X65635Y-41800D02*
G75*
G03X65635Y-41800I-3535J0D01*
G74*
G01*
X66401Y-41800D02*
G75*
G03X66401Y-41800I-4301J0D01*
G74*
G01*
G54D12*
X53820Y-42600D02*
X55800Y-42600D01*
X55800Y-42600D02*
X55800Y-43600D01*
X55800Y-43600D02*
X53800Y-43600D01*
X53800Y-43600D02*
X53800Y-42600D01*
X53800Y-42850D02*
X54050Y-42600D01*
G54D13*
X47900Y-44000D02*
X47900Y-40000D01*
X48900Y-44000D02*
X48900Y-40000D01*
X48900Y-40000D02*
X47900Y-40000D01*
X47900Y-44000D02*
X48900Y-44000D01*
G54D11*
X52700Y-39200D02*
X53200Y-39200D01*
X53200Y-39200D02*
X53200Y-40200D01*
X53200Y-40200D02*
X52700Y-40200D01*
X52700Y-38700D02*
X56700Y-38700D01*
X56700Y-38700D02*
X56700Y-40700D01*
X56700Y-40700D02*
X52700Y-40700D01*
X52700Y-40700D02*
X52700Y-38700D01*
G54D14*
X53250Y-45650D02*
X53250Y-44150D01*
X53250Y-44150D02*
X56500Y-44150D01*
X56500Y-44150D02*
X56500Y-45650D01*
X56500Y-45650D02*
X53250Y-45650D01*
X52500Y-45400D02*
X53250Y-45400D01*
X52500Y-44400D02*
X53250Y-44400D01*
G54D12*
X61628Y-36728D02*
X61714Y-36757D01*
X61742Y-36785D01*
X61771Y-36842D01*
X61771Y-36928D01*
X61742Y-36985D01*
X61714Y-37014D01*
X61657Y-37042D01*
X61428Y-37042D01*
X61428Y-36442D01*
X61628Y-36442D01*
X61685Y-36471D01*
X61714Y-36500D01*
X61742Y-36557D01*
X61742Y-36614D01*
X61714Y-36671D01*
X61685Y-36700D01*
X61628Y-36728D01*
X61428Y-36728D01*
X61942Y-36442D02*
X62285Y-36442D01*
X62114Y-37042D02*
X62114Y-36442D01*
X62800Y-37042D02*
X62457Y-37042D01*
X62628Y-37042D02*
X62628Y-36442D01*
X62571Y-36528D01*
X62514Y-36585D01*
X62457Y-36614D01*
X60600Y-46728D02*
X60685Y-46757D01*
X60714Y-46785D01*
X60742Y-46842D01*
X60742Y-46928D01*
X60714Y-46985D01*
X60685Y-47014D01*
X60628Y-47042D01*
X60400Y-47042D01*
X60400Y-46442D01*
X60600Y-46442D01*
X60657Y-46471D01*
X60685Y-46500D01*
X60714Y-46557D01*
X60714Y-46614D01*
X60685Y-46671D01*
X60657Y-46700D01*
X60600Y-46728D01*
X60400Y-46728D01*
X60971Y-46871D02*
X61257Y-46871D01*
X60914Y-47042D02*
X61114Y-46442D01*
X61314Y-47042D01*
X61428Y-46442D02*
X61771Y-46442D01*
X61600Y-47042D02*
X61600Y-46442D01*
X61885Y-46442D02*
X62228Y-46442D01*
X62057Y-47042D02*
X62057Y-46442D01*
X62428Y-46728D02*
X62628Y-46728D01*
X62714Y-47042D02*
X62428Y-47042D01*
X62428Y-46442D01*
X62714Y-46442D01*
X63314Y-47042D02*
X63114Y-46757D01*
X62971Y-47042D02*
X62971Y-46442D01*
X63200Y-46442D01*
X63257Y-46471D01*
X63285Y-46500D01*
X63314Y-46557D01*
X63314Y-46642D01*
X63285Y-46700D01*
X63257Y-46728D01*
X63200Y-46757D01*
X62971Y-46757D01*
X63685Y-46757D02*
X63685Y-47042D01*
X63485Y-46442D02*
X63685Y-46757D01*
X63885Y-46442D01*
G54D14*
X54833Y-42323D02*
X54814Y-42342D01*
X54757Y-42361D01*
X54719Y-42361D01*
X54661Y-42342D01*
X54623Y-42304D01*
X54604Y-42266D01*
X54585Y-42190D01*
X54585Y-42133D01*
X54604Y-42057D01*
X54623Y-42019D01*
X54661Y-41980D01*
X54719Y-41961D01*
X54757Y-41961D01*
X54814Y-41980D01*
X54833Y-42000D01*
X55214Y-42361D02*
X54985Y-42361D01*
X55100Y-42361D02*
X55100Y-41961D01*
X55061Y-42019D01*
X55023Y-42057D01*
X54985Y-42076D01*
X49561Y-42295D02*
X49161Y-42295D01*
X49161Y-42142D01*
X49180Y-42104D01*
X49200Y-42085D01*
X49238Y-42066D01*
X49295Y-42066D01*
X49333Y-42085D01*
X49352Y-42104D01*
X49371Y-42142D01*
X49371Y-42295D01*
X49561Y-41685D02*
X49561Y-41914D01*
X49561Y-41799D02*
X49161Y-41799D01*
X49219Y-41838D01*
X49257Y-41876D01*
X49276Y-41914D01*
G54D15*
X51783Y-40042D02*
X52350Y-40042D01*
X52416Y-40021D01*
X52450Y-40000D01*
X52483Y-39957D01*
X52483Y-39871D01*
X52450Y-39828D01*
X52416Y-39807D01*
X52350Y-39785D01*
X51783Y-39785D01*
X52483Y-39335D02*
X52483Y-39592D01*
X52483Y-39464D02*
X51783Y-39464D01*
X51883Y-39507D01*
X51950Y-39550D01*
X51983Y-39592D01*
G54D12*
G54D13*
X53642Y-39983D02*
X53642Y-39283D01*
X53738Y-39283D01*
X53795Y-39316D01*
X53833Y-39383D01*
X53852Y-39450D01*
X53871Y-39583D01*
X53871Y-39683D01*
X53852Y-39816D01*
X53833Y-39883D01*
X53795Y-39950D01*
X53738Y-39983D01*
X53642Y-39983D01*
X54023Y-39950D02*
X54080Y-39983D01*
X54176Y-39983D01*
X54214Y-39950D01*
X54233Y-39916D01*
X54252Y-39850D01*
X54252Y-39783D01*
X54233Y-39716D01*
X54214Y-39683D01*
X54176Y-39650D01*
X54100Y-39616D01*
X54061Y-39583D01*
X54042Y-39550D01*
X54023Y-39483D01*
X54023Y-39416D01*
X54042Y-39350D01*
X54061Y-39316D01*
X54100Y-39283D01*
X54195Y-39283D01*
X54252Y-39316D01*
X54633Y-39983D02*
X54404Y-39983D01*
X54519Y-39983D02*
X54519Y-39283D01*
X54480Y-39383D01*
X54442Y-39450D01*
X54404Y-39483D01*
X54766Y-39283D02*
X55014Y-39283D01*
X54880Y-39550D01*
X54938Y-39550D01*
X54976Y-39583D01*
X54995Y-39616D01*
X55014Y-39683D01*
X55014Y-39850D01*
X54995Y-39916D01*
X54976Y-39950D01*
X54938Y-39983D01*
X54823Y-39983D01*
X54785Y-39950D01*
X54766Y-39916D01*
X55261Y-39283D02*
X55300Y-39283D01*
X55338Y-39316D01*
X55357Y-39350D01*
X55376Y-39416D01*
X55395Y-39550D01*
X55395Y-39716D01*
X55376Y-39850D01*
X55357Y-39916D01*
X55338Y-39950D01*
X55300Y-39983D01*
X55261Y-39983D01*
X55223Y-39950D01*
X55204Y-39916D01*
X55185Y-39850D01*
X55166Y-39716D01*
X55166Y-39550D01*
X55185Y-39416D01*
X55204Y-39350D01*
X55223Y-39316D01*
X55261Y-39283D01*
X55528Y-39283D02*
X55795Y-39283D01*
X55623Y-39983D01*
G54D12*
G54D16*
X54526Y-44952D02*
X54792Y-45452D01*
X54792Y-44952D02*
X54526Y-45452D01*
X55154Y-45452D02*
X54926Y-45452D01*
X55040Y-45452D02*
X55040Y-44952D01*
X55002Y-45023D01*
X54964Y-45071D01*
X54926Y-45095D01*
M02*
