G04 (created by PCBNEW (2013-jul-07)-stable) date 2014年08月03日 (週日) 20時36分34秒*
%MOIN*%
G04 Gerber Fmt 3.4, Leading zero omitted, Abs format*
%FSLAX34Y34*%
G01*
G70*
G90*
G04 APERTURE LIST*
%ADD10C,0.00590551*%
%ADD11O,0.0984X0.1772*%
%ADD12R,0.06X0.06*%
%ADD13C,0.06*%
%ADD14R,0.07X0.07*%
%ADD15C,0.0708661*%
%ADD16R,0.0708661X0.0708661*%
%ADD17C,0.0511811*%
%ADD18C,0.01*%
G04 APERTURE END LIST*
G54D10*
G54D11*
X56500Y-48000D03*
X54300Y-48000D03*
X58700Y-48000D03*
G54D12*
X47000Y-46000D03*
G54D13*
X47000Y-45000D03*
G54D14*
X68000Y-41500D03*
G54D15*
X70000Y-41500D03*
G54D14*
X68000Y-47500D03*
G54D15*
X70000Y-47500D03*
G54D16*
X52000Y-38500D03*
G54D15*
X52000Y-41500D03*
G54D16*
X64000Y-39000D03*
G54D15*
X61000Y-39000D03*
G54D16*
X62000Y-36500D03*
G54D15*
X63000Y-36500D03*
G54D16*
X66000Y-36500D03*
G54D15*
X67000Y-36500D03*
X48000Y-36500D03*
X47000Y-36500D03*
X51500Y-49000D03*
X50500Y-49000D03*
X50000Y-36500D03*
X51000Y-36500D03*
X62000Y-41500D03*
X63000Y-41500D03*
X62000Y-44000D03*
X63000Y-44000D03*
G54D16*
X47000Y-38500D03*
G54D15*
X47000Y-39500D03*
X47000Y-40500D03*
X47000Y-41500D03*
X50000Y-41500D03*
X50000Y-40500D03*
X50000Y-39500D03*
X50000Y-38500D03*
G54D16*
X47000Y-49000D03*
G54D15*
X47000Y-48000D03*
G54D16*
X70000Y-37500D03*
G54D15*
X70000Y-36500D03*
X55500Y-36500D03*
X56500Y-36500D03*
X53000Y-36500D03*
X54000Y-36500D03*
G54D10*
G36*
X64982Y-46815D02*
X65092Y-47405D01*
X64408Y-47405D01*
X64518Y-46815D01*
X64982Y-46815D01*
X64982Y-46815D01*
G37*
G36*
X66281Y-47546D02*
X65942Y-48041D01*
X65458Y-47557D01*
X65953Y-47218D01*
X66281Y-47546D01*
X66281Y-47546D01*
G37*
G36*
X66685Y-48982D02*
X66095Y-49092D01*
X66095Y-48408D01*
X66685Y-48518D01*
X66685Y-48982D01*
X66685Y-48982D01*
G37*
G36*
X65953Y-50281D02*
X65458Y-49942D01*
X65942Y-49458D01*
X66281Y-49953D01*
X65953Y-50281D01*
X65953Y-50281D01*
G37*
G36*
X63546Y-47218D02*
X64041Y-47557D01*
X63557Y-48041D01*
X63218Y-47546D01*
X63546Y-47218D01*
X63546Y-47218D01*
G37*
G36*
X62815Y-48518D02*
X63405Y-48408D01*
X63405Y-49092D01*
X62815Y-48982D01*
X62815Y-48518D01*
X62815Y-48518D01*
G37*
G36*
X63218Y-49953D02*
X63557Y-49458D01*
X64041Y-49942D01*
X63546Y-50281D01*
X63218Y-49953D01*
X63218Y-49953D01*
G37*
G36*
X65044Y-47356D02*
X64881Y-48258D01*
X64618Y-48258D01*
X64455Y-47356D01*
X65044Y-47356D01*
X65044Y-47356D01*
G37*
G36*
X64489Y-47349D02*
X64684Y-48245D01*
X64441Y-48345D01*
X63945Y-47575D01*
X64489Y-47349D01*
X64489Y-47349D01*
G37*
G36*
X65554Y-47575D02*
X65058Y-48345D01*
X64815Y-48245D01*
X65010Y-47349D01*
X65554Y-47575D01*
X65554Y-47575D01*
G37*
G36*
X65943Y-47973D02*
X65190Y-48495D01*
X65004Y-48309D01*
X65526Y-47556D01*
X65943Y-47973D01*
X65943Y-47973D01*
G37*
G36*
X63973Y-47556D02*
X64495Y-48309D01*
X64309Y-48495D01*
X63556Y-47973D01*
X63973Y-47556D01*
X63973Y-47556D01*
G37*
G36*
X66150Y-48489D02*
X65254Y-48684D01*
X65154Y-48441D01*
X65924Y-47945D01*
X66150Y-48489D01*
X66150Y-48489D01*
G37*
G36*
X63575Y-47945D02*
X64345Y-48441D01*
X64245Y-48684D01*
X63349Y-48489D01*
X63575Y-47945D01*
X63575Y-47945D01*
G37*
G36*
X66144Y-49044D02*
X65242Y-48881D01*
X65242Y-48618D01*
X66144Y-48455D01*
X66144Y-49044D01*
X66144Y-49044D01*
G37*
G36*
X63356Y-48455D02*
X64258Y-48618D01*
X64258Y-48881D01*
X63356Y-49044D01*
X63356Y-48455D01*
X63356Y-48455D01*
G37*
G36*
X63349Y-49010D02*
X64245Y-48815D01*
X64345Y-49058D01*
X63575Y-49554D01*
X63349Y-49010D01*
X63349Y-49010D01*
G37*
G36*
X65924Y-49554D02*
X65154Y-49058D01*
X65254Y-48815D01*
X66150Y-49010D01*
X65924Y-49554D01*
X65924Y-49554D01*
G37*
G36*
X65526Y-49943D02*
X65004Y-49190D01*
X65190Y-49004D01*
X65943Y-49526D01*
X65526Y-49943D01*
X65526Y-49943D01*
G37*
G36*
X63556Y-49526D02*
X64309Y-49004D01*
X64495Y-49190D01*
X63973Y-49943D01*
X63556Y-49526D01*
X63556Y-49526D01*
G37*
G36*
X63854Y-49827D02*
X64422Y-49122D01*
X64531Y-49195D01*
X64099Y-49991D01*
X63854Y-49827D01*
X63854Y-49827D01*
G37*
G36*
X65400Y-49991D02*
X64968Y-49195D01*
X65077Y-49122D01*
X65645Y-49827D01*
X65400Y-49991D01*
X65400Y-49991D01*
G37*
G54D15*
X62250Y-47500D03*
G54D16*
X61250Y-47500D03*
G54D15*
X61250Y-48500D03*
X51750Y-47000D03*
X49750Y-47000D03*
G54D17*
X53000Y-46750D02*
X53000Y-48000D01*
X51430Y-48284D02*
X50500Y-48284D01*
X52715Y-48284D02*
X51430Y-48284D01*
X53000Y-48000D02*
X52715Y-48284D01*
X56854Y-46750D02*
X53000Y-46750D01*
X53000Y-46750D02*
X52964Y-46750D01*
X57696Y-47592D02*
X56854Y-46750D01*
X57696Y-48000D02*
X57696Y-47592D01*
X57696Y-48000D02*
X58700Y-48000D01*
X47000Y-45000D02*
X47000Y-41500D01*
X49750Y-47000D02*
X49750Y-47534D01*
X47465Y-47534D02*
X47000Y-48000D01*
X49750Y-47534D02*
X47465Y-47534D01*
X49750Y-47534D02*
X50500Y-48284D01*
X50500Y-48284D02*
X50500Y-49000D01*
X62000Y-44000D02*
X61517Y-43517D01*
X61517Y-43517D02*
X61517Y-43517D01*
X52017Y-43517D02*
X61517Y-43517D01*
X50000Y-41500D02*
X52017Y-43517D01*
X63000Y-42035D02*
X63000Y-41500D01*
X61517Y-43517D02*
X63000Y-42035D01*
X50000Y-40500D02*
X49000Y-40500D01*
X47750Y-46000D02*
X47000Y-46000D01*
X48500Y-45250D02*
X47750Y-46000D01*
X48500Y-41000D02*
X48500Y-45250D01*
X49000Y-40500D02*
X48500Y-41000D01*
X54000Y-37715D02*
X54000Y-36500D01*
X51215Y-40500D02*
X54000Y-37715D01*
X50000Y-40500D02*
X51215Y-40500D01*
X68000Y-47500D02*
X68000Y-46638D01*
X68718Y-45919D02*
X68000Y-46638D01*
X68718Y-37500D02*
X68718Y-45919D01*
X70000Y-37500D02*
X68718Y-37500D01*
X68000Y-37500D02*
X67000Y-36500D01*
X68718Y-37500D02*
X68000Y-37500D01*
X51760Y-49760D02*
X51500Y-49000D01*
X62250Y-47500D02*
X62250Y-48401D01*
X62250Y-48401D02*
X61391Y-49760D01*
X61391Y-49760D02*
X51760Y-49760D01*
X50000Y-39500D02*
X50500Y-39500D01*
X50974Y-39025D02*
X50974Y-37517D01*
X50974Y-39025D02*
X50500Y-39500D01*
X50000Y-36500D02*
X48000Y-36500D01*
X62000Y-36500D02*
X61133Y-36500D01*
X56172Y-35779D02*
X55500Y-36452D01*
X60413Y-35779D02*
X56172Y-35779D01*
X61133Y-36500D02*
X60413Y-35779D01*
X55500Y-36452D02*
X55500Y-36500D01*
X50000Y-36542D02*
X50000Y-36500D01*
X50974Y-37517D02*
X50000Y-36542D01*
X54837Y-35789D02*
X55500Y-36452D01*
X53671Y-35789D02*
X54837Y-35789D01*
X53000Y-36461D02*
X53671Y-35789D01*
X53000Y-36500D02*
X53000Y-36461D01*
X51982Y-37517D02*
X50974Y-37517D01*
X53000Y-36500D02*
X51982Y-37517D01*
G54D10*
G36*
X51264Y-41189D02*
X51202Y-41340D01*
X51201Y-41658D01*
X51240Y-41750D01*
X50774Y-41285D01*
X50739Y-41199D01*
X51215Y-41199D01*
X51264Y-41189D01*
X51264Y-41189D01*
G37*
G54D18*
X51264Y-41189D02*
X51202Y-41340D01*
X51201Y-41658D01*
X51240Y-41750D01*
X50774Y-41285D01*
X50739Y-41199D01*
X51215Y-41199D01*
X51264Y-41189D01*
G54D10*
G36*
X52300Y-47584D02*
X52293Y-47584D01*
X52300Y-47578D01*
X52300Y-47584D01*
X52300Y-47584D01*
G37*
G54D18*
X52300Y-47584D02*
X52293Y-47584D01*
X52300Y-47578D01*
X52300Y-47584D01*
G54D10*
G36*
X53300Y-37426D02*
X52760Y-37966D01*
X52730Y-37894D01*
X52662Y-37826D01*
X53214Y-37274D01*
X53300Y-37239D01*
X53300Y-37426D01*
X53300Y-37426D01*
G37*
G54D18*
X53300Y-37426D02*
X52760Y-37966D01*
X52730Y-37894D01*
X52662Y-37826D01*
X53214Y-37274D01*
X53300Y-37239D01*
X53300Y-37426D01*
G54D10*
G36*
X53624Y-49060D02*
X52297Y-49060D01*
X52298Y-48984D01*
X52715Y-48984D01*
X52983Y-48930D01*
X52983Y-48930D01*
X53210Y-48779D01*
X53398Y-48591D01*
X53435Y-48778D01*
X53624Y-49060D01*
X53624Y-49060D01*
G37*
G54D18*
X53624Y-49060D02*
X52297Y-49060D01*
X52298Y-48984D01*
X52715Y-48984D01*
X52983Y-48930D01*
X52983Y-48930D01*
X53210Y-48779D01*
X53398Y-48591D01*
X53435Y-48778D01*
X53624Y-49060D01*
G54D10*
G36*
X55662Y-35300D02*
X55499Y-35462D01*
X55337Y-35300D01*
X55662Y-35300D01*
X55662Y-35300D01*
G37*
G54D18*
X55662Y-35300D02*
X55499Y-35462D01*
X55337Y-35300D01*
X55662Y-35300D01*
G54D10*
G36*
X55824Y-49060D02*
X54975Y-49060D01*
X55164Y-48778D01*
X55235Y-48420D01*
X55235Y-47579D01*
X55209Y-47449D01*
X55590Y-47449D01*
X55564Y-47579D01*
X55564Y-48420D01*
X55635Y-48778D01*
X55824Y-49060D01*
X55824Y-49060D01*
G37*
G54D18*
X55824Y-49060D02*
X54975Y-49060D01*
X55164Y-48778D01*
X55235Y-48420D01*
X55235Y-47579D01*
X55209Y-47449D01*
X55590Y-47449D01*
X55564Y-47579D01*
X55564Y-48420D01*
X55635Y-48778D01*
X55824Y-49060D01*
G54D10*
G36*
X58024Y-49060D02*
X57175Y-49060D01*
X57364Y-48778D01*
X57395Y-48624D01*
X57428Y-48646D01*
X57696Y-48699D01*
X57819Y-48699D01*
X57835Y-48778D01*
X58024Y-49060D01*
X58024Y-49060D01*
G37*
G54D18*
X58024Y-49060D02*
X57175Y-49060D01*
X57364Y-48778D01*
X57395Y-48624D01*
X57428Y-48646D01*
X57696Y-48699D01*
X57819Y-48699D01*
X57835Y-48778D01*
X58024Y-49060D01*
G54D10*
G36*
X63087Y-50450D02*
X61440Y-50450D01*
X61467Y-50444D01*
X61545Y-50442D01*
X61599Y-50418D01*
X61658Y-50406D01*
X61723Y-50363D01*
X61794Y-50331D01*
X61835Y-50288D01*
X61885Y-50254D01*
X61929Y-50190D01*
X61982Y-50133D01*
X62465Y-49369D01*
X62563Y-49468D01*
X62726Y-49535D01*
X62853Y-49535D01*
X62764Y-49624D01*
X62696Y-49787D01*
X62696Y-49964D01*
X62764Y-50127D01*
X62889Y-50251D01*
X63087Y-50450D01*
X63087Y-50450D01*
G37*
G54D18*
X63087Y-50450D02*
X61440Y-50450D01*
X61467Y-50444D01*
X61545Y-50442D01*
X61599Y-50418D01*
X61658Y-50406D01*
X61723Y-50363D01*
X61794Y-50331D01*
X61835Y-50288D01*
X61885Y-50254D01*
X61929Y-50190D01*
X61982Y-50133D01*
X62465Y-49369D01*
X62563Y-49468D01*
X62726Y-49535D01*
X62853Y-49535D01*
X62764Y-49624D01*
X62696Y-49787D01*
X62696Y-49964D01*
X62764Y-50127D01*
X62889Y-50251D01*
X63087Y-50450D01*
G54D10*
G36*
X64798Y-48758D02*
X64791Y-48775D01*
X64777Y-48788D01*
X64749Y-48807D01*
X64722Y-48788D01*
X64708Y-48775D01*
X64701Y-48758D01*
X64701Y-48741D01*
X64708Y-48724D01*
X64724Y-48708D01*
X64741Y-48701D01*
X64758Y-48701D01*
X64775Y-48708D01*
X64791Y-48724D01*
X64798Y-48741D01*
X64798Y-48758D01*
X64798Y-48758D01*
G37*
G54D18*
X64798Y-48758D02*
X64791Y-48775D01*
X64777Y-48788D01*
X64749Y-48807D01*
X64722Y-48788D01*
X64708Y-48775D01*
X64701Y-48758D01*
X64701Y-48741D01*
X64708Y-48724D01*
X64724Y-48708D01*
X64741Y-48701D01*
X64758Y-48701D01*
X64775Y-48708D01*
X64791Y-48724D01*
X64798Y-48741D01*
X64798Y-48758D01*
G54D10*
G36*
X65338Y-50450D02*
X64161Y-50450D01*
X64184Y-50426D01*
X64272Y-50408D01*
X64419Y-50310D01*
X64517Y-50163D01*
X64749Y-49815D01*
X65080Y-50310D01*
X65227Y-50408D01*
X65315Y-50426D01*
X65338Y-50450D01*
X65338Y-50450D01*
G37*
G54D18*
X65338Y-50450D02*
X64161Y-50450D01*
X64184Y-50426D01*
X64272Y-50408D01*
X64419Y-50310D01*
X64517Y-50163D01*
X64749Y-49815D01*
X65080Y-50310D01*
X65227Y-50408D01*
X65315Y-50426D01*
X65338Y-50450D01*
G54D10*
G36*
X71450Y-50450D02*
X70798Y-50450D01*
X70798Y-47341D01*
X70798Y-41341D01*
X70676Y-41048D01*
X70452Y-40823D01*
X70159Y-40702D01*
X69841Y-40701D01*
X69548Y-40823D01*
X69418Y-40953D01*
X69418Y-38240D01*
X69557Y-38298D01*
X69733Y-38298D01*
X70442Y-38298D01*
X70605Y-38230D01*
X70730Y-38105D01*
X70798Y-37942D01*
X70798Y-37766D01*
X70798Y-37057D01*
X70730Y-36894D01*
X70709Y-36873D01*
X70797Y-36659D01*
X70798Y-36341D01*
X70676Y-36048D01*
X70452Y-35823D01*
X70159Y-35702D01*
X69841Y-35701D01*
X69548Y-35823D01*
X69323Y-36047D01*
X69202Y-36340D01*
X69201Y-36658D01*
X69260Y-36800D01*
X68718Y-36800D01*
X68289Y-36800D01*
X67774Y-36285D01*
X67676Y-36048D01*
X67452Y-35823D01*
X67159Y-35702D01*
X66841Y-35701D01*
X66626Y-35790D01*
X66605Y-35769D01*
X66442Y-35701D01*
X66266Y-35701D01*
X65557Y-35701D01*
X65394Y-35769D01*
X65269Y-35894D01*
X65201Y-36057D01*
X65201Y-36233D01*
X65201Y-36942D01*
X65269Y-37105D01*
X65394Y-37230D01*
X65557Y-37298D01*
X65733Y-37298D01*
X66442Y-37298D01*
X66605Y-37230D01*
X66626Y-37209D01*
X66785Y-37275D01*
X67505Y-37994D01*
X67505Y-37994D01*
X67732Y-38146D01*
X67732Y-38146D01*
X68000Y-38199D01*
X68019Y-38199D01*
X68019Y-40706D01*
X67561Y-40706D01*
X67398Y-40773D01*
X67273Y-40898D01*
X67206Y-41061D01*
X67206Y-41238D01*
X67206Y-41938D01*
X67273Y-42101D01*
X67398Y-42226D01*
X67561Y-42293D01*
X67738Y-42293D01*
X68019Y-42293D01*
X68019Y-45629D01*
X67505Y-46143D01*
X67353Y-46370D01*
X67300Y-46638D01*
X67300Y-46872D01*
X67273Y-46898D01*
X67206Y-47061D01*
X67206Y-47238D01*
X67206Y-47938D01*
X67273Y-48101D01*
X67398Y-48226D01*
X67561Y-48293D01*
X67738Y-48293D01*
X68438Y-48293D01*
X68601Y-48226D01*
X68726Y-48101D01*
X68793Y-47938D01*
X68793Y-47761D01*
X68793Y-47061D01*
X68726Y-46900D01*
X69213Y-46414D01*
X69365Y-46187D01*
X69365Y-46187D01*
X69418Y-45919D01*
X69418Y-42046D01*
X69547Y-42176D01*
X69840Y-42297D01*
X70158Y-42298D01*
X70451Y-42176D01*
X70676Y-41952D01*
X70797Y-41659D01*
X70798Y-41341D01*
X70798Y-47341D01*
X70676Y-47048D01*
X70452Y-46823D01*
X70159Y-46702D01*
X69841Y-46701D01*
X69548Y-46823D01*
X69323Y-47047D01*
X69202Y-47340D01*
X69201Y-47658D01*
X69323Y-47951D01*
X69547Y-48176D01*
X69840Y-48297D01*
X70158Y-48298D01*
X70451Y-48176D01*
X70676Y-47952D01*
X70797Y-47659D01*
X70798Y-47341D01*
X70798Y-50450D01*
X66412Y-50450D01*
X66735Y-50127D01*
X66803Y-49964D01*
X66803Y-49787D01*
X66735Y-49624D01*
X66646Y-49535D01*
X66773Y-49535D01*
X66936Y-49468D01*
X67061Y-49343D01*
X67128Y-49180D01*
X67128Y-49003D01*
X67128Y-48319D01*
X67061Y-48156D01*
X66936Y-48031D01*
X66773Y-47964D01*
X66646Y-47964D01*
X66735Y-47875D01*
X66803Y-47712D01*
X66803Y-47535D01*
X66735Y-47372D01*
X66610Y-47248D01*
X66127Y-46764D01*
X65964Y-46696D01*
X65787Y-46696D01*
X65624Y-46764D01*
X65535Y-46853D01*
X65535Y-46726D01*
X65468Y-46563D01*
X65343Y-46438D01*
X65180Y-46371D01*
X65003Y-46371D01*
X64798Y-46371D01*
X64798Y-39442D01*
X64798Y-39266D01*
X64798Y-38557D01*
X64730Y-38394D01*
X64605Y-38269D01*
X64442Y-38201D01*
X64266Y-38201D01*
X63557Y-38201D01*
X63394Y-38269D01*
X63269Y-38394D01*
X63201Y-38557D01*
X63201Y-38733D01*
X63201Y-39442D01*
X63269Y-39605D01*
X63394Y-39730D01*
X63557Y-39798D01*
X63733Y-39798D01*
X64442Y-39798D01*
X64605Y-39730D01*
X64730Y-39605D01*
X64798Y-39442D01*
X64798Y-46371D01*
X64319Y-46371D01*
X64156Y-46438D01*
X64031Y-46563D01*
X63964Y-46726D01*
X63964Y-46853D01*
X63875Y-46764D01*
X63712Y-46696D01*
X63535Y-46696D01*
X63372Y-46764D01*
X63248Y-46889D01*
X62974Y-47163D01*
X62926Y-47048D01*
X62702Y-46823D01*
X62409Y-46702D01*
X62091Y-46701D01*
X61876Y-46790D01*
X61855Y-46769D01*
X61692Y-46701D01*
X61516Y-46701D01*
X60807Y-46701D01*
X60644Y-46769D01*
X60519Y-46894D01*
X60451Y-47057D01*
X60451Y-47233D01*
X60451Y-47942D01*
X60519Y-48105D01*
X60540Y-48126D01*
X60452Y-48340D01*
X60451Y-48658D01*
X60573Y-48951D01*
X60681Y-49060D01*
X59375Y-49060D01*
X59564Y-48778D01*
X59635Y-48420D01*
X59635Y-47579D01*
X59564Y-47221D01*
X59361Y-46918D01*
X59058Y-46715D01*
X58700Y-46644D01*
X58341Y-46715D01*
X58038Y-46918D01*
X58027Y-46934D01*
X57348Y-46255D01*
X57122Y-46103D01*
X56854Y-46050D01*
X53000Y-46050D01*
X52964Y-46050D01*
X52696Y-46103D01*
X52469Y-46255D01*
X52335Y-46456D01*
X52202Y-46323D01*
X51909Y-46202D01*
X51591Y-46201D01*
X51298Y-46323D01*
X51073Y-46547D01*
X50952Y-46840D01*
X50951Y-47158D01*
X51073Y-47451D01*
X51206Y-47584D01*
X50789Y-47584D01*
X50494Y-47289D01*
X50547Y-47159D01*
X50548Y-46841D01*
X50426Y-46548D01*
X50202Y-46323D01*
X49909Y-46202D01*
X49591Y-46201D01*
X49298Y-46323D01*
X49073Y-46547D01*
X48954Y-46834D01*
X47465Y-46834D01*
X47197Y-46888D01*
X46970Y-47039D01*
X46785Y-47225D01*
X46548Y-47323D01*
X46323Y-47547D01*
X46202Y-47840D01*
X46201Y-48158D01*
X46290Y-48373D01*
X46269Y-48394D01*
X46201Y-48557D01*
X46201Y-48733D01*
X46201Y-49442D01*
X46269Y-49605D01*
X46394Y-49730D01*
X46557Y-49798D01*
X46733Y-49798D01*
X47442Y-49798D01*
X47605Y-49730D01*
X47730Y-49605D01*
X47798Y-49442D01*
X47798Y-49266D01*
X47798Y-48557D01*
X47730Y-48394D01*
X47709Y-48373D01*
X47766Y-48234D01*
X49460Y-48234D01*
X49800Y-48574D01*
X49800Y-48603D01*
X49702Y-48840D01*
X49701Y-49158D01*
X49823Y-49451D01*
X50047Y-49676D01*
X50340Y-49797D01*
X50658Y-49798D01*
X50951Y-49676D01*
X50981Y-49646D01*
X51098Y-49986D01*
X51109Y-50005D01*
X51113Y-50027D01*
X51177Y-50123D01*
X51235Y-50222D01*
X51253Y-50236D01*
X51265Y-50254D01*
X51360Y-50318D01*
X51452Y-50388D01*
X51473Y-50394D01*
X51492Y-50406D01*
X51605Y-50428D01*
X51684Y-50450D01*
X45550Y-50450D01*
X45550Y-35300D01*
X53171Y-35300D01*
X52719Y-35752D01*
X52548Y-35823D01*
X52323Y-36047D01*
X52224Y-36285D01*
X51760Y-36750D01*
X51797Y-36659D01*
X51798Y-36341D01*
X51676Y-36048D01*
X51452Y-35823D01*
X51159Y-35702D01*
X50841Y-35701D01*
X50548Y-35823D01*
X50500Y-35871D01*
X50452Y-35823D01*
X50159Y-35702D01*
X49841Y-35701D01*
X49603Y-35800D01*
X48396Y-35800D01*
X48159Y-35702D01*
X47841Y-35701D01*
X47548Y-35823D01*
X47500Y-35871D01*
X47452Y-35823D01*
X47159Y-35702D01*
X46841Y-35701D01*
X46548Y-35823D01*
X46323Y-36047D01*
X46202Y-36340D01*
X46201Y-36658D01*
X46323Y-36951D01*
X46547Y-37176D01*
X46840Y-37297D01*
X47158Y-37298D01*
X47451Y-37176D01*
X47499Y-37128D01*
X47547Y-37176D01*
X47840Y-37297D01*
X48158Y-37298D01*
X48396Y-37199D01*
X49603Y-37199D01*
X49713Y-37245D01*
X50178Y-37709D01*
X50159Y-37702D01*
X49841Y-37701D01*
X49548Y-37823D01*
X49323Y-38047D01*
X49202Y-38340D01*
X49201Y-38658D01*
X49323Y-38951D01*
X49371Y-38999D01*
X49323Y-39047D01*
X49202Y-39340D01*
X49201Y-39658D01*
X49260Y-39800D01*
X49000Y-39800D01*
X48732Y-39853D01*
X48505Y-40005D01*
X48005Y-40505D01*
X47853Y-40732D01*
X47800Y-41000D01*
X47800Y-44960D01*
X47743Y-45016D01*
X47743Y-44852D01*
X47699Y-44745D01*
X47699Y-41896D01*
X47797Y-41659D01*
X47798Y-41341D01*
X47676Y-41048D01*
X47628Y-41000D01*
X47676Y-40952D01*
X47797Y-40659D01*
X47798Y-40341D01*
X47676Y-40048D01*
X47628Y-40000D01*
X47676Y-39952D01*
X47797Y-39659D01*
X47798Y-39341D01*
X47709Y-39126D01*
X47730Y-39105D01*
X47798Y-38942D01*
X47798Y-38766D01*
X47798Y-38057D01*
X47730Y-37894D01*
X47605Y-37769D01*
X47442Y-37701D01*
X47266Y-37701D01*
X46557Y-37701D01*
X46394Y-37769D01*
X46269Y-37894D01*
X46201Y-38057D01*
X46201Y-38233D01*
X46201Y-38942D01*
X46269Y-39105D01*
X46290Y-39126D01*
X46202Y-39340D01*
X46201Y-39658D01*
X46323Y-39951D01*
X46371Y-39999D01*
X46323Y-40047D01*
X46202Y-40340D01*
X46201Y-40658D01*
X46323Y-40951D01*
X46371Y-40999D01*
X46323Y-41047D01*
X46202Y-41340D01*
X46201Y-41658D01*
X46300Y-41896D01*
X46300Y-44745D01*
X46256Y-44851D01*
X46256Y-45147D01*
X46364Y-45408D01*
X46323Y-45448D01*
X46256Y-45611D01*
X46256Y-45788D01*
X46256Y-46388D01*
X46323Y-46551D01*
X46448Y-46676D01*
X46611Y-46743D01*
X46788Y-46743D01*
X47388Y-46743D01*
X47494Y-46699D01*
X47750Y-46699D01*
X48017Y-46646D01*
X48017Y-46646D01*
X48244Y-46494D01*
X48994Y-45744D01*
X49146Y-45517D01*
X49146Y-45517D01*
X49199Y-45250D01*
X49199Y-41289D01*
X49239Y-41249D01*
X49202Y-41340D01*
X49201Y-41658D01*
X49323Y-41951D01*
X49547Y-42176D01*
X49785Y-42275D01*
X51523Y-44012D01*
X51523Y-44012D01*
X51750Y-44164D01*
X51750Y-44164D01*
X52017Y-44217D01*
X61226Y-44217D01*
X61323Y-44451D01*
X61547Y-44676D01*
X61840Y-44797D01*
X62158Y-44798D01*
X62451Y-44676D01*
X62499Y-44628D01*
X62547Y-44676D01*
X62840Y-44797D01*
X63158Y-44798D01*
X63451Y-44676D01*
X63676Y-44452D01*
X63797Y-44159D01*
X63798Y-43841D01*
X63676Y-43548D01*
X63452Y-43323D01*
X63159Y-43202D01*
X62841Y-43201D01*
X62810Y-43214D01*
X63494Y-42530D01*
X63646Y-42303D01*
X63646Y-42303D01*
X63699Y-42035D01*
X63699Y-41896D01*
X63797Y-41659D01*
X63798Y-41341D01*
X63676Y-41048D01*
X63452Y-40823D01*
X63159Y-40702D01*
X62841Y-40701D01*
X62548Y-40823D01*
X62500Y-40871D01*
X62452Y-40823D01*
X62159Y-40702D01*
X61841Y-40701D01*
X61798Y-40719D01*
X61798Y-38841D01*
X61676Y-38548D01*
X61452Y-38323D01*
X61159Y-38202D01*
X60841Y-38201D01*
X60548Y-38323D01*
X60323Y-38547D01*
X60202Y-38840D01*
X60201Y-39158D01*
X60323Y-39451D01*
X60547Y-39676D01*
X60840Y-39797D01*
X61158Y-39798D01*
X61451Y-39676D01*
X61676Y-39452D01*
X61797Y-39159D01*
X61798Y-38841D01*
X61798Y-40719D01*
X61548Y-40823D01*
X61323Y-41047D01*
X61202Y-41340D01*
X61201Y-41658D01*
X61323Y-41951D01*
X61547Y-42176D01*
X61775Y-42270D01*
X61228Y-42818D01*
X57756Y-42818D01*
X57756Y-40051D01*
X57569Y-39598D01*
X57223Y-39251D01*
X56770Y-39064D01*
X56281Y-39063D01*
X55828Y-39250D01*
X55481Y-39596D01*
X55294Y-40049D01*
X55293Y-40538D01*
X55480Y-40991D01*
X55826Y-41338D01*
X56279Y-41525D01*
X56768Y-41526D01*
X57221Y-41339D01*
X57568Y-40993D01*
X57755Y-40540D01*
X57756Y-40051D01*
X57756Y-42818D01*
X52307Y-42818D01*
X51749Y-42260D01*
X51840Y-42297D01*
X52158Y-42298D01*
X52451Y-42176D01*
X52676Y-41952D01*
X52797Y-41659D01*
X52798Y-41341D01*
X52676Y-41048D01*
X52452Y-40823D01*
X52159Y-40702D01*
X52003Y-40701D01*
X54494Y-38210D01*
X54646Y-37983D01*
X54646Y-37983D01*
X54699Y-37715D01*
X54699Y-36896D01*
X54750Y-36774D01*
X54823Y-36951D01*
X55047Y-37176D01*
X55340Y-37297D01*
X55658Y-37298D01*
X55951Y-37176D01*
X55999Y-37128D01*
X56047Y-37176D01*
X56340Y-37297D01*
X56658Y-37298D01*
X56951Y-37176D01*
X57176Y-36952D01*
X57297Y-36659D01*
X57298Y-36479D01*
X60123Y-36479D01*
X60639Y-36994D01*
X60866Y-37146D01*
X60866Y-37146D01*
X61133Y-37199D01*
X61133Y-37199D01*
X61133Y-37199D01*
X61363Y-37199D01*
X61394Y-37230D01*
X61557Y-37298D01*
X61733Y-37298D01*
X62442Y-37298D01*
X62605Y-37230D01*
X62626Y-37209D01*
X62840Y-37297D01*
X63158Y-37298D01*
X63451Y-37176D01*
X63676Y-36952D01*
X63797Y-36659D01*
X63798Y-36341D01*
X63676Y-36048D01*
X63452Y-35823D01*
X63159Y-35702D01*
X62841Y-35701D01*
X62626Y-35790D01*
X62605Y-35769D01*
X62442Y-35701D01*
X62266Y-35701D01*
X61557Y-35701D01*
X61394Y-35769D01*
X61393Y-35770D01*
X60923Y-35300D01*
X71450Y-35300D01*
X71450Y-50450D01*
X71450Y-50450D01*
G37*
G54D18*
X71450Y-50450D02*
X70798Y-50450D01*
X70798Y-47341D01*
X70798Y-41341D01*
X70676Y-41048D01*
X70452Y-40823D01*
X70159Y-40702D01*
X69841Y-40701D01*
X69548Y-40823D01*
X69418Y-40953D01*
X69418Y-38240D01*
X69557Y-38298D01*
X69733Y-38298D01*
X70442Y-38298D01*
X70605Y-38230D01*
X70730Y-38105D01*
X70798Y-37942D01*
X70798Y-37766D01*
X70798Y-37057D01*
X70730Y-36894D01*
X70709Y-36873D01*
X70797Y-36659D01*
X70798Y-36341D01*
X70676Y-36048D01*
X70452Y-35823D01*
X70159Y-35702D01*
X69841Y-35701D01*
X69548Y-35823D01*
X69323Y-36047D01*
X69202Y-36340D01*
X69201Y-36658D01*
X69260Y-36800D01*
X68718Y-36800D01*
X68289Y-36800D01*
X67774Y-36285D01*
X67676Y-36048D01*
X67452Y-35823D01*
X67159Y-35702D01*
X66841Y-35701D01*
X66626Y-35790D01*
X66605Y-35769D01*
X66442Y-35701D01*
X66266Y-35701D01*
X65557Y-35701D01*
X65394Y-35769D01*
X65269Y-35894D01*
X65201Y-36057D01*
X65201Y-36233D01*
X65201Y-36942D01*
X65269Y-37105D01*
X65394Y-37230D01*
X65557Y-37298D01*
X65733Y-37298D01*
X66442Y-37298D01*
X66605Y-37230D01*
X66626Y-37209D01*
X66785Y-37275D01*
X67505Y-37994D01*
X67505Y-37994D01*
X67732Y-38146D01*
X67732Y-38146D01*
X68000Y-38199D01*
X68019Y-38199D01*
X68019Y-40706D01*
X67561Y-40706D01*
X67398Y-40773D01*
X67273Y-40898D01*
X67206Y-41061D01*
X67206Y-41238D01*
X67206Y-41938D01*
X67273Y-42101D01*
X67398Y-42226D01*
X67561Y-42293D01*
X67738Y-42293D01*
X68019Y-42293D01*
X68019Y-45629D01*
X67505Y-46143D01*
X67353Y-46370D01*
X67300Y-46638D01*
X67300Y-46872D01*
X67273Y-46898D01*
X67206Y-47061D01*
X67206Y-47238D01*
X67206Y-47938D01*
X67273Y-48101D01*
X67398Y-48226D01*
X67561Y-48293D01*
X67738Y-48293D01*
X68438Y-48293D01*
X68601Y-48226D01*
X68726Y-48101D01*
X68793Y-47938D01*
X68793Y-47761D01*
X68793Y-47061D01*
X68726Y-46900D01*
X69213Y-46414D01*
X69365Y-46187D01*
X69365Y-46187D01*
X69418Y-45919D01*
X69418Y-42046D01*
X69547Y-42176D01*
X69840Y-42297D01*
X70158Y-42298D01*
X70451Y-42176D01*
X70676Y-41952D01*
X70797Y-41659D01*
X70798Y-41341D01*
X70798Y-47341D01*
X70676Y-47048D01*
X70452Y-46823D01*
X70159Y-46702D01*
X69841Y-46701D01*
X69548Y-46823D01*
X69323Y-47047D01*
X69202Y-47340D01*
X69201Y-47658D01*
X69323Y-47951D01*
X69547Y-48176D01*
X69840Y-48297D01*
X70158Y-48298D01*
X70451Y-48176D01*
X70676Y-47952D01*
X70797Y-47659D01*
X70798Y-47341D01*
X70798Y-50450D01*
X66412Y-50450D01*
X66735Y-50127D01*
X66803Y-49964D01*
X66803Y-49787D01*
X66735Y-49624D01*
X66646Y-49535D01*
X66773Y-49535D01*
X66936Y-49468D01*
X67061Y-49343D01*
X67128Y-49180D01*
X67128Y-49003D01*
X67128Y-48319D01*
X67061Y-48156D01*
X66936Y-48031D01*
X66773Y-47964D01*
X66646Y-47964D01*
X66735Y-47875D01*
X66803Y-47712D01*
X66803Y-47535D01*
X66735Y-47372D01*
X66610Y-47248D01*
X66127Y-46764D01*
X65964Y-46696D01*
X65787Y-46696D01*
X65624Y-46764D01*
X65535Y-46853D01*
X65535Y-46726D01*
X65468Y-46563D01*
X65343Y-46438D01*
X65180Y-46371D01*
X65003Y-46371D01*
X64798Y-46371D01*
X64798Y-39442D01*
X64798Y-39266D01*
X64798Y-38557D01*
X64730Y-38394D01*
X64605Y-38269D01*
X64442Y-38201D01*
X64266Y-38201D01*
X63557Y-38201D01*
X63394Y-38269D01*
X63269Y-38394D01*
X63201Y-38557D01*
X63201Y-38733D01*
X63201Y-39442D01*
X63269Y-39605D01*
X63394Y-39730D01*
X63557Y-39798D01*
X63733Y-39798D01*
X64442Y-39798D01*
X64605Y-39730D01*
X64730Y-39605D01*
X64798Y-39442D01*
X64798Y-46371D01*
X64319Y-46371D01*
X64156Y-46438D01*
X64031Y-46563D01*
X63964Y-46726D01*
X63964Y-46853D01*
X63875Y-46764D01*
X63712Y-46696D01*
X63535Y-46696D01*
X63372Y-46764D01*
X63248Y-46889D01*
X62974Y-47163D01*
X62926Y-47048D01*
X62702Y-46823D01*
X62409Y-46702D01*
X62091Y-46701D01*
X61876Y-46790D01*
X61855Y-46769D01*
X61692Y-46701D01*
X61516Y-46701D01*
X60807Y-46701D01*
X60644Y-46769D01*
X60519Y-46894D01*
X60451Y-47057D01*
X60451Y-47233D01*
X60451Y-47942D01*
X60519Y-48105D01*
X60540Y-48126D01*
X60452Y-48340D01*
X60451Y-48658D01*
X60573Y-48951D01*
X60681Y-49060D01*
X59375Y-49060D01*
X59564Y-48778D01*
X59635Y-48420D01*
X59635Y-47579D01*
X59564Y-47221D01*
X59361Y-46918D01*
X59058Y-46715D01*
X58700Y-46644D01*
X58341Y-46715D01*
X58038Y-46918D01*
X58027Y-46934D01*
X57348Y-46255D01*
X57122Y-46103D01*
X56854Y-46050D01*
X53000Y-46050D01*
X52964Y-46050D01*
X52696Y-46103D01*
X52469Y-46255D01*
X52335Y-46456D01*
X52202Y-46323D01*
X51909Y-46202D01*
X51591Y-46201D01*
X51298Y-46323D01*
X51073Y-46547D01*
X50952Y-46840D01*
X50951Y-47158D01*
X51073Y-47451D01*
X51206Y-47584D01*
X50789Y-47584D01*
X50494Y-47289D01*
X50547Y-47159D01*
X50548Y-46841D01*
X50426Y-46548D01*
X50202Y-46323D01*
X49909Y-46202D01*
X49591Y-46201D01*
X49298Y-46323D01*
X49073Y-46547D01*
X48954Y-46834D01*
X47465Y-46834D01*
X47197Y-46888D01*
X46970Y-47039D01*
X46785Y-47225D01*
X46548Y-47323D01*
X46323Y-47547D01*
X46202Y-47840D01*
X46201Y-48158D01*
X46290Y-48373D01*
X46269Y-48394D01*
X46201Y-48557D01*
X46201Y-48733D01*
X46201Y-49442D01*
X46269Y-49605D01*
X46394Y-49730D01*
X46557Y-49798D01*
X46733Y-49798D01*
X47442Y-49798D01*
X47605Y-49730D01*
X47730Y-49605D01*
X47798Y-49442D01*
X47798Y-49266D01*
X47798Y-48557D01*
X47730Y-48394D01*
X47709Y-48373D01*
X47766Y-48234D01*
X49460Y-48234D01*
X49800Y-48574D01*
X49800Y-48603D01*
X49702Y-48840D01*
X49701Y-49158D01*
X49823Y-49451D01*
X50047Y-49676D01*
X50340Y-49797D01*
X50658Y-49798D01*
X50951Y-49676D01*
X50981Y-49646D01*
X51098Y-49986D01*
X51109Y-50005D01*
X51113Y-50027D01*
X51177Y-50123D01*
X51235Y-50222D01*
X51253Y-50236D01*
X51265Y-50254D01*
X51360Y-50318D01*
X51452Y-50388D01*
X51473Y-50394D01*
X51492Y-50406D01*
X51605Y-50428D01*
X51684Y-50450D01*
X45550Y-50450D01*
X45550Y-35300D01*
X53171Y-35300D01*
X52719Y-35752D01*
X52548Y-35823D01*
X52323Y-36047D01*
X52224Y-36285D01*
X51760Y-36750D01*
X51797Y-36659D01*
X51798Y-36341D01*
X51676Y-36048D01*
X51452Y-35823D01*
X51159Y-35702D01*
X50841Y-35701D01*
X50548Y-35823D01*
X50500Y-35871D01*
X50452Y-35823D01*
X50159Y-35702D01*
X49841Y-35701D01*
X49603Y-35800D01*
X48396Y-35800D01*
X48159Y-35702D01*
X47841Y-35701D01*
X47548Y-35823D01*
X47500Y-35871D01*
X47452Y-35823D01*
X47159Y-35702D01*
X46841Y-35701D01*
X46548Y-35823D01*
X46323Y-36047D01*
X46202Y-36340D01*
X46201Y-36658D01*
X46323Y-36951D01*
X46547Y-37176D01*
X46840Y-37297D01*
X47158Y-37298D01*
X47451Y-37176D01*
X47499Y-37128D01*
X47547Y-37176D01*
X47840Y-37297D01*
X48158Y-37298D01*
X48396Y-37199D01*
X49603Y-37199D01*
X49713Y-37245D01*
X50178Y-37709D01*
X50159Y-37702D01*
X49841Y-37701D01*
X49548Y-37823D01*
X49323Y-38047D01*
X49202Y-38340D01*
X49201Y-38658D01*
X49323Y-38951D01*
X49371Y-38999D01*
X49323Y-39047D01*
X49202Y-39340D01*
X49201Y-39658D01*
X49260Y-39800D01*
X49000Y-39800D01*
X48732Y-39853D01*
X48505Y-40005D01*
X48005Y-40505D01*
X47853Y-40732D01*
X47800Y-41000D01*
X47800Y-44960D01*
X47743Y-45016D01*
X47743Y-44852D01*
X47699Y-44745D01*
X47699Y-41896D01*
X47797Y-41659D01*
X47798Y-41341D01*
X47676Y-41048D01*
X47628Y-41000D01*
X47676Y-40952D01*
X47797Y-40659D01*
X47798Y-40341D01*
X47676Y-40048D01*
X47628Y-40000D01*
X47676Y-39952D01*
X47797Y-39659D01*
X47798Y-39341D01*
X47709Y-39126D01*
X47730Y-39105D01*
X47798Y-38942D01*
X47798Y-38766D01*
X47798Y-38057D01*
X47730Y-37894D01*
X47605Y-37769D01*
X47442Y-37701D01*
X47266Y-37701D01*
X46557Y-37701D01*
X46394Y-37769D01*
X46269Y-37894D01*
X46201Y-38057D01*
X46201Y-38233D01*
X46201Y-38942D01*
X46269Y-39105D01*
X46290Y-39126D01*
X46202Y-39340D01*
X46201Y-39658D01*
X46323Y-39951D01*
X46371Y-39999D01*
X46323Y-40047D01*
X46202Y-40340D01*
X46201Y-40658D01*
X46323Y-40951D01*
X46371Y-40999D01*
X46323Y-41047D01*
X46202Y-41340D01*
X46201Y-41658D01*
X46300Y-41896D01*
X46300Y-44745D01*
X46256Y-44851D01*
X46256Y-45147D01*
X46364Y-45408D01*
X46323Y-45448D01*
X46256Y-45611D01*
X46256Y-45788D01*
X46256Y-46388D01*
X46323Y-46551D01*
X46448Y-46676D01*
X46611Y-46743D01*
X46788Y-46743D01*
X47388Y-46743D01*
X47494Y-46699D01*
X47750Y-46699D01*
X48017Y-46646D01*
X48017Y-46646D01*
X48244Y-46494D01*
X48994Y-45744D01*
X49146Y-45517D01*
X49146Y-45517D01*
X49199Y-45250D01*
X49199Y-41289D01*
X49239Y-41249D01*
X49202Y-41340D01*
X49201Y-41658D01*
X49323Y-41951D01*
X49547Y-42176D01*
X49785Y-42275D01*
X51523Y-44012D01*
X51523Y-44012D01*
X51750Y-44164D01*
X51750Y-44164D01*
X52017Y-44217D01*
X61226Y-44217D01*
X61323Y-44451D01*
X61547Y-44676D01*
X61840Y-44797D01*
X62158Y-44798D01*
X62451Y-44676D01*
X62499Y-44628D01*
X62547Y-44676D01*
X62840Y-44797D01*
X63158Y-44798D01*
X63451Y-44676D01*
X63676Y-44452D01*
X63797Y-44159D01*
X63798Y-43841D01*
X63676Y-43548D01*
X63452Y-43323D01*
X63159Y-43202D01*
X62841Y-43201D01*
X62810Y-43214D01*
X63494Y-42530D01*
X63646Y-42303D01*
X63646Y-42303D01*
X63699Y-42035D01*
X63699Y-41896D01*
X63797Y-41659D01*
X63798Y-41341D01*
X63676Y-41048D01*
X63452Y-40823D01*
X63159Y-40702D01*
X62841Y-40701D01*
X62548Y-40823D01*
X62500Y-40871D01*
X62452Y-40823D01*
X62159Y-40702D01*
X61841Y-40701D01*
X61798Y-40719D01*
X61798Y-38841D01*
X61676Y-38548D01*
X61452Y-38323D01*
X61159Y-38202D01*
X60841Y-38201D01*
X60548Y-38323D01*
X60323Y-38547D01*
X60202Y-38840D01*
X60201Y-39158D01*
X60323Y-39451D01*
X60547Y-39676D01*
X60840Y-39797D01*
X61158Y-39798D01*
X61451Y-39676D01*
X61676Y-39452D01*
X61797Y-39159D01*
X61798Y-38841D01*
X61798Y-40719D01*
X61548Y-40823D01*
X61323Y-41047D01*
X61202Y-41340D01*
X61201Y-41658D01*
X61323Y-41951D01*
X61547Y-42176D01*
X61775Y-42270D01*
X61228Y-42818D01*
X57756Y-42818D01*
X57756Y-40051D01*
X57569Y-39598D01*
X57223Y-39251D01*
X56770Y-39064D01*
X56281Y-39063D01*
X55828Y-39250D01*
X55481Y-39596D01*
X55294Y-40049D01*
X55293Y-40538D01*
X55480Y-40991D01*
X55826Y-41338D01*
X56279Y-41525D01*
X56768Y-41526D01*
X57221Y-41339D01*
X57568Y-40993D01*
X57755Y-40540D01*
X57756Y-40051D01*
X57756Y-42818D01*
X52307Y-42818D01*
X51749Y-42260D01*
X51840Y-42297D01*
X52158Y-42298D01*
X52451Y-42176D01*
X52676Y-41952D01*
X52797Y-41659D01*
X52798Y-41341D01*
X52676Y-41048D01*
X52452Y-40823D01*
X52159Y-40702D01*
X52003Y-40701D01*
X54494Y-38210D01*
X54646Y-37983D01*
X54646Y-37983D01*
X54699Y-37715D01*
X54699Y-36896D01*
X54750Y-36774D01*
X54823Y-36951D01*
X55047Y-37176D01*
X55340Y-37297D01*
X55658Y-37298D01*
X55951Y-37176D01*
X55999Y-37128D01*
X56047Y-37176D01*
X56340Y-37297D01*
X56658Y-37298D01*
X56951Y-37176D01*
X57176Y-36952D01*
X57297Y-36659D01*
X57298Y-36479D01*
X60123Y-36479D01*
X60639Y-36994D01*
X60866Y-37146D01*
X60866Y-37146D01*
X61133Y-37199D01*
X61133Y-37199D01*
X61133Y-37199D01*
X61363Y-37199D01*
X61394Y-37230D01*
X61557Y-37298D01*
X61733Y-37298D01*
X62442Y-37298D01*
X62605Y-37230D01*
X62626Y-37209D01*
X62840Y-37297D01*
X63158Y-37298D01*
X63451Y-37176D01*
X63676Y-36952D01*
X63797Y-36659D01*
X63798Y-36341D01*
X63676Y-36048D01*
X63452Y-35823D01*
X63159Y-35702D01*
X62841Y-35701D01*
X62626Y-35790D01*
X62605Y-35769D01*
X62442Y-35701D01*
X62266Y-35701D01*
X61557Y-35701D01*
X61394Y-35769D01*
X61393Y-35770D01*
X60923Y-35300D01*
X71450Y-35300D01*
X71450Y-50450D01*
M02*
