M48
;DRILL file {Pcbnew (2013-jul-07)-stable} date 2014年08月03日 (週日) 20時36分48秒
;FORMAT={-:-/ absolute / inch / decimal}
FMAT,2
INCH,TZ
T1C0.032
T2C0.039
T3C0.040
T4C0.059
T5C0.158
%
G90
G05
M72
T1
X4.7Y-4.5
X4.7Y-4.6
T2
X4.7Y-3.65
X4.7Y-3.85
X4.7Y-3.95
X4.7Y-4.05
X4.7Y-4.15
X4.8Y-3.65
X4.975Y-4.7
X5.Y-3.65
X5.Y-3.85
X5.Y-3.95
X5.Y-4.05
X5.Y-4.15
X5.05Y-4.9
X5.1Y-3.65
X5.15Y-4.9
X5.175Y-4.7
X5.2Y-3.85
X5.2Y-4.15
X5.3Y-3.65
X5.4Y-3.65
X5.55Y-3.65
X5.65Y-3.65
X6.1Y-3.9
X6.125Y-4.75
X6.125Y-4.85
X6.2Y-4.15
X6.2Y-4.4
X6.225Y-4.75
X6.3Y-4.15
X6.3Y-4.4
X6.4Y-3.9
T3
X4.7Y-4.8
X4.7Y-4.9
X6.2Y-3.65
X6.3Y-3.65
X6.6Y-3.65
X6.7Y-3.65
X6.8Y-4.15
X6.8Y-4.75
X7.Y-3.65
X7.Y-3.75
X7.Y-4.15
X7.Y-4.75
T4
X5.43Y-4.8
X5.65Y-4.8
X5.87Y-4.8
T5
X5.6525Y-4.0295
T0
M30
