M48
;DRILL file {Pcbnew (2013-jul-07)-stable} date 2014年08月04日 (週一) 02時43分08秒
;FORMAT={-:-/ absolute / inch / decimal}
FMAT,2
INCH,TZ
T1C0.025
T2C0.030
T3C0.032
T4C0.040
T5C0.045
T6C0.120
%
G90
G05
M72
T1
X5.6318Y-4.3861
X6.1447Y-3.7403
X6.847Y-4.733
X7.0819Y-4.6987
T2
X5.095Y-4.09
X5.295Y-4.09
T3
X4.01Y-3.31
X4.01Y-4.235
X4.11Y-3.31
X4.11Y-4.235
X4.3Y-4.25
X4.3Y-4.35
X4.37Y-3.915
X4.37Y-4.015
X4.4Y-4.25
X4.575Y-3.88
X4.575Y-4.08
X4.585Y-4.225
X4.585Y-4.52
X4.585Y-4.82
X4.685Y-4.225
X4.685Y-4.52
X4.685Y-4.82
X4.785Y-4.52
X4.785Y-4.82
X4.82Y-4.225
X4.875Y-3.88
X4.875Y-4.08
X4.885Y-4.52
X4.885Y-4.82
X4.92Y-4.225
X5.02Y-3.88
X5.04Y-3.61
X5.04Y-3.71
X5.08Y-4.525
X5.08Y-4.825
X5.12Y-3.88
X5.17Y-3.61
X5.17Y-3.71
X5.18Y-4.525
X5.18Y-4.825
X5.26Y-3.88
X5.28Y-4.525
X5.28Y-4.825
X5.35Y-3.61
X5.35Y-3.71
X5.36Y-3.88
X5.38Y-4.525
X5.38Y-4.825
X5.48Y-3.61
X5.48Y-3.71
X5.57Y-4.52
X5.57Y-4.82
X5.575Y-3.92
X5.575Y-4.04
X5.585Y-4.195
X5.67Y-4.52
X5.67Y-4.82
X5.675Y-3.92
X5.675Y-4.04
X5.685Y-4.195
X5.74Y-3.38
X5.74Y-3.48
X5.74Y-3.67
X5.74Y-3.77
X5.77Y-4.52
X5.77Y-4.82
X5.84Y-3.38
X5.84Y-3.67
X5.87Y-4.52
X5.87Y-4.82
X6.Y-3.87
X6.Y-4.17
X6.06Y-4.52
X6.06Y-4.82
X6.1Y-3.305
X6.1Y-3.605
X6.1Y-3.87
X6.1Y-4.17
X6.16Y-4.52
X6.16Y-4.82
X6.2Y-3.305
X6.2Y-3.605
X6.2Y-3.87
X6.2Y-4.17
X6.26Y-4.52
X6.26Y-4.82
X6.3Y-3.305
X6.3Y-3.605
X6.3Y-3.87
X6.3Y-4.17
X6.36Y-4.52
X6.36Y-4.82
X6.4Y-3.305
X6.4Y-3.605
X6.4Y-3.87
X6.4Y-4.17
X6.5Y-3.305
X6.5Y-3.605
X6.5Y-3.87
X6.5Y-4.17
X6.6Y-3.305
X6.6Y-3.605
X6.6Y-3.87
X6.6Y-4.17
X6.645Y-4.515
X6.645Y-4.815
X6.7Y-3.305
X6.7Y-3.605
X6.7Y-3.87
X6.7Y-4.17
X6.745Y-4.515
X6.745Y-4.815
X6.8Y-3.305
X6.8Y-3.605
X6.8Y-3.87
X6.8Y-4.17
X6.845Y-4.515
X6.845Y-4.815
X6.9Y-3.87
X6.9Y-4.17
X6.945Y-4.515
X6.945Y-4.815
X7.Y-3.87
X7.Y-4.17
X7.045Y-4.515
X7.045Y-4.815
X7.1Y-3.87
X7.1Y-4.17
X7.145Y-4.515
X7.145Y-4.815
X7.2Y-3.87
X7.2Y-4.17
X7.245Y-4.515
X7.245Y-4.815
X7.3Y-3.87
X7.3Y-4.17
X7.345Y-4.515
X7.345Y-4.815
X7.58Y-3.845
X7.58Y-3.945
X7.71Y-3.85
X7.71Y-3.95
X7.84Y-3.85
X7.84Y-3.95
T4
X4.01Y-3.9
X4.01Y-4.015
X4.11Y-3.9
X4.11Y-4.015
X5.06Y-3.31
X5.06Y-3.42
X5.16Y-3.31
X5.16Y-3.42
X5.36Y-3.31
X5.36Y-3.42
X5.46Y-3.31
X5.46Y-3.42
X7.04Y-3.31
X7.04Y-3.41
X7.14Y-3.31
X7.14Y-3.41
X7.24Y-3.31
X7.24Y-3.41
X7.34Y-3.31
X7.34Y-3.41
X7.44Y-3.31
X7.44Y-3.41
X7.54Y-3.31
X7.54Y-3.41
X7.63Y-4.135
X7.63Y-4.235
X7.71Y-3.3
X7.71Y-3.4
X7.71Y-3.5
X7.71Y-3.6
X7.74Y-4.135
X7.74Y-4.235
X7.74Y-4.51
X7.74Y-4.61
X7.74Y-4.71
X7.74Y-4.81
X7.83Y-3.3
X7.83Y-3.4
X7.83Y-3.5
X7.83Y-3.6
X7.84Y-4.51
X7.84Y-4.61
X7.84Y-4.71
X7.84Y-4.81
X7.85Y-4.135
X7.85Y-4.235
T5
X4.02Y-3.46
X4.02Y-3.56
X4.02Y-3.66
T6
X4.67Y-3.56
T0
M30
